<svg xmlns="http://www.w3.org/2000/svg" viewBox="0 0 191 207">
	<path fill="currentColor" d="M160.2.25c14.25 0 23.75 7.65 28.1 18.2l-11.5 4.7c-2.75-7.2-8.45-11.35-16.6-11.35a16.76 16.76 0 0 0-12.3 5.25c-4.05 4.5-5.05 9.3-5.05 26.25s.95 21.85 5.05 26.35a16.57 16.57 0 0 0 12.3 5.1 17.64 17.64 0 0 0 13.6-5.95c3.05-3.55 4.2-7.85 4.2-13.3v-4.75h-16.2V39.8h28.9v12.95c0 10.9-2 17.9-7.5 23.9-6.35 6.75-14.2 9.6-23 9.6a30.15 30.15 0 0 1-21.9-9.05c-8.102-8.2-8.101-17.426-8.1-33.368v-1.164c-.001-15.943-.002-25.217 8.1-33.418a29.48 29.48 0 0 1 21.9-9M58 136a368 368 0 0 0 37.05 56.45 42.1 42.1 0 0 0 14.767 10.758 42.1 42.1 0 0 0 17.933 3.492 31.6 31.6 0 0 0 11.4-1.95v-6.4A36.22 36.22 0 0 1 115 185.3 294.6 294.6 0 0 1 78 133a45.286 45.286 0 0 0 34.7-42.1c0-27.65-21.75-40.45-49.55-40.45-8.04 0-15.433.226-22.104.43-5.484.167-10.48.32-14.946.32H.15v7.2l9.25 1.65c6.45 1.2 10.15 3.9 10.45 19.55v97.6c0 15.3-3.7 18.25-10.1 19.45L.5 198.4v7.15c6.65-.3 18.65-.75 29.8-.75 6.41 0 13.876.248 20.225.459 4.697.155 8.781.291 11.375.291v-7.15l-12.8-1.75c-6.7-.95-10.2-4.15-10.2-19.45V136zm.6-74.25c20.75 0 33.05 10.85 33.05 30.55 0 19.45-13.35 32.6-35.25 32.15-8.237 0-11.787-.278-17.177-.701l-.623-.049V61.75z">
	</path>
</svg>