<svg version="1.1" xmlns="http://www.w3.org/2000/svg" xmlns:xlink="http://www.w3.org/1999/xlink" width="300" height="200"><defs><clipPath id="clip-1"><rect x="571.64079" y="258.31228" transform="scale(0.3844,0.3844)" width="52" height="52"></rect></clipPath></defs><g fill="none" fill-rule="nonzero" stroke="none" stroke-width="1" stroke-linecap="butt" stroke-linejoin="miter" stroke-miterlimit="10" stroke-dasharray="" stroke-dashoffset="0" font-family="none" font-weight="none" font-size="none" text-anchor="none" style="mix-blend-mode: normal"><path d="M0,200v-200h300v200z" fill="#57d1c9" stroke="#808080"></path><text x="240" y="190" fill="#000000" stroke="none" font-family="Courier New" font-weight="bold" font-size="7" text-anchor="middle">logo gen function: 37</text><path d="M25,150v-100h250v100z" fill="none" stroke="none"></path><path d="M50,175v-150h200v150z" fill="none" stroke="none"></path><g stroke="none"><g fill="#ed5485"><path d="M58.95104,86.13071l0.25424,4.87441c0.91176,-1.7943 2.13913,-3.19993 3.68211,-4.21689c1.54298,-1.01112 3.39865,-1.51668 5.567,-1.51668c1.96964,0 3.60321,0.39159 4.90071,1.17477c1.29751,0.78902 2.27356,2.01055 2.92815,3.66458c0.91176,-1.48453 2.08361,-2.66222 3.51554,-3.53307c1.42609,-0.87085 3.15025,-1.30627 5.17249,-1.30627c1.51376,0 2.90478,0.25132 4.17306,0.75396c1.27413,0.49679 2.36123,1.28874 3.2613,2.37584c0.89423,1.08125 1.59266,2.46351 2.0953,4.14676c0.49679,1.68325 0.74519,3.71133 0.74519,6.08425v33.81405h-9.50335v-33.90172c0,-1.85859 -0.39159,-3.13564 -1.17477,-3.83115c-0.78318,-0.70135 -1.78845,-1.05203 -3.01582,-1.05203c-1.16892,0 -2.09822,0.27762 -2.78788,0.83286c-0.68382,0.56108 -1.18061,1.29751 -1.49038,2.20927v35.74278h-9.29295v-33.90172c0,-1.80014 -0.36529,-3.06258 -1.09587,-3.78731c-0.72473,-0.73058 -1.7154,-1.09587 -2.97199,-1.09587c-1.19815,0 -2.13913,0.25716 -2.82295,0.77149c-0.68382,0.51433 -1.21276,1.21276 -1.58681,2.0953v35.91812h-9.50335v-46.3157zM107.87928,86.13071h24.69645v37.83807h13.73778v8.47762h-38.43423v-8.47762h14.37777v-29.32538h-14.37777v-8.51269M121.40665,74.14632c0,-1.60143 0.5114,-2.92231 1.53421,-3.96265c1.02865,-1.04034 2.47227,-1.56051 4.33086,-1.56051c1.88197,0 3.34312,0.52017 4.38347,1.56051c1.04034,1.04034 1.56051,2.36123 1.56051,3.96265c0,1.59558 -0.52017,2.91354 -1.56051,3.95389c-1.04034,1.04034 -2.5015,1.56051 -4.38347,1.56051c-1.85859,0 -3.30221,-0.52017 -4.33086,-1.56051c-1.02281,-1.04034 -1.53421,-2.3583 -1.53421,-3.95389zM167.50318,86.13071l0.64875,6.41739c1.68325,-2.30863 3.71718,-4.1 6.10178,-5.37413c2.37876,-1.26828 5.02345,-1.90242 7.93407,-1.90242c2.37292,0 4.53543,0.34191 6.48753,1.02573c1.95795,0.68967 3.6412,1.76215 5.04975,3.21746c1.4144,1.45531 2.51319,3.33728 3.29637,5.6459c0.78318,2.31447 1.17477,5.09651 1.17477,8.34612v28.93964h-10.23101v-28.7643c0,-1.91119 -0.21917,-3.50969 -0.65752,-4.79551c-0.44419,-1.28582 -1.07249,-2.31447 -1.88489,-3.08596c-0.8124,-0.77149 -1.80307,-1.32088 -2.97199,-1.64818c-1.17477,-0.3273 -2.50442,-0.49095 -3.98895,-0.49095c-2.25018,0 -4.21105,0.49972 -5.88261,1.49915c-1.67156,0.99943 -3.01875,2.35538 -4.04156,4.06786v33.2179h-10.27484v-46.3157zM209.50555,108.94227c0,-3.50677 0.42666,-6.71547 1.27997,-9.62609c0.85331,-2.91062 2.08068,-5.4092 3.68211,-7.49573c1.59558,-2.08068 3.53015,-3.6938 5.80371,-4.83935c2.26771,-1.1397 4.81305,-1.70955 7.636,-1.70955c2.54241,0 4.78382,0.43542 6.72424,1.30627c1.94041,0.87085 3.63828,2.11868 5.09359,3.74348v-23.62688h10.27484v65.75198h-9.29295l-0.51725,-4.70784c-1.45531,1.80014 -3.20285,3.17655 -5.24262,4.12922c-2.03977,0.95852 -4.41561,1.43778 -7.12752,1.43778c-2.79373,0 -5.3186,-0.59323 -7.57463,-1.77969c-2.25602,-1.18646 -4.17598,-2.82003 -5.75987,-4.90071c-1.58389,-2.08653 -2.81126,-4.56173 -3.68211,-7.42559c-0.865,-2.86971 -1.29751,-5.98781 -1.29751,-9.35432v-0.90299"></path></g><g clip-path="url(#clip-1)" fill="#57d1c9"><g><path d="M237.38034,110.01892c0,0 0,0.03844 0,0c-0.03844,0 -0.26908,0.03844 -0.61503,0.03844c-1.07631,0 -3.34425,-0.1922 -4.30524,-1.76822c-0.11532,-0.1922 -0.03844,-0.42284 0.1922,-0.53815c0.23064,-0.11532 0.46128,-0.03844 0.57659,0.15376c0.96099,1.61446 3.99772,1.34539 4.03616,1.34539v0c0.26908,-0.76879 0.73035,-2.38326 0.11532,-3.57488c-0.26908,-0.49972 -0.69191,-0.84567 -1.26851,-1.03787c0.15376,-0.53815 0.34596,-1.53758 -0.11532,-2.34482c-0.3844,-0.69191 -1.15319,-1.11475 -2.26794,-1.23007c-0.23064,-0.26908 -0.96099,-0.99943 -2.07574,-0.99943c-0.49972,0 -1.03787,0.15376 -1.53758,0.46128v17.52847c0.3844,0.23064 0.96099,0.46128 1.57602,0.46128c0.88411,0 2.11418,-0.46128 3.03673,-2.61389c0.53815,-0.07688 1.80666,-0.42284 2.53701,-1.61446c0.69191,-1.07631 0.69191,-2.49858 0.11532,-4.2668zM231.26844,103.83014c0.03844,-0.1922 0.23064,-0.34596 0.46128,-0.30752c0.1922,0.03844 0.34596,0.23064 0.30752,0.42284c0,0.03844 -0.03844,0.23064 0.15376,0.46128c0.1922,0.23064 0.69191,0.53815 1.76822,0.61503c0.23064,0 0.3844,0.1922 0.34596,0.42284c0,0.1922 -0.1922,0.34596 -0.3844,0.34596c0,0 0,0 -0.03844,0c-1.11475,-0.07688 -1.92198,-0.3844 -2.34482,-0.92255c-0.34596,-0.46128 -0.26908,-0.96099 -0.26908,-1.03787zM233.99765,113.13253c-1.11475,0.07688 -1.57602,0.3844 -1.76822,0.61503c-0.1922,0.23064 -0.15376,0.46128 -0.15376,0.46128c0.03844,0.1922 -0.11532,0.3844 -0.30752,0.42284h-0.03844c-0.1922,0 -0.34596,-0.11532 -0.3844,-0.30752c0,-0.03844 -0.07688,-0.53815 0.30752,-1.03787c0.42284,-0.53815 1.23007,-0.84567 2.34482,-0.92255c0.23064,0 0.3844,0.15376 0.42284,0.34596c-0.07688,0.23064 -0.23064,0.42284 -0.42284,0.42284z"></path><path d="M229.34646,100.52433c-0.49972,-0.30752 -1.03787,-0.46128 -1.53758,-0.46128c-1.11475,0 -1.8451,0.73035 -2.11418,1.03787c-1.11475,0.11532 -1.8451,0.53815 -2.26794,1.23007c-0.46128,0.80723 -0.30752,1.80666 -0.11532,2.34482c-0.57659,0.1922 -0.99943,0.53815 -1.26851,1.03787c-0.53815,1.03787 -0.23064,2.4217 0.03844,3.26737c1.46071,-1.49915 4.42056,-1.23007 4.57431,-1.23007c0.23064,0.03844 0.42284,0.1922 0.3844,0.42284c-0.03844,0.1922 -0.23064,0.3844 -0.46128,0.34596c-0.03844,0 -3.19049,-0.26908 -4.15148,1.34539c-0.07688,0.11532 -0.23064,0.1922 -0.34596,0.1922c-0.57659,1.76822 -0.53815,3.19049 0.11532,4.22836c0.73035,1.19163 1.99886,1.49915 2.53701,1.61446c0.92255,2.15262 2.15262,2.61389 3.03673,2.61389c0.61503,0 1.19163,-0.23064 1.61446,-0.46128v-17.52847zM225.54094,105.829c-0.03844,0 -0.03844,0 0,0c-0.23064,0 -0.3844,-0.15376 -0.42284,-0.34596c0,-0.23064 0.15376,-0.3844 0.34596,-0.42284c1.11475,-0.07688 1.57602,-0.3844 1.76822,-0.61503c0.1922,-0.23064 0.15376,-0.46128 0.15376,-0.46128c-0.03844,-0.1922 0.11532,-0.3844 0.30752,-0.42284c0.1922,-0.03844 0.3844,0.11532 0.42284,0.30752c0,0.03844 0.07688,0.53815 -0.30752,1.03787c-0.34596,0.53815 -1.15319,0.84567 -2.26794,0.92255zM228.19327,114.36259c-0.03844,0.1922 -0.1922,0.30752 -0.3844,0.30752c-0.03844,0 -0.03844,0 -0.07688,0c-0.1922,-0.03844 -0.34596,-0.23064 -0.30752,-0.42284c0,-0.03844 0.03844,-0.23064 -0.15376,-0.46128c-0.23064,-0.26908 -0.69191,-0.57659 -1.80666,-0.65347c-0.23064,0 -0.3844,-0.1922 -0.34596,-0.42284c0,-0.23064 0.1922,-0.3844 0.42284,-0.34596c1.11475,0.07688 1.92198,0.3844 2.34482,0.92255c0.3844,0.49972 0.30752,0.99943 0.30752,1.07631z"></path></g></g></g></g></svg>