<svg version="1.1" xmlns="http://www.w3.org/2000/svg" xmlns:xlink="http://www.w3.org/1999/xlink" width="300" height="200"><g fill="none" fill-rule="nonzero" stroke="none" stroke-width="1" stroke-linecap="butt" stroke-linejoin="miter" stroke-miterlimit="10" stroke-dasharray="" stroke-dashoffset="0" font-family="none" font-weight="none" font-size="none" text-anchor="none" style="mix-blend-mode: normal"><path d="M0,200v-200h300v200z" fill="#e5eced" stroke="#808080"></path><text x="240" y="190" fill="#000000" stroke="none" font-family="Courier New" font-weight="bold" font-size="7" text-anchor="middle">logo gen function: 59</text><path d="M25,150v-100h250v100z" fill="none" stroke="none"></path><g fill="#bf0633" stroke="none"><path d="M34.91147,103.90749c0.36678,0.05279 0.75996,0.09725 1.17954,0.13338c0.42236,0.03334 0.8461,0.05696 1.27124,0.07086c0.42791,0.01389 0.84888,0.02362 1.2629,0.02918c0.41402,0.00556 0.79747,0.00834 1.15036,0.00834h0.40846c0.20284,0 0.37234,-0.03057 0.50849,-0.0917c0.13615,-0.06113 0.20423,-0.21257 0.20423,-0.45431c0,-0.27231 -0.0653,-0.53767 -0.1959,-0.79609c-0.12782,-0.25842 -0.23202,-0.51544 -0.3126,-0.77108c-0.15005,-0.51683 -0.29037,-1.03922 -0.42097,-1.56716c-0.12782,-0.53072 -0.2862,-1.03366 -0.47515,-1.50881c0,-0.02501 -0.04168,-0.10976 -0.12504,-0.25425c-0.08058,-0.14171 -0.12782,-0.22646 -0.14171,-0.25425c-0.01389,-0.0389 -0.03057,-0.11948 -0.05002,-0.24174c-0.01945,-0.12226 -0.04307,-0.25842 -0.07086,-0.40846c-0.02779,-0.15005 -0.05141,-0.2862 -0.07086,-0.40846c-0.02223,-0.12226 -0.0389,-0.20284 -0.05002,-0.24174c0,-0.01389 -0.02084,-0.07225 -0.06252,-0.17506c-0.04168,-0.10003 -0.09309,-0.21535 -0.15422,-0.34594c-0.06113,-0.12782 -0.11809,-0.2598 -0.17089,-0.39596c-0.05557,-0.13615 -0.09586,-0.24452 -0.12087,-0.3251c0,0 -0.01389,-0.02779 -0.04168,-0.08336c-0.02779,-0.05279 -0.05557,-0.10976 -0.08336,-0.17089c-0.02779,-0.06113 -0.05418,-0.11531 -0.07919,-0.16255c-0.02779,-0.04724 -0.04168,-0.0778 -0.04168,-0.0917c-0.06669,-0.12226 -0.11392,-0.25842 -0.14171,-0.40846c-0.02779,-0.15005 -0.05835,-0.29176 -0.0917,-0.42513c-0.03334,-0.13615 -0.0778,-0.26536 -0.13338,-0.38762c-0.05279,-0.12226 -0.13476,-0.22368 -0.24591,-0.30426h-0.10003c-0.18895,0 -0.34872,0.1556 -0.47932,0.46681c-0.12782,0.31121 -0.23896,0.6641 -0.33344,1.05867c-0.09447,0.39179 -0.17228,0.77525 -0.23341,1.15036c-0.06113,0.37234 -0.11254,0.61964 -0.15422,0.7419c-0.02779,0.08058 -0.06808,0.21674 -0.12087,0.40846c-0.05557,0.18895 -0.09725,0.30426 -0.12504,0.34594c-0.14727,0.58352 -0.30565,1.16287 -0.47515,1.73805c-0.1695,0.57796 -0.31538,1.1587 -0.43764,1.74222c0,0.01111 -0.00417,0.06113 -0.0125,0.15005c-0.00556,0.08892 -0.01528,0.18339 -0.02918,0.28342c-0.01389,0.10281 -0.02779,0.19867 -0.04168,0.28759c-0.01389,0.08892 -0.02084,0.14588 -0.02084,0.17089c-0.0389,0.10837 -0.08336,0.19034 -0.13338,0.24591c-0.04724,0.05279 -0.09031,0.10976 -0.12921,0.17089c-0.04168,0.06113 -0.07641,0.12921 -0.1042,0.20423c-0.02501,0.07502 -0.03751,0.17367 -0.03751,0.29593v0.14171c0,0.10837 0.0125,0.20006 0.03751,0.27509c0.02779,0.07502 0.10281,0.12643 0.22507,0.15422M25,115.06102c0,-0.10837 0.04029,-0.22368 0.12087,-0.34594c0.08336,-0.12226 0.16533,-0.21118 0.24591,-0.26675c0.02779,0 0.12921,-0.00973 0.30426,-0.02918c0.17783,-0.02223 0.29315,-0.04585 0.34594,-0.07086c0.3251,-0.09725 0.62381,-0.21674 0.89612,-0.35845c0.27231,-0.14171 0.55712,-0.28759 0.85444,-0.43764c0.3001,-0.12226 0.55851,-0.21674 0.77525,-0.28342c0.21674,-0.06947 0.40985,-0.15144 0.57935,-0.24591c0.1695,-0.09447 0.33205,-0.22229 0.48765,-0.38345c0.1556,-0.16394 0.31538,-0.39457 0.47932,-0.69189c0.09447,-0.17783 0.15144,-0.40291 0.17089,-0.67521c0.02223,-0.26953 0.04585,-0.47932 0.07086,-0.62937c0,-0.01389 0.02362,-0.05141 0.07086,-0.11254c0.05002,-0.06113 0.07502,-0.09864 0.07502,-0.11254c0.01111,-0.05279 0.03473,-0.12643 0.07086,-0.2209c0.03334,-0.09725 0.05002,-0.15838 0.05002,-0.18339c0,-0.01389 0.00278,-0.06252 0.00834,-0.14588c0.00834,-0.08058 0.01945,-0.16116 0.03334,-0.24174c0.01389,-0.08058 0.0264,-0.15838 0.03751,-0.23341c0.01389,-0.07502 0.02084,-0.11948 0.02084,-0.13338c0.01389,-0.02779 0.03473,-0.06113 0.06252,-0.10003c0.01389,-0.02779 0.02779,-0.05835 0.04168,-0.0917c0.01389,-0.03612 0.0264,-0.06669 0.03751,-0.0917c0.08336,-0.13615 0.17506,-0.3126 0.27509,-0.52933c0.10281,-0.21674 0.20145,-0.44736 0.29593,-0.69189c0.09447,-0.24452 0.18339,-0.47932 0.26675,-0.70439c0.08058,-0.22229 0.14171,-0.41541 0.18339,-0.57935c0.09447,-0.40568 0.21951,-0.81276 0.37512,-1.22122c0.1556,-0.40568 0.29454,-0.81276 0.4168,-1.22122c0.05557,-0.27231 0.10976,-0.56407 0.16255,-0.87528c0.05557,-0.31121 0.1167,-0.60297 0.18339,-0.87528c0.02779,-0.0389 0.06808,-0.14449 0.12087,-0.31677c0.05557,-0.1695 0.09725,-0.28064 0.12504,-0.33344c0.01389,-0.02779 0.06113,-0.0917 0.14171,-0.19173c0.08058,-0.10281 0.12087,-0.16811 0.12087,-0.1959c0.01389,-0.01389 0.02362,-0.05141 0.02918,-0.11254c0.00834,-0.06113 0.01945,-0.12921 0.03334,-0.20423c0.01389,-0.07225 0.02362,-0.13893 0.02918,-0.20006c0.00834,-0.06113 0.0125,-0.09864 0.0125,-0.11254c0.02501,-0.05557 0.05557,-0.14032 0.0917,-0.25425c0.03334,-0.1167 0.06252,-0.22924 0.08753,-0.33761c0.02779,-0.10837 0.05279,-0.20701 0.07502,-0.29593c0.01945,-0.08614 0.02918,-0.13615 0.02918,-0.15005c0,-0.01389 0.02084,-0.0653 0.06252,-0.15422c0.0389,-0.08892 0.07919,-0.18339 0.12087,-0.28342c0.0389,-0.10281 0.07641,-0.19867 0.11254,-0.28759c0.03334,-0.08614 0.05696,-0.1431 0.07086,-0.17089c0.02779,-0.02779 0.06808,-0.1167 0.12087,-0.26675c0.05557,-0.14727 0.10976,-0.30565 0.16255,-0.47515c0.05557,-0.1695 0.10698,-0.33205 0.15422,-0.48765c0.04724,-0.15838 0.07086,-0.25703 0.07086,-0.29593c0.05279,-0.13615 0.10976,-0.3126 0.17089,-0.52933c0.06113,-0.21674 0.13338,-0.43764 0.21674,-0.66271c0.08058,-0.22507 0.17506,-0.43486 0.28342,-0.62937c0.10837,-0.19728 0.23063,-0.34316 0.36678,-0.43764c0.05279,-0.339 0.14032,-0.66132 0.26258,-0.96697c0.12226,-0.30565 0.25147,-0.60436 0.38762,-0.89612c0.13615,-0.29176 0.25564,-0.59046 0.35845,-0.89612c0.10003,-0.30565 0.15005,-0.62798 0.15005,-0.96697c0,-0.28342 -0.04446,-0.50711 -0.13338,-0.67105c-0.08614,-0.16394 -0.18061,-0.29593 -0.28342,-0.39596c-0.10281,-0.10281 -0.19728,-0.20145 -0.28342,-0.29593c-0.08892,-0.09447 -0.13338,-0.22368 -0.13338,-0.38762c0,-0.02779 0.00695,-0.07225 0.02084,-0.13338c0.01389,-0.05835 0.02084,-0.10142 0.02084,-0.12921c0.18895,-0.10837 0.40568,-0.20423 0.65021,-0.28759c0.24452,-0.08058 0.48488,-0.17228 0.72106,-0.27509c0.23896,-0.10003 0.45292,-0.22785 0.64187,-0.38345c0.19173,-0.1556 0.32093,-0.35567 0.38762,-0.60019c0.01389,-0.02779 0.04029,-0.10281 0.07919,-0.22507c0.04168,-0.12226 0.08336,-0.25147 0.12504,-0.38762c0.0389,-0.13615 0.07919,-0.26536 0.12087,-0.38762c0.04168,-0.12226 0.06947,-0.1959 0.08336,-0.2209c0.02501,-0.12226 0.08197,-0.24452 0.17089,-0.36678c0.08892,-0.12226 0.20145,-0.18339 0.33761,-0.18339c0.01389,0 0.02362,0.00278 0.02918,0.00834c0.00556,0.00834 0.01528,0.0125 0.02918,0.0125h0.04168c0.04168,0.02779 0.09309,0.07086 0.15422,0.12921c0.06113,0.06113 0.12921,0.12643 0.20423,0.1959c0.07225,0.06669 0.13615,0.1306 0.19173,0.19173c0.05279,0.06113 0.08614,0.10559 0.10003,0.13338c0.02779,0 0.05835,0.04446 0.0917,0.13338c0.03612,0.08614 0.05418,0.15699 0.05418,0.21257c0,0.05557 0.01945,0.17089 0.05835,0.34594c0.04168,0.17506 0.08197,0.36123 0.12087,0.55851c0.04168,0.19728 0.08336,0.38484 0.12504,0.56268c0.0389,0.17506 0.05835,0.28342 0.05835,0.3251c0.01389,0.05279 0.05557,0.18061 0.12504,0.38345c0.06669,0.20562 0.13754,0.41958 0.21257,0.64187c0.07502,0.22507 0.14588,0.43625 0.21257,0.63353c0.06947,0.19451 0.1042,0.31955 0.1042,0.37512c0.12226,0.43347 0.24452,0.90167 0.36678,1.40461c0.11948,0.50294 0.2473,0.97114 0.38345,1.40461c0,0.01389 0.01806,0.05835 0.05418,0.13338c0.03334,0.07225 0.07363,0.15283 0.12087,0.24174c0.04724,0.08892 0.09447,0.17089 0.14171,0.24591c0.04724,0.07502 0.0778,0.11809 0.0917,0.12921c0.10837,0.25842 0.17228,0.5335 0.19173,0.82526c0.02223,0.29176 0.08753,0.57379 0.1959,0.8461c0.26953,0.85305 0.5474,1.68109 0.8336,2.48412c0.28342,0.80025 0.54045,1.6269 0.77108,2.47995c0.01389,0.04168 0.03473,0.12365 0.06252,0.24591c0.02779,0.12226 0.05557,0.25425 0.08336,0.39596c0.02501,0.14171 0.05141,0.2737 0.07919,0.39596c0.02779,0.12226 0.04168,0.19728 0.04168,0.22507c0.01389,0.02779 0.04029,0.08475 0.07919,0.17089c0.04168,0.08892 0.08614,0.18061 0.13338,0.27509c0.04724,0.09725 0.08892,0.18617 0.12504,0.26675c0.03334,0.08058 0.05002,0.12782 0.05002,0.14171c0,0.02779 0.00695,0.08614 0.02084,0.17506c0.01389,0.08614 0.0264,0.18061 0.03751,0.28342c0.01389,0.10281 0.02779,0.19728 0.04168,0.28342c0.01389,0.08892 0.02084,0.14727 0.02084,0.17506c0.01389,0.05279 0.04446,0.17506 0.0917,0.36678c0.04724,0.18895 0.10142,0.38901 0.16255,0.60019c0.06113,0.2084 0.11948,0.40846 0.17506,0.60019c0.05279,0.18895 0.08614,0.31121 0.10003,0.36678c0.15005,0.54184 0.32232,1.07673 0.51683,1.60467c0.19728,0.53072 0.364,1.08784 0.50016,1.67136c0.10837,0.51405 0.21396,1.01282 0.31677,1.49631c0.10003,0.48071 0.24591,0.95864 0.43764,1.43379c0.08058,0.20284 0.1556,0.42375 0.22507,0.66271c0.06669,0.23619 0.16116,0.43625 0.28342,0.60019c0.15005,0.23063 0.34316,0.4168 0.57935,0.55851c0.23619,0.14171 0.48765,0.25286 0.75441,0.33344c0.26397,0.08336 0.53489,0.14171 0.81276,0.17506c0.27787,0.03334 0.53211,0.05696 0.76274,0.07086c0.20284,0.06947 0.32788,0.17506 0.37512,0.31677c0.05002,0.14171 0.07502,0.30148 0.07502,0.47932c0,0.01111 -0.00417,0.02779 -0.0125,0.05002c-0.00556,0.01945 -0.00834,0.04307 -0.00834,0.07086c-0.01389,0.0389 -0.02084,0.07225 -0.02084,0.10003l-0.26675,0.14171h-0.65021h-0.89612c-0.02779,0 -0.0917,-0.02362 -0.19173,-0.07086c-0.10281,-0.04724 -0.16116,-0.07086 -0.17506,-0.07086h-0.10003c-0.21674,0 -0.42097,0.02362 -0.61269,0.07086c-0.18895,0.04724 -0.39874,0.07086 -0.62937,0.07086c-0.27231,0 -0.5474,-0.02362 -0.82526,-0.07086c-0.27787,-0.04724 -0.55851,-0.07086 -0.84193,-0.07086c-0.15005,0 -0.29315,0.02362 -0.4293,0.07086c-0.13615,0.04724 -0.27787,0.07086 -0.42513,0.07086c-0.36678,0 -0.73079,-0.02362 -1.09201,-0.07086c-0.35845,-0.04724 -0.73495,-0.07086 -1.12952,-0.07086c-0.56962,0 -1.14203,0.04724 -1.71721,0.14171c-0.57796,0.09725 -1.17259,0.14588 -1.7839,0.14588h-0.60853c-0.10837,-0.09725 -0.20006,-0.20701 -0.27509,-0.32927c-0.07502,-0.11948 -0.11254,-0.25425 -0.11254,-0.40429c0,-0.17783 0.09864,-0.31399 0.29593,-0.40846c0.19728,-0.09447 0.44459,-0.1695 0.7419,-0.22507c0.3001,-0.05279 0.63631,-0.09586 1.00865,-0.12921c0.37234,-0.03612 0.73495,-0.08058 1.08784,-0.13338c0.35289,-0.05557 0.67521,-0.13754 0.96697,-0.24591c0.29176,-0.10837 0.51266,-0.25703 0.66271,-0.44597v-0.4293v-0.42513c-0.01389,-0.01389 -0.03057,-0.0653 -0.05002,-0.15422c-0.02223,-0.08614 -0.04585,-0.18756 -0.07086,-0.30426c-0.02779,-0.11392 -0.05557,-0.22229 -0.08336,-0.3251c-0.02779,-0.10281 -0.04863,-0.18756 -0.06252,-0.25425c-0.01389,-0.02779 -0.04029,-0.09586 -0.07919,-0.20423c-0.04168,-0.10837 -0.08614,-0.22646 -0.13338,-0.35428c-0.04724,-0.1306 -0.08753,-0.25008 -0.12087,-0.35845c-0.03334,-0.10837 -0.05002,-0.17644 -0.05002,-0.20423c-0.01389,-0.0389 -0.0389,-0.12643 -0.07502,-0.26258c-0.03334,-0.13615 -0.06947,-0.2862 -0.10837,-0.45014c-0.04168,-0.16116 -0.08336,-0.3126 -0.12504,-0.45431c-0.0389,-0.14449 -0.05835,-0.23619 -0.05835,-0.27509c-0.01389,-0.01389 -0.03751,-0.07502 -0.07086,-0.18339c-0.03612,-0.10837 -0.0778,-0.22785 -0.12504,-0.35845c-0.04724,-0.12782 -0.08753,-0.25008 -0.12087,-0.36678c-0.03334,-0.11392 -0.05696,-0.18478 -0.07086,-0.21257c-0.04168,-0.15005 -0.08197,-0.32927 -0.12087,-0.53767c-0.04168,-0.21118 -0.09309,-0.42513 -0.15422,-0.64187c-0.06113,-0.21674 -0.13199,-0.41402 -0.21257,-0.59185c-0.08336,-0.17506 -0.18617,-0.30426 -0.30843,-0.38762h-0.87111h-0.89612c-0.02779,0 -0.09586,0.02501 -0.20423,0.07502c-0.10837,0.04724 -0.17644,0.07086 -0.20423,0.07086h-0.04168h-0.05835c-0.01389,0 -0.05835,-0.00695 -0.13338,-0.02084c-0.07502,-0.01389 -0.15699,-0.03057 -0.24591,-0.05002c-0.08614,-0.02223 -0.16672,-0.04029 -0.24174,-0.05418c-0.07502,-0.01389 -0.11948,-0.02084 -0.13338,-0.02084c-0.01389,0 -0.05418,0.00695 -0.12087,0.02084c-0.06947,0.01389 -0.13754,0.03195 -0.20423,0.05418c-0.06947,0.01945 -0.13476,0.03612 -0.1959,0.05002c-0.06113,0.01389 -0.0917,0.02084 -0.0917,0.02084h-2.33824c-0.05557,0 -0.14727,0.00278 -0.27509,0.00834c-0.12782,0.00834 -0.26675,0.01806 -0.4168,0.02918c-0.15005,0.01389 -0.28898,0.02779 -0.4168,0.04168c-0.1306,0.01389 -0.22229,0.02779 -0.27509,0.04168c-0.02779,0.01389 -0.04863,0.02779 -0.06252,0.04168c-0.02779,0.01389 -0.04446,0.0264 -0.05002,0.03751c-0.00556,0.01389 -0.01528,0.02084 -0.02918,0.02084c-0.27231,0.85583 -0.5335,1.72416 -0.78358,2.60499c-0.25286,0.88361 -0.4946,1.75889 -0.72523,2.62583c-0.05279,0.21674 -0.1306,0.44736 -0.23341,0.69189c-0.10003,0.24452 -0.15005,0.4821 -0.15005,0.71273c0,0.17783 0.04307,0.35428 0.12921,0.52933c0.08892,0.17783 0.17367,0.33344 0.25425,0.46681c0.04168,0 0.12365,0.00695 0.24591,0.02084c0.12226,0.01389 0.25147,0.03195 0.38762,0.05418c0.13615,0.01945 0.26536,0.03612 0.38762,0.05002c0.11948,0.01389 0.20006,0.02084 0.24174,0.02084c0.01389,0 0.05835,0.0125 0.13338,0.03751c0.07502,0.02779 0.1556,0.05557 0.24174,0.08336c0.08892,0.02779 0.17089,0.05141 0.24591,0.07086c0.07502,0.01945 0.11948,0.02918 0.13338,0.02918c0.17506,0.04168 0.36123,0.06947 0.55851,0.08336c0.19728,0.01389 0.37651,0.04029 0.53767,0.07919c0.16394,0.04168 0.3001,0.11392 0.40846,0.21674c0.10837,0.10003 0.16255,0.25842 0.16255,0.47515c0,0.39457 -0.08475,0.63214 -0.25425,0.71273c-0.1695,0.08336 -0.40291,0.12504 -0.70022,0.12504h-0.26675h-0.81276c-0.02779,0 -0.08614,-0.00695 -0.17506,-0.02084c-0.08614,-0.01389 -0.17783,-0.03057 -0.27509,-0.05002c-0.09447,-0.02223 -0.18478,-0.04029 -0.27092,-0.05418c-0.08892,-0.01389 -0.14727,-0.02084 -0.17506,-0.02084h-2.40076c-0.02779,0 -0.08614,-0.00556 -0.17506,-0.01667c-0.08614,-0.01389 -0.18061,-0.03195 -0.28342,-0.05418c-0.10281,-0.01945 -0.19728,-0.03612 -0.28342,-0.05002c-0.08892,-0.01389 -0.14727,-0.02084 -0.17506,-0.02084h-0.34594c-0.12226,0 -0.23063,0.00695 -0.3251,0.02084c-0.09447,0.01389 -0.20979,0.05418 -0.34594,0.12087h-2.13818c-0.05279,0.02779 -0.12087,0.05835 -0.20423,0.0917c-0.08058,0.03612 -0.13476,0.05418 -0.16255,0.05418h-0.10003c-0.06669,0 -0.15838,-0.02084 -0.27509,-0.06252c-0.11392,-0.04168 -0.22924,-0.09309 -0.34594,-0.15422c-0.11392,-0.06113 -0.21535,-0.13476 -0.30426,-0.2209c-0.08892,-0.08892 -0.13338,-0.17367 -0.13338,-0.25425zM83.91866,115.01934c0,-0.12226 0.04446,-0.21396 0.13338,-0.27509c0.08614,-0.06113 0.18756,-0.10837 0.30426,-0.14171c0.11392,-0.03334 0.23619,-0.05418 0.36678,-0.06252c0.12782,-0.00556 0.23202,-0.02223 0.3126,-0.05002c0.02779,0 0.09309,-0.01667 0.1959,-0.05002c0.10003,-0.03612 0.16394,-0.05418 0.19173,-0.05418h1.67136c0.21674,-0.08058 0.37929,-0.22229 0.48765,-0.42513c0,-0.06947 0.00695,-0.19173 0.02084,-0.36678c0.01389,-0.17506 0.0264,-0.36539 0.03751,-0.57101c0.01389,-0.20284 0.02779,-0.39179 0.04168,-0.56685c0.01389,-0.17783 0.02084,-0.3001 0.02084,-0.36678c0,-0.01389 0.00695,-0.04863 0.02084,-0.1042c0.01389,-0.05279 0.03057,-0.10976 0.05002,-0.17089c0.01945,-0.06113 0.03612,-0.11531 0.05002,-0.16255c0.01389,-0.04724 0.02084,-0.07086 0.02084,-0.07086v-2.4216l0.04168,-0.12504c0.01389,-0.05279 0.04724,-0.09309 0.10003,-0.12087v-0.08336v-0.05835c-0.12226,-0.53072 -0.20284,-1.067 -0.24174,-1.60884c-0.04168,-0.54184 -0.06252,-1.09062 -0.06252,-1.64635c0,-0.23063 0.00417,-0.4682 0.0125,-0.71273c0.00556,-0.24452 0.00834,-0.4821 0.00834,-0.71273c-0.06669,-0.15005 -0.1042,-0.30287 -0.11254,-0.45848c-0.00556,-0.1556 -0.00834,-0.32232 -0.00834,-0.50016v-0.58769c0,-0.73357 0.01945,-1.46018 0.05835,-2.17986c0.04168,-0.71967 0.06252,-1.42545 0.06252,-2.11734c0,-0.31121 -0.02084,-0.61964 -0.06252,-0.92529c-0.0389,-0.30565 -0.05835,-0.61408 -0.05835,-0.92529c0,-0.23063 0.01945,-0.44042 0.05835,-0.62937c0.04168,-0.19173 0.06252,-0.39596 0.06252,-0.61269c0,-0.39179 -0.02084,-0.78219 -0.06252,-1.1712c-0.0389,-0.38623 -0.05835,-0.7683 -0.05835,-1.1462c0,-0.47515 0.01945,-0.93085 0.05835,-1.3671c0.04168,-0.43347 0.06252,-0.88778 0.06252,-1.36293v-0.20423c0,-0.0389 -0.00695,-0.10976 -0.02084,-0.21257c-0.01389,-0.10003 -0.02779,-0.2084 -0.04168,-0.3251c-0.01111,-0.11392 -0.02362,-0.21951 -0.03751,-0.31677c-0.01389,-0.09447 -0.02084,-0.1556 -0.02084,-0.18339v-0.97531c-0.02779,-0.04168 -0.10281,-0.12643 -0.22507,-0.25425c-0.12226,-0.12782 -0.20979,-0.21951 -0.26258,-0.27509c-0.02779,-0.02779 -0.07641,-0.05418 -0.14588,-0.07919c-0.06669,-0.02779 -0.10698,-0.04168 -0.12087,-0.04168h-2.30073l-0.75024,-0.52933c-0.01389,-0.01389 -0.02084,-0.03473 -0.02084,-0.06252c-0.01389,-0.02779 -0.02084,-0.06113 -0.02084,-0.10003c0,-0.15005 0.02084,-0.24869 0.06252,-0.29593c0.0389,-0.04724 0.11254,-0.14588 0.2209,-0.29593c0.01389,-0.01389 0.02501,-0.02779 0.03334,-0.04168c0.00556,-0.01111 0.02223,-0.02362 0.05002,-0.03751c0.01389,-0.01389 0.03334,-0.02779 0.05835,-0.04168h0.65437c0.01389,0 0.08753,-0.04029 0.2209,-0.12087c0.13615,-0.08336 0.21812,-0.12504 0.24591,-0.12504c0.20284,-0.06669 0.41263,-0.10698 0.62937,-0.12087c0.21674,-0.01389 0.44042,-0.02084 0.67105,-0.02084h0.51266c0.40568,0 0.7683,0.04029 1.08784,0.12087c0.31955,0.08336 0.67521,0.12504 1.067,0.12504h6.4312c0.04168,0 0.10976,0.00973 0.20423,0.02918c0.09447,0.01945 0.1959,0.04307 0.30426,0.07086c0.10837,0.02779 0.20979,0.05557 0.30426,0.08336c0.09725,0.02501 0.16533,0.05141 0.20423,0.07919c0.15005,0.06947 0.23896,0.14449 0.26675,0.22507c0.02501,0.08058 0.03751,0.182 0.03751,0.30426c0,0.27231 -0.11115,0.45848 -0.33344,0.55851c-0.22507,0.10281 -0.46543,0.16811 -0.72106,0.1959h-2.93426c-0.29732,0.08058 -0.49043,0.26675 -0.57935,0.55851c-0.08614,0.29176 -0.1431,0.57379 -0.17089,0.8461c-0.05557,0.39179 -0.1167,0.82526 -0.18339,1.30041c-0.06947,0.47515 -0.1042,0.92946 -0.1042,1.36293c0,0.54462 0.03057,1.0809 0.0917,1.60884c0.06113,0.53072 0.0917,1.06006 0.0917,1.588c0,0.15005 -0.00556,0.25147 -0.01667,0.30426c-0.01389,0.05557 -0.06947,0.13754 -0.16672,0.24591v1.03783c0,0.339 0.03057,0.65437 0.0917,0.94613c0.06113,0.29176 0.0917,0.60019 0.0917,0.92529c0,0.27231 -0.04724,0.54045 -0.14171,0.80442c-0.09447,0.26397 -0.14171,0.54601 -0.14171,0.8461v0.16255c0.05557,0.02501 0.16394,0.0653 0.3251,0.12087c0.16394,0.05279 0.26536,0.09309 0.30426,0.12087h0.1042h0.02084c0.09447,-0.02779 0.21951,-0.05141 0.37512,-0.07086c0.1556,-0.01945 0.2473,-0.02918 0.27509,-0.02918c0.02779,0 0.07502,-0.02084 0.14171,-0.06252c0.04168,-0.02779 0.07641,-0.05418 0.1042,-0.07919c0.0389,0 0.11948,-0.00695 0.24174,-0.02084c0.12226,-0.01389 0.25147,-0.02779 0.38762,-0.04168c0.13615,-0.01389 0.26536,-0.02779 0.38762,-0.04168c0.12226,-0.01389 0.20284,-0.02779 0.24174,-0.04168c0.02779,0 0.07225,-0.00973 0.13338,-0.02918c0.06113,-0.01945 0.11254,-0.04307 0.15422,-0.07086h5.33085c0.01389,0.02779 0.07086,0.05141 0.17089,0.07086c0.10281,0.01945 0.16811,0.02918 0.1959,0.02918h1.40461c0.05279,0.06947 0.12365,0.11115 0.21257,0.12504c0.08892,0.01389 0.18756,0.02084 0.29593,0.02084h0.30426h0.59185c0.05279,0 0.16394,-0.01389 0.33344,-0.04168c0.1695,-0.02779 0.34594,-0.05557 0.52933,-0.08336c0.18339,-0.02501 0.35984,-0.04863 0.52933,-0.07086c0.1695,-0.01945 0.29454,-0.03612 0.37512,-0.05002c0.04168,-0.02779 0.09725,-0.06113 0.16672,-0.10003c0.06669,-0.04168 0.13754,-0.09031 0.21257,-0.14588c0.07502,-0.05279 0.13893,-0.10976 0.19173,-0.17089c0.05557,-0.06113 0.08336,-0.13199 0.08336,-0.21257v-2.30073c-0.13615,-0.20284 -0.2209,-0.39596 -0.25425,-0.57935c-0.03612,-0.18339 -0.05418,-0.37651 -0.05418,-0.57935v-0.28759c0,-0.35289 0.02779,-0.70856 0.08336,-1.067c0.05557,-0.36123 0.08336,-0.71828 0.08336,-1.07117v-0.17922c-0.01389,-0.05557 -0.0389,-0.17089 -0.07502,-0.34594c-0.03334,-0.17783 -0.05002,-0.28064 -0.05002,-0.30843c0,-0.3779 0.06113,-0.74051 0.18339,-1.08784c0.12226,-0.34455 0.18339,-0.70022 0.18339,-1.067c0,-0.13615 -0.03334,-0.26814 -0.10003,-0.39596c-0.06947,-0.1306 -0.1167,-0.25703 -0.14171,-0.37929c-0.05557,-0.20284 -0.09725,-0.37512 -0.12504,-0.51683c-0.02779,-0.14449 -0.04168,-0.30426 -0.04168,-0.47932c0,-0.06947 0,-0.14449 0,-0.22507c0,-0.08058 0.01389,-0.17506 0.04168,-0.28342l-0.24174,-0.28759c-0.01389,0 -0.08614,-0.0125 -0.21674,-0.03751c-0.12782,-0.02779 -0.2737,-0.05141 -0.43764,-0.07086c-0.16116,-0.02223 -0.32649,-0.04585 -0.49599,-0.07086c-0.1695,-0.02779 -0.30148,-0.04168 -0.39596,-0.04168h-1.52965c-0.10837,-0.01389 -0.23063,-0.04168 -0.36678,-0.08336c-0.13338,-0.0389 -0.25842,-0.09309 -0.37512,-0.16255c-0.11392,-0.06669 -0.21257,-0.15422 -0.29593,-0.26258c-0.08058,-0.10837 -0.12087,-0.23758 -0.12087,-0.38762c0,-0.29732 0.11531,-0.48071 0.34594,-0.55017c0.23063,-0.06669 0.4682,-0.10003 0.71273,-0.10003c0.46126,0 0.92251,0.02362 1.38377,0.07086c0.46126,0.04724 0.92946,0.07086 1.40461,0.07086c0.3251,0 0.60297,-0.00695 0.8336,-0.02084c0.23063,-0.01389 0.52239,-0.05418 0.87528,-0.12087c0.17506,0.12226 0.36817,0.1959 0.57935,0.2209c0.21118,0.02779 0.41819,0.04168 0.62103,0.04168h0.28342c0.20562,0 0.40291,-0.03751 0.59185,-0.11254c0.18895,-0.07502 0.39318,-0.12504 0.61269,-0.15005c0.52794,-0.02779 1.07673,-0.07641 1.64635,-0.14588c0.56962,-0.06669 1.11285,-0.10003 1.62968,-0.10003c0.20284,0 0.42236,0.05835 0.65854,0.17506c0.23896,0.11392 0.41958,0.26536 0.54184,0.45431c0.01389,0.05557 0.03334,0.14727 0.05835,0.27509c0.02779,0.1306 0.04168,0.20979 0.04168,0.23758c0,0.02501 -0.06808,0.09864 -0.20423,0.2209c-0.13338,0.12226 -0.22785,0.21812 -0.28342,0.28759c-0.02779,0 -0.07502,0.01667 -0.14171,0.05002c-0.06947,0.03334 -0.10976,0.06391 -0.12087,0.0917h-0.04168h-0.1042c-0.01389,0 -0.04446,-0.00695 -0.0917,-0.02084c-0.04724,-0.01389 -0.09725,-0.03057 -0.15005,-0.05002c-0.05557,-0.02223 -0.10976,-0.04029 -0.16255,-0.05418c-0.05557,-0.01111 -0.09031,-0.01667 -0.1042,-0.01667h-0.93363h-0.95864c-0.06669,0.18895 -0.15838,0.35845 -0.27509,0.50849c-0.11392,0.14727 -0.19173,0.31677 -0.23341,0.50849v2.54247v2.5258c0,0.0389 0.00695,0.14032 0.02084,0.30426c0.01389,0.16116 0.03057,0.33344 0.05002,0.51683c0.02223,0.18339 0.0389,0.35706 0.05002,0.521c0.01389,0.16116 0.02084,0.26258 0.02084,0.30426v0.06252c0,0.26953 -0.02362,0.5474 -0.07086,0.8336c-0.04724,0.28342 -0.07086,0.56129 -0.07086,0.8336c0,0.15005 0.02362,0.27231 0.07086,0.36678c0.04724,0.09447 0.07086,0.21674 0.07086,0.36678c0,0.16116 -0.0125,0.31399 -0.03751,0.45848c-0.02779,0.14171 -0.06252,0.30704 -0.1042,0.49599c0,0.20562 0.00695,0.54601 0.02084,1.02116c0.01389,0.47237 0.02084,0.98781 0.02084,1.54632c0,0.54184 -0.00695,1.05033 -0.02084,1.52548c-0.01389,0.47515 -0.02084,0.8072 -0.02084,0.99615c0,0.02779 -0.00695,0.09586 -0.02084,0.20423c-0.01389,0.10837 -0.03057,0.22646 -0.05002,0.35428c-0.01945,0.1306 -0.03612,0.25286 -0.05002,0.36678c-0.01389,0.1167 -0.02084,0.19451 -0.02084,0.23341c0,0.02779 0.02362,0.09309 0.07086,0.1959c0.04724,0.10003 0.07086,0.16394 0.07086,0.19173v0.40846c0,0.70578 -0.04446,1.40461 -0.13338,2.0965c-0.08614,0.69189 -0.12921,1.39072 -0.12921,2.0965v1.20038c0,0.06669 0.00556,0.21951 0.01667,0.45848c0.01389,0.23619 0.02779,0.49043 0.04168,0.76274c0.01389,0.26953 0.02779,0.51961 0.04168,0.75024c0.01389,0.23063 0.02084,0.37373 0.02084,0.4293c0.01389,0.16394 0.02362,0.32371 0.02918,0.47932c0.00834,0.1556 0.03612,0.29454 0.08336,0.4168c0.04724,0.12226 0.12782,0.2209 0.24174,0.29593c0.1167,0.07225 0.28342,0.10837 0.50016,0.10837c0.24452,0 0.4821,-0.02362 0.71273,-0.07086c0.23063,-0.04724 0.46126,-0.07086 0.69189,-0.07086c0.13615,0 0.29593,0.01111 0.47932,0.03334c0.18339,0.01945 0.35984,0.05974 0.52933,0.12087c0.1695,0.06113 0.31121,0.13893 0.42513,0.23341c0.1167,0.09447 0.17506,0.21674 0.17506,0.36678c0,0.15005 -0.04446,0.26536 -0.13338,0.34594c-0.08892,0.08058 -0.20145,0.14449 -0.33761,0.19173c-0.13338,0.04724 -0.28203,0.0778 -0.44597,0.0917c-0.16394,0.01389 -0.31399,0.02084 -0.45014,0.02084h-0.36261h-0.4293c-0.16394,0 -0.33344,-0.00695 -0.50849,-0.02084c-0.17506,-0.01389 -0.35845,-0.05418 -0.55017,-0.12087h-4.92239c-0.06947,-0.02779 -0.17922,-0.05835 -0.32927,-0.0917c-0.14727,-0.03334 -0.24869,-0.05002 -0.30426,-0.05002h-0.07919c-0.45014,0 -0.90862,0.04724 -1.37544,0.14171c-0.46681,0.09447 -0.93085,0.14171 -1.39211,0.14171c-0.12226,0 -0.25842,-0.00973 -0.40846,-0.02918c-0.15005,-0.01945 -0.28898,-0.05696 -0.4168,-0.11254c-0.1306,-0.05557 -0.23619,-0.13338 -0.31677,-0.23341c-0.08058,-0.10281 -0.12087,-0.24174 -0.12087,-0.4168c0,-0.21674 0.10559,-0.34872 0.31677,-0.39596c0.2084,-0.05002 0.40846,-0.07502 0.60019,-0.07502h0.40429c0.19173,0 0.38901,0.00417 0.59185,0.0125c0.20284,0.00556 0.40568,0.00834 0.60853,0.00834c0.35289,0 0.68911,-0.0264 1.00865,-0.07919c0.31955,-0.05557 0.63492,-0.17783 0.94613,-0.36678c0.08058,-0.04168 0.13893,-0.10559 0.17506,-0.19173c0.03334,-0.08892 0.05696,-0.18478 0.07086,-0.28759c0.01389,-0.10003 0.02084,-0.19451 0.02084,-0.28342c0,-0.08892 0,-0.15977 0,-0.21257v-1.00032v-0.40429c0,-0.04168 0.01667,-0.1306 0.05002,-0.26675c0.03334,-0.13615 0.06391,-0.21674 0.0917,-0.24174v-0.79609c0,-0.23063 -0.02779,-0.45709 -0.08336,-0.67938c-0.05279,-0.22507 -0.07919,-0.45292 -0.07919,-0.68355v-0.06252c0,-0.01389 0.00278,-0.0264 0.00834,-0.03751c0.00834,-0.01389 0.0125,-0.02779 0.0125,-0.04168c0,-0.02779 0.01667,-0.08892 0.05002,-0.18339c0.03334,-0.09447 0.06391,-0.1556 0.0917,-0.18339c-0.02779,-0.17783 -0.04585,-0.50016 -0.05418,-0.96697c-0.00556,-0.46681 -0.00834,-0.96558 -0.00834,-1.49631c0,-0.52794 0.00278,-1.02255 0.00834,-1.4838c0.00834,-0.46126 0.0264,-0.78775 0.05418,-0.97948c0,-0.0389 0.00278,-0.11254 0.00834,-0.2209c0.00834,-0.11115 0.01806,-0.23063 0.02918,-0.35845c0.01389,-0.12782 0.02779,-0.25008 0.04168,-0.36678c0.01389,-0.11392 0.02084,-0.18478 0.02084,-0.21257v-0.28342c0,-0.16394 -0.03751,-0.28342 -0.11254,-0.35845c-0.07502,-0.07502 -0.1695,-0.12504 -0.28342,-0.15005c-0.1167,-0.02779 -0.23896,-0.04585 -0.36678,-0.05418c-0.12782,-0.00556 -0.24591,-0.02223 -0.35428,-0.05002c-0.02779,0 -0.09309,-0.01667 -0.1959,-0.05002c-0.10003,-0.03334 -0.16394,-0.05002 -0.19173,-0.05002h-0.1042h-0.02084c-0.02501,0 -0.08892,0.01667 -0.19173,0.05002c-0.10281,0.03334 -0.16672,0.05002 -0.19173,0.05002c-0.35289,0.06947 -0.703,0.11392 -1.05033,0.13338c-0.34455,0.01945 -0.68633,0.02918 -1.02532,0.02918c-0.31399,0 -0.62937,-0.00278 -0.94613,-0.00834c-0.31955,-0.00834 -0.63492,-0.0125 -0.94613,-0.0125c-0.01389,0.01389 -0.05141,0.03751 -0.11254,0.07086c-0.06113,0.03612 -0.10559,0.05418 -0.13338,0.05418h-0.02084h-0.10003c-0.05557,0 -0.17783,-0.02084 -0.36678,-0.06252c-0.19173,-0.04168 -0.32093,-0.06252 -0.38762,-0.06252h-4.07212c-0.14727,-0.06669 -0.29593,-0.10698 -0.44597,-0.12087c-0.15005,-0.01389 -0.29871,-0.02084 -0.44597,-0.02084h-0.36678h-0.79609c-0.3251,0.15005 -0.52517,0.38068 -0.60019,0.69189c-0.07502,0.31121 -0.12504,0.63631 -0.15005,0.97531v2.0965v0.81693c0,0.06669 -0.00417,0.22924 -0.0125,0.48765c-0.00556,0.25842 -0.01528,0.53628 -0.02918,0.8336c-0.01389,0.3001 -0.03057,0.57796 -0.05002,0.8336c-0.02223,0.25842 -0.04029,0.41541 -0.05418,0.47098v0.54601v0.38762c0,0.2862 0.01806,0.56407 0.05418,0.8336c0.03334,0.27231 0.11115,0.53767 0.23341,0.79609v2.66334c-0.02779,0.02779 -0.05835,0.06947 -0.0917,0.12504c-0.03334,0.05279 -0.05002,0.09309 -0.05002,0.12087c0.02501,0.05557 0.09864,0.13338 0.2209,0.23341c0.12226,0.10281 0.21812,0.15422 0.28759,0.15422c0.0389,0 0.1306,-0.01667 0.27509,-0.05002c0.14171,-0.03612 0.21951,-0.05418 0.23341,-0.05418h0.73357h0.77108c0.08058,0 0.21951,0.00417 0.4168,0.0125c0.19728,0.00556 0.40429,0.01528 0.62103,0.02918c0.21674,0.01389 0.42097,0.02501 0.61269,0.03334c0.18895,0.00556 0.32371,0.01528 0.40429,0.02918c0.09447,0.06669 0.15977,0.14449 0.1959,0.23341c0.03334,0.08892 0.05002,0.18061 0.05002,0.27509c0,0.28342 -0.11531,0.46681 -0.34594,0.55017c-0.23063,0.08058 -0.4821,0.12087 -0.75441,0.12087c-0.12226,0 -0.24452,-0.00278 -0.36678,-0.00834c-0.12226,-0.00834 -0.22368,-0.0125 -0.30426,-0.0125h-0.42513c-0.16394,0 -0.32093,-0.00695 -0.47098,-0.02084c-0.15005,-0.01389 -0.31955,-0.05418 -0.50849,-0.12087h-4.4139c-0.05557,-0.06669 -0.11115,-0.10698 -0.16672,-0.12087c-0.05279,-0.01389 -0.11254,-0.02084 -0.17922,-0.02084h-0.14588c-0.23063,0 -0.46404,0.03751 -0.70022,0.11254c-0.23896,0.07502 -0.46681,0.13199 -0.68355,0.17089c-0.08058,0 -0.2084,0.00695 -0.38345,0.02084c-0.17783,0.01389 -0.35845,0.02779 -0.54184,0.04168c-0.18339,0.01389 -0.35984,0.02362 -0.52933,0.02918c-0.1695,0.00834 -0.28064,0.0125 -0.33344,0.0125h-0.71273h-0.69189c-0.24452,-0.16394 -0.36678,-0.40846 -0.36678,-0.73357zM117.9461,115.44447c0,-0.24452 0.08753,-0.43764 0.26258,-0.57935c0.17783,-0.14171 0.36123,-0.26675 0.55017,-0.37512c0.20284,0.01389 0.40985,0.02779 0.62103,0.04168c0.21118,0.01389 0.42513,0.02084 0.64187,0.02084c0.35289,0 0.69189,-0.03473 1.01699,-0.1042c0.3251,-0.06669 0.62381,-0.21535 0.89612,-0.44597c0.02779,-0.02779 0.07502,-0.07641 0.14171,-0.14588c0.06947,-0.06669 0.1042,-0.10698 0.1042,-0.12087v-8.73193c-0.11115,-0.21674 -0.16672,-0.46681 -0.16672,-0.75024v-0.65021c0,-0.11115 -0.00278,-0.2209 -0.00834,-0.32927c-0.00556,-0.10837 -0.02918,-0.21674 -0.07086,-0.3251v-3.03013c0,-0.02779 0.01667,-0.08892 0.05002,-0.18339c0.03334,-0.09447 0.06391,-0.16255 0.0917,-0.20423v-0.12087v-0.14171c-0.06669,-0.31399 -0.10698,-0.63076 -0.12087,-0.9503c-0.01389,-0.31677 -0.06113,-0.6377 -0.14171,-0.9628v-3.76786c0,-0.05279 -0.00695,-0.19867 -0.02084,-0.43764c-0.01389,-0.23619 -0.02501,-0.49321 -0.03334,-0.77108c-0.00556,-0.27787 -0.01528,-0.53211 -0.02918,-0.76274c-0.01389,-0.23063 -0.02084,-0.38068 -0.02084,-0.45014v-0.07919c0,-0.36678 0.03751,-0.75024 0.11254,-1.15036c0.07502,-0.40013 0.11254,-0.79053 0.11254,-1.1712c0,-0.01389 -0.02084,-0.09586 -0.06252,-0.24591c-0.0389,-0.14727 -0.05835,-0.2348 -0.05835,-0.26258c-0.02779,-0.08058 -0.04863,-0.18617 -0.06252,-0.31677c-0.01389,-0.12782 -0.04168,-0.25286 -0.08336,-0.37512c-0.0389,-0.12226 -0.09586,-0.22785 -0.17089,-0.31677c-0.07502,-0.08892 -0.17367,-0.13893 -0.29593,-0.15005c-0.59741,-0.05557 -1.17676,-0.08336 -1.73805,-0.08336c-0.56407,0 -1.13786,-0.05418 -1.72138,-0.16255c-0.10837,-0.12226 -0.17644,-0.2348 -0.20423,-0.33761c-0.02779,-0.10003 -0.04168,-0.22507 -0.04168,-0.37512v-0.18339c0.02779,-0.01389 0.10281,-0.08892 0.22507,-0.22507c0.12226,-0.13338 0.21812,-0.22785 0.28759,-0.28342h0.03751h0.06252c0.04168,0 0.14032,0.00695 0.29593,0.02084c0.1556,0.01389 0.31816,0.03057 0.48765,0.05002c0.1695,0.01945 0.32927,0.03612 0.47932,0.05002c0.14727,0.01389 0.24174,0.02084 0.28342,0.02084h0.24591c0.3251,0 0.63353,-0.04307 0.92529,-0.12921c0.29176,-0.08892 0.59324,-0.13338 0.90445,-0.13338h0.08336c0.08058,0.08058 0.16811,0.12087 0.26258,0.12087h0.79609c0.83915,0 1.65886,-0.04029 2.45911,-0.12087c0.80025,-0.08336 1.60745,-0.16533 2.4216,-0.24591h0.89612c0.01389,0 0.05141,-0.00695 0.11254,-0.02084c0.06113,-0.01389 0.12921,-0.03057 0.20423,-0.05002c0.07502,-0.01945 0.1431,-0.03612 0.20423,-0.05002c0.06113,-0.01389 0.10559,-0.02084 0.13338,-0.02084c0.01111,0 0.07086,-0.00278 0.17922,-0.00834c0.11115,-0.00834 0.23063,-0.01945 0.35845,-0.03334c0.12782,-0.01389 0.2598,-0.02779 0.39596,-0.04168c0.13615,-0.01111 0.24452,-0.03057 0.3251,-0.05835h0.06252c0.13615,0 0.2473,0.03751 0.33344,0.11254c0.08892,0.07502 0.16116,0.16672 0.21674,0.27509c0.05279,0.10837 0.09031,0.22368 0.11254,0.34594c0.01945,0.12226 0.02918,0.23063 0.02918,0.3251v0.34594c-0.01389,0.0389 -0.04724,0.08197 -0.10003,0.12921c-0.05557,0.05002 -0.1167,0.09447 -0.18339,0.13338c-0.06947,0.04168 -0.13754,0.07641 -0.20423,0.1042c-0.06947,0.02501 -0.12365,0.03751 -0.16255,0.03751h-3.66366c-0.23063,0 -0.42097,0.08475 -0.57101,0.25425c-0.15005,0.1695 -0.22507,0.35011 -0.22507,0.54184v0.10003c0.01389,0.05557 0.02779,0.19451 0.04168,0.4168c0.01389,0.22507 0.02779,0.46681 0.04168,0.72523c0.01389,0.25564 0.02779,0.49877 0.04168,0.7294c0.01389,0.23063 0.02084,0.37373 0.02084,0.4293c0,0.13615 0.00556,0.38068 0.01667,0.73357c0.01389,0.35289 0.02084,0.73218 0.02084,1.13786c0,0.40846 -0.00695,0.79609 -0.02084,1.16287c-0.01111,0.364 -0.01667,0.61408 -0.01667,0.75024c0.14727,0.46126 0.2348,0.94335 0.26258,1.44629c0.02779,0.50294 0.04168,1.00448 0.04168,1.50464v1.07951c0,0.73357 -0.02779,1.44907 -0.08336,2.14651c-0.05279,0.70022 -0.07919,1.40878 -0.07919,2.12567c0,0.43625 0.03334,0.87111 0.10003,1.30458c0.06947,0.43347 0.1167,0.86694 0.14171,1.30041c0.05557,1.05867 0.09725,2.10761 0.12504,3.14683c0.02501,1.03644 0.03751,2.08399 0.03751,3.14266c0,0.39457 0,0.78219 0,1.16287c0,0.3779 -0.0125,0.76413 -0.03751,1.1587c0,0.05279 0.01667,0.16116 0.05002,0.3251c0.03334,0.16394 0.06391,0.26536 0.0917,0.30426c0.06669,0.16394 0.17783,0.26536 0.33344,0.30426c0.1556,0.04168 0.30843,0.06252 0.45848,0.06252h0.34594c0.01389,0 0.07225,0.02362 0.17506,0.07086c0.10003,0.04724 0.16394,0.07086 0.19173,0.07086h0.14171h0.12504c0.01111,0 0.05141,-0.00695 0.12087,-0.02084c0.06669,-0.01389 0.13476,-0.03057 0.20423,-0.05002c0.06669,-0.01945 0.1306,-0.03612 0.19173,-0.05002c0.06113,-0.01389 0.09864,-0.02084 0.11254,-0.02084c0.12226,-0.01389 0.30843,-0.02362 0.55851,-0.02918c0.25286,-0.00834 0.51405,-0.01945 0.78358,-0.03334c0.27231,-0.01111 0.52378,-0.02084 0.75441,-0.02918c0.23063,-0.00556 0.38623,-0.00834 0.46681,-0.00834c0.01389,0 0.07225,0.00695 0.17506,0.02084c0.10003,0.01111 0.20423,0.02084 0.3126,0.02918c0.10837,0.00556 0.21396,0.01528 0.31677,0.02918c0.10281,0.01389 0.16116,0.02084 0.17506,0.02084h0.52517c0.34177,0 0.68494,-0.01667 1.02949,-0.05002c0.34733,-0.03334 0.69744,-0.05002 1.05033,-0.05002c0.3779,0 0.75024,0.01667 1.11702,0.05002c0.36678,0.03334 0.74746,0.05002 1.14203,0.05002c0.24174,0 0.43764,-0.01667 0.58769,-0.05002c0.15005,-0.03334 0.34039,-0.05002 0.57101,-0.05002h0.30426c0.15005,-0.20562 0.3126,-0.34177 0.48765,-0.40846c0.17783,-0.06669 0.36123,-0.1959 0.55017,-0.38762c0.3001,-0.25842 0.58213,-0.51266 0.8461,-0.76274c0.26397,-0.25008 0.51127,-0.51127 0.7419,-0.78358c0.23063,-0.27231 0.44459,-0.5599 0.64187,-0.86277c0.19728,-0.30565 0.38345,-0.64187 0.55851,-1.00865c0.05557,-0.09447 0.13338,-0.26397 0.23341,-0.50849c0.10281,-0.24452 0.2084,-0.50988 0.31677,-0.79609c0.10837,-0.28342 0.20701,-0.55017 0.29593,-0.80025c0.08614,-0.25286 0.15005,-0.42652 0.19173,-0.521c0.01389,-0.05279 0.07225,-0.14449 0.17506,-0.27509c0.10003,-0.12782 0.16394,-0.20562 0.19173,-0.23341c0.02779,-0.02779 0.04863,-0.05557 0.06252,-0.08336c0.01389,-0.01111 0.0264,-0.03057 0.03751,-0.05835h0.08336c0.28342,0 0.49043,0.11115 0.62103,0.33344c0.12782,0.22507 0.19173,0.46681 0.19173,0.72523v0.24174c-0.10837,0.69189 -0.20979,1.39489 -0.30426,2.109c-0.09447,0.71134 -0.1959,1.43379 -0.30426,2.16735c-0.01389,0.06669 -0.03057,0.21535 -0.05002,0.44597c-0.02223,0.23063 -0.04724,0.4821 -0.07502,0.75441c-0.02501,0.26953 -0.05557,0.52378 -0.0917,0.76274c-0.03334,0.23619 -0.05696,0.38207 -0.07086,0.43764c-0.02501,0.40568 -0.14032,0.6766 -0.34594,0.81276c-0.20284,0.13615 -0.50711,0.20423 -0.91279,0.20423h-0.14588c-0.09447,-0.01389 -0.2598,-0.03057 -0.49599,-0.05002c-0.23896,-0.02223 -0.49043,-0.04585 -0.75441,-0.07086c-0.26397,-0.02779 -0.51822,-0.05141 -0.76274,-0.07086c-0.24452,-0.02223 -0.41402,-0.04029 -0.50849,-0.05418c-0.02779,0.02779 -0.08892,0.05141 -0.18339,0.07086c-0.09447,0.02223 -0.1556,0.03334 -0.18339,0.03334h-1.40461c-0.02779,0 -0.10559,0.02362 -0.23341,0.07086c-0.12782,0.04724 -0.21257,0.07086 -0.25425,0.07086c-0.02779,0 -0.11254,-0.02362 -0.25425,-0.07086c-0.14171,-0.04724 -0.22646,-0.07086 -0.25425,-0.07086h-0.14171c-0.15005,0 -0.29315,0.04724 -0.4293,0.14171c-0.13615,0.09447 -0.27787,0.14171 -0.42513,0.14171c-0.09447,0 -0.17228,-0.00695 -0.23341,-0.02084c-0.06113,-0.01389 -0.12643,-0.03057 -0.1959,-0.05002c-0.06669,-0.01945 -0.14727,-0.03612 -0.24174,-0.05002c-0.09725,-0.01389 -0.21257,-0.02084 -0.34594,-0.02084c-0.3001,0 -0.59185,0.02362 -0.87528,0.07086c-0.2862,0.04724 -0.57796,0.07086 -0.87528,0.07086c-0.10837,0 -0.20006,-0.02362 -0.27509,-0.07086c-0.07502,-0.04724 -0.16672,-0.07086 -0.27509,-0.07086c-0.08336,0 -0.16116,0.02362 -0.23341,0.07086c-0.07502,0.04724 -0.15422,0.07086 -0.23758,0.07086h-0.03751c-0.02779,0 -0.09309,-0.01667 -0.1959,-0.05002c-0.10003,-0.03334 -0.15699,-0.06391 -0.17089,-0.0917h-4.58062c-0.02779,0 -0.08892,-0.00695 -0.18339,-0.02084c-0.09447,-0.01389 -0.19867,-0.03057 -0.3126,-0.05002c-0.1167,-0.01945 -0.22646,-0.03612 -0.32927,-0.05002c-0.10003,-0.01389 -0.17089,-0.02084 -0.21257,-0.02084h-0.24174c-0.40846,0 -0.82665,0.04029 -1.25456,0.12087c-0.42791,0.08058 -0.83777,0.13476 -1.22956,0.16255h-2.19653c-0.08336,0 -0.28481,0.02084 -0.60436,0.06252c-0.31677,0.0389 -0.65854,0.07919 -1.02532,0.12087c-0.36678,0.04168 -0.71273,0.08197 -1.03783,0.12087c-0.3251,0.04168 -0.52933,0.06252 -0.61269,0.06252h-0.34594c-0.23063,0 -0.38901,-0.04446 -0.47515,-0.13338c-0.08892,-0.08614 -0.13338,-0.23202 -0.13338,-0.43764zM148.39324,115.16105v-0.16255c0.16116,-0.2862 0.37373,-0.47932 0.6377,-0.57935c0.26675,-0.10281 0.54878,-0.16394 0.8461,-0.18339c0.29732,-0.02223 0.60297,-0.02918 0.91696,-0.02084c0.31121,0.00556 0.58908,-0.03195 0.8336,-0.11254c0.24452,-0.08058 0.44459,-0.23341 0.60019,-0.45848c0.1556,-0.22229 0.23341,-0.57101 0.23341,-1.04616v-3.62198v-3.62615c0,-0.0389 -0.00695,-0.12921 -0.02084,-0.27092c-0.01389,-0.14449 -0.03057,-0.30426 -0.05002,-0.47932c-0.01945,-0.17783 -0.03612,-0.33761 -0.05002,-0.47932c-0.01389,-0.14171 -0.02084,-0.23341 -0.02084,-0.27509v-0.36678c0,-0.18895 0.00278,-0.36123 0.00834,-0.51683c0.00834,-0.1556 0.01528,-0.30843 0.02084,-0.45848c0.00834,-0.15005 0.02223,-0.30982 0.04168,-0.47932c0.01945,-0.1695 0.04307,-0.36956 0.07086,-0.60019c0,-0.04168 0.02084,-0.09309 0.06252,-0.15422c0.0389,-0.06113 0.05835,-0.1042 0.05835,-0.12921v-0.02084v-0.1042c0,-0.0389 -0.01945,-0.14032 -0.05835,-0.30426c-0.04168,-0.16116 -0.06252,-0.26953 -0.06252,-0.3251v-4.43474c0,-0.04168 -0.00695,-0.15422 -0.02084,-0.33761c-0.01389,-0.18339 -0.03057,-0.38345 -0.05002,-0.60019c-0.01945,-0.21674 -0.03612,-0.4168 -0.05002,-0.60019c-0.01389,-0.18339 -0.02084,-0.29593 -0.02084,-0.33761v-0.65021v-0.65021c0,-0.05557 0.00695,-0.15422 0.02084,-0.29593c0.01389,-0.14171 0.02779,-0.29454 0.04168,-0.45848c0.01389,-0.16116 0.0264,-0.31677 0.03751,-0.46681c0.01389,-0.15005 0.02779,-0.25842 0.04168,-0.3251c0,-0.01389 0.02084,-0.08892 0.06252,-0.22507c0.0389,-0.13615 0.05835,-0.21812 0.05835,-0.24591v-0.10003v-0.14171c-0.02501,-0.20284 -0.05557,-0.43069 -0.0917,-0.68355c-0.03334,-0.25008 -0.06669,-0.50433 -0.10003,-0.76274c-0.03334,-0.25842 -0.06669,-0.50849 -0.10003,-0.75024c-0.03612,-0.24452 -0.07363,-0.46265 -0.11254,-0.65437c-0.05557,-0.24452 -0.17506,-0.4168 -0.35845,-0.51683c-0.18339,-0.10281 -0.3904,-0.17367 -0.62103,-0.21257c-0.23063,-0.04168 -0.46404,-0.06669 -0.70022,-0.07502c-0.23619,-0.00556 -0.43625,-0.02918 -0.60019,-0.07086c-0.01389,0 -0.09586,-0.01945 -0.24591,-0.05835c-0.14727,-0.04168 -0.32371,-0.08614 -0.52933,-0.13338c-0.20284,-0.04724 -0.40985,-0.10142 -0.62103,-0.16255c-0.2084,-0.06113 -0.37373,-0.11254 -0.49599,-0.15422c-0.23063,-0.06669 -0.37373,-0.14449 -0.4293,-0.23341c-0.05279,-0.08892 -0.07919,-0.25564 -0.07919,-0.50016v-0.26258c0.02779,-0.05557 0.12643,-0.11254 0.29593,-0.17089c0.1695,-0.06113 0.28759,-0.08614 0.35428,-0.07502h0.91696c0.77247,0 1.56855,0.02779 2.38826,0.08336c0.82248,0.05279 1.61996,0.10698 2.39242,0.16255c0.02779,0 0.11254,0.01667 0.25425,0.05002c0.14171,0.03334 0.23341,0.06391 0.27509,0.0917h0.02084h0.08336c0.02501,-0.02779 0.10976,-0.05835 0.25425,-0.0917c0.14171,-0.03334 0.22646,-0.05002 0.25425,-0.05002c0.01389,0 0.06113,0.02779 0.14171,0.08336c0.0389,0.02501 0.07225,0.04446 0.10003,0.05835h0.12504h0.14171c0.01389,-0.01389 0.05696,-0.03334 0.12921,-0.05835c0.07502,-0.02779 0.15699,-0.05557 0.24591,-0.08336c0.08892,-0.02779 0.17089,-0.05141 0.24591,-0.07086c0.07225,-0.01945 0.11531,-0.02918 0.12921,-0.02918c0.04168,0 0.10003,0.00973 0.17506,0.02918c0.07502,0.01945 0.15283,0.04029 0.23341,0.06252c0.08058,0.01945 0.15838,0.04585 0.23341,0.07919c0.07502,0.03334 0.12643,0.05696 0.15422,0.07086h1.91311c0.75857,0 1.50464,-0.02362 2.23821,-0.07086c0.73357,-0.04724 1.47964,-0.07086 2.23821,-0.07086h0.30426c0.08336,0 0.21257,0.00695 0.38762,0.02084c0.17506,0.01389 0.36539,0.02779 0.57101,0.04168c0.20284,0.01389 0.39179,0.0264 0.56685,0.03751c0.17783,0.01389 0.30704,0.02779 0.38762,0.04168c0.02779,-0.02779 0.09309,-0.05835 0.1959,-0.0917c0.10003,-0.03334 0.16394,-0.05002 0.19173,-0.05002h0.06252c0.18895,0 0.35428,0.02362 0.49599,0.07086c0.14449,0.04724 0.3515,0.07086 0.62103,0.07086c0.3251,0 0.65715,-0.02362 0.99615,-0.07086c0.34177,-0.04724 0.67521,-0.07086 1.00032,-0.07086h0.50849c0.25842,0 0.53906,0.01667 0.84193,0.05002c0.30565,0.03334 0.54045,0.1042 0.70439,0.21257c0.01389,0 0.03751,0.03473 0.07086,0.1042c0.03334,0.06669 0.05002,0.11392 0.05002,0.14171v0.69189c0,0.58352 -0.04446,1.15731 -0.13338,1.72138c-0.08614,0.56129 -0.12921,1.12675 -0.12921,1.69637c0,0.31399 0.02362,0.61686 0.07086,0.90862c0.04724,0.29176 0.07086,0.60019 0.07086,0.92529v0.28342c0,0.13615 -0.02084,0.26258 -0.06252,0.37929c-0.0389,0.11392 -0.14727,0.17089 -0.3251,0.17089c-0.21674,0 -0.40291,-0.09447 -0.55851,-0.28342c-0.1556,-0.19173 -0.29454,-0.41263 -0.4168,-0.66271c-0.12226,-0.25008 -0.22785,-0.50849 -0.31677,-0.77525c-0.08892,-0.26397 -0.16672,-0.46959 -0.23341,-0.61686c-0.02779,-0.01389 -0.0653,-0.05835 -0.11254,-0.13338c-0.04724,-0.07502 -0.10142,-0.15283 -0.16255,-0.23341c-0.06113,-0.08336 -0.11531,-0.16116 -0.16255,-0.23341c-0.04724,-0.07502 -0.0778,-0.11948 -0.0917,-0.13338c-0.16394,-0.3001 -0.33344,-0.60297 -0.50849,-0.90862c-0.17783,-0.30287 -0.3779,-0.58352 -0.60019,-0.84193c-0.22507,-0.25842 -0.47932,-0.47237 -0.76274,-0.64187c-0.2862,-0.1695 -0.6252,-0.27509 -1.01699,-0.31677c-0.17783,0.01389 -0.47376,0.02084 -0.88778,0.02084c-0.41402,0 -0.85166,0 -1.31292,0c-0.46126,0 -0.8989,0 -1.31292,0c-0.41402,0 -0.69466,-0.00695 -0.84193,-0.02084c-0.04168,0 -0.13754,-0.00695 -0.28759,-0.02084c-0.14727,-0.01111 -0.30565,-0.02779 -0.47515,-0.05002c-0.1695,-0.01945 -0.32927,-0.03612 -0.47932,-0.05002c-0.15005,-0.01389 -0.24591,-0.02084 -0.28759,-0.02084c-0.02501,0 -0.07919,0.00695 -0.16255,0.02084c-0.08058,0.01389 -0.16811,0.03057 -0.26258,0.05002c-0.09447,0.02223 -0.18617,0.0389 -0.27509,0.05002c-0.08892,0.01389 -0.15283,0.02084 -0.19173,0.02084h-0.38762c-0.10837,0 -0.2209,-0.00695 -0.33761,-0.02084c-0.11392,-0.01111 -0.22507,-0.01667 -0.33344,-0.01667c-0.25842,0 -0.48904,0.04724 -0.69189,0.14171c-0.20562,0.09447 -0.37512,0.31816 -0.50849,0.67105v2.05482c0,0.01389 -0.00695,0.04724 -0.02084,0.10003c-0.01389,0.05557 -0.03057,0.12087 -0.05002,0.1959c-0.02223,0.07502 -0.04029,0.1431 -0.05418,0.20423c-0.01389,0.06113 -0.02084,0.09864 -0.02084,0.11254v0.14171v0.14171c0,0.02779 0.01806,0.10559 0.05418,0.23341c0.03334,0.12782 0.06391,0.20562 0.0917,0.23341v7.12309c0,0.04168 0.00278,0.1167 0.00834,0.22507c0.00556,0.10837 0.01528,0.23063 0.02918,0.36678c0.01389,0.13615 0.02779,0.27092 0.04168,0.40429c0.01389,0.13615 0.03473,0.23896 0.06252,0.30843c0.01389,0.18895 0.05141,0.32093 0.11254,0.39596c0.06113,0.07502 0.19312,0.11254 0.39596,0.11254h0.36678c0.12226,0 0.31121,-0.00695 0.56685,-0.02084c0.25842,-0.01389 0.5474,-0.02362 0.86694,-0.02918c0.31955,-0.00834 0.65854,-0.01945 1.01699,-0.03334c0.36123,-0.01389 0.70717,-0.02362 1.03783,-0.02918c0.33344,-0.00834 0.62937,-0.01528 0.88778,-0.02084c0.25564,-0.00556 0.45153,-0.00834 0.58769,-0.00834c0.17783,-0.04168 0.35845,-0.07641 0.54184,-0.1042c0.18061,-0.02779 0.36261,-0.0653 0.54601,-0.11254c0.18339,-0.04724 0.35289,-0.11115 0.50849,-0.19173c0.15838,-0.08058 0.29871,-0.1959 0.42097,-0.34594c0.01111,-0.04168 0.02084,-0.1167 0.02918,-0.22507c0.00556,-0.10837 0.01528,-0.22368 0.02918,-0.34594c0.01389,-0.12226 0.02501,-0.24035 0.03334,-0.35428c0.00556,-0.1167 0.00834,-0.19451 0.00834,-0.23341v-2.76754c0,-0.31399 0.12921,-0.56268 0.38762,-0.74607c0.25842,-0.18339 0.51544,-0.27509 0.77108,-0.27509c0.25842,0 0.45153,0.11254 0.57935,0.33761c0.1306,0.22507 0.23619,0.45292 0.31677,0.68355c-0.02779,0.14727 -0.04168,0.41402 -0.04168,0.80025c0,0.38901 0,0.8072 0,1.25456c0,0.44736 0,0.87389 0,1.27957c0,0.40846 0.01389,0.68772 0.04168,0.83777c0,0.08058 0.00695,0.23619 0.02084,0.46681c0.01389,0.23063 0.02779,0.47515 0.04168,0.73357c0.01389,0.25564 0.02779,0.49877 0.04168,0.7294c0.01111,0.23063 0.02362,0.38762 0.03751,0.47098c0.01389,0.339 0.06113,0.67382 0.14171,1.00448c0.08336,0.33344 0.12504,0.6766 0.12504,1.02949v0.14171c-0.01389,0.12226 -0.03057,0.28481 -0.05002,0.48765c-0.02223,0.20562 -0.04029,0.40568 -0.05418,0.60019c-0.01389,0.19728 -0.02362,0.37373 -0.02918,0.52933c-0.00556,0.1556 -0.00834,0.2473 -0.00834,0.27509c-0.05557,0.23063 -0.14032,0.41124 -0.25425,0.54184c-0.1167,0.12782 -0.29037,0.19173 -0.521,0.19173c-0.35289,0 -0.62381,-0.06113 -0.81276,-0.18339c-0.19173,-0.12226 -0.34177,-0.35289 -0.45014,-0.69189v-2.11734c0,-0.0389 -0.02362,-0.1306 -0.07086,-0.27509c-0.04724,-0.14171 -0.07086,-0.22646 -0.07086,-0.25425c0,-0.0389 -0.00695,-0.11254 -0.02084,-0.2209c-0.01389,-0.10837 -0.03057,-0.22368 -0.05002,-0.34594c-0.01945,-0.12226 -0.03612,-0.24174 -0.05002,-0.35845c-0.01389,-0.11392 -0.02084,-0.19173 -0.02084,-0.23341c-0.01389,-0.02779 -0.04724,-0.0653 -0.10003,-0.11254c-0.05557,-0.04724 -0.1167,-0.09725 -0.18339,-0.15005c-0.06947,-0.05557 -0.13476,-0.10698 -0.1959,-0.15422c-0.06113,-0.04724 -0.10559,-0.0778 -0.13338,-0.0917h-0.05835h-0.08336c-0.77247,0.09447 -1.5491,0.16533 -2.3299,0.21257c-0.7808,0.04724 -1.56438,0.07086 -2.35074,0.07086c-0.26953,0 -0.54323,0 -0.82109,0c-0.28064,0 -0.55573,-0.0125 -0.82526,-0.03751c-0.2862,0.06669 -0.49738,0.12365 -0.63353,0.17089c-0.13338,0.04724 -0.22507,0.11115 -0.27509,0.19173c-0.04724,0.08336 -0.07363,0.19867 -0.07919,0.34594c-0.00834,0.15005 -0.01806,0.34733 -0.02918,0.59185c0,0.01389 -0.02362,0.07502 -0.07086,0.18339c-0.05002,0.10837 -0.07502,0.1695 -0.07502,0.18339v0.04168v0.10003c0,0.01389 0.00695,0.05835 0.02084,0.13338c0.01389,0.07502 0.03195,0.1556 0.05418,0.24174c0.01945,0.08892 0.03612,0.17089 0.05002,0.24591c0.01389,0.07502 0.02084,0.11948 0.02084,0.13338v0.14171v0.12087c0,0.02779 -0.02362,0.12643 -0.07086,0.29593c-0.05002,0.1695 -0.07502,0.26814 -0.07502,0.29593v0.10003v0.04168c0,0.04168 0.00695,0.13615 0.02084,0.28342c0.01389,0.15005 0.03195,0.31399 0.05418,0.49182c0.01945,0.17506 0.03612,0.33344 0.05002,0.47515c0.01389,0.14449 0.02084,0.23619 0.02084,0.27509v3.80537c0,0.02779 0.00556,0.11254 0.01667,0.25425c0.01389,0.14449 0.03195,0.29732 0.05418,0.45848c0.01945,0.16394 0.03612,0.31677 0.05002,0.45848c0.01389,0.14171 0.02084,0.22646 0.02084,0.25425v1.79223c0.06669,0.29732 0.23619,0.53489 0.50849,0.71273c0.08058,0.01389 0.22924,0.03334 0.44597,0.05835c0.21674,0.02779 0.44459,0.05835 0.68355,0.0917c0.23619,0.03612 0.46265,0.06391 0.67938,0.08336c0.21951,0.01945 0.36956,0.02918 0.45014,0.02918h0.36678c0.56962,0 1.12952,-0.01945 1.6797,-0.05835c0.5474,-0.04168 1.1198,-0.06252 1.71721,-0.06252h0.91696c0.02779,0.01389 0.09586,0.03751 0.20423,0.07086c0.10837,0.03334 0.17644,0.05002 0.20423,0.05002c0.01111,0 0.06113,-0.00695 0.15005,-0.02084c0.08892,-0.01389 0.18478,-0.0264 0.28759,-0.03751c0.10003,-0.01389 0.19451,-0.02779 0.28342,-0.04168c0.08892,-0.01389 0.14588,-0.02084 0.17089,-0.02084h1.20038h1.18371c0.09447,0.06669 0.16533,0.1042 0.21257,0.11254c0.04724,0.00556 0.1042,0.00834 0.17089,0.00834h0.14588c0.10837,0 0.25425,-0.01667 0.43764,-0.05002c0.18339,-0.03334 0.28759,-0.05696 0.3126,-0.07086c0.2862,-0.09447 0.47376,-0.23341 0.56268,-0.4168c0.08614,-0.18339 0.20423,-0.37651 0.35428,-0.57935c0.01389,-0.01389 0.04446,-0.04446 0.0917,-0.0917c0.04724,-0.04724 0.09864,-0.10142 0.15422,-0.16255c0.05279,-0.06113 0.10698,-0.11531 0.16255,-0.16255c0.05279,-0.05002 0.08614,-0.08058 0.10003,-0.0917c0.17783,-0.20562 0.32788,-0.43347 0.45014,-0.68355c0.11948,-0.25008 0.26814,-0.49043 0.44597,-0.72106c0,-0.02779 0.05696,-0.09309 0.17089,-0.1959c0.1167,-0.10003 0.182,-0.16394 0.1959,-0.19173c0.06669,-0.08058 0.15422,-0.23063 0.26258,-0.45014c0.10837,-0.21674 0.22785,-0.46404 0.35845,-0.7419c0.12782,-0.27787 0.26258,-0.56546 0.40429,-0.86277c0.14449,-0.3001 0.29037,-0.5724 0.43764,-0.81693c0.15005,-0.24452 0.3001,-0.44736 0.45014,-0.60853c0.15005,-0.16394 0.29871,-0.24591 0.44597,-0.24591c0.15005,0 0.23896,0.06808 0.26675,0.20423c0.02501,0.13615 0.03751,0.27231 0.03751,0.40846v0.24174v0.24591c0,0.10837 -0.00278,0.20701 -0.00834,0.29593c-0.00556,0.08614 -0.04307,0.18478 -0.11254,0.29593l-0.65021,4.57645v0.1042v0.12087c0,0.05279 0.02084,0.17089 0.06252,0.35428c0.0389,0.18339 0.05835,0.28203 0.05835,0.29593c0,0.19173 -0.04029,0.36817 -0.12087,0.52933c-0.08058,0.16394 -0.20979,0.2862 -0.38762,0.36678h-3.55946c-0.05557,0 -0.20145,0.01389 -0.43764,0.04168c-0.23896,0.02779 -0.49321,0.05835 -0.76274,0.0917c-0.27231,0.03334 -0.52378,0.06391 -0.75441,0.0917c-0.23063,0.02501 -0.37373,0.03751 -0.4293,0.03751h-0.38345c-0.05557,0 -0.14449,0.01389 -0.26675,0.04168c-0.12226,0.02779 -0.20284,0.04863 -0.24174,0.06252h-3.38024h-3.38024c-0.89473,-0.01389 -1.79918,-0.0778 -2.71336,-0.19173c-0.91696,-0.1167 -1.83669,-0.17506 -2.75921,-0.17506c-0.39457,0 -0.78497,0.02779 -1.1712,0.08336c-0.38623,0.05279 -0.77247,0.10976 -1.1587,0.17089c-0.38623,0.06113 -0.77247,0.11948 -1.1587,0.17506c-0.38901,0.05279 -0.78636,0.07919 -1.19204,0.07919h-0.99615c-0.15005,-0.12226 -0.27231,-0.2473 -0.36678,-0.37512c-0.09447,-0.1306 -0.14171,-0.29037 -0.14171,-0.47932zM191.76114,115.50699h-1.10035c-0.01389,0 -0.11809,0.01667 -0.3126,0.05002c-0.19728,0.03334 -0.34316,0.06391 -0.43764,0.0917c-0.01389,0 -0.07502,0.02084 -0.18339,0.06252c-0.10837,0.0389 -0.1695,0.05835 -0.18339,0.05835c-0.04168,-0.01111 -0.08336,-0.03057 -0.12504,-0.05835c-0.02501,-0.01389 -0.05557,-0.02779 -0.0917,-0.04168c-0.03334,-0.01389 -0.05696,-0.02084 -0.07086,-0.02084h-0.40429c-0.17783,0 -0.33761,0.00417 -0.47932,0.0125c-0.14171,0.00556 -0.30148,0.04168 -0.47932,0.10837h-2.80922c-0.05279,0 -0.10976,-0.02918 -0.17089,-0.08753c-0.06113,-0.06113 -0.11531,-0.13338 -0.16255,-0.21674c-0.04724,-0.08058 -0.08892,-0.16533 -0.12504,-0.25425c-0.03334,-0.08892 -0.05002,-0.15977 -0.05002,-0.21257c0,-0.24452 0.08475,-0.45431 0.25425,-0.62937c0.1695,-0.17783 0.38345,-0.26675 0.64187,-0.26675h2.80922c0.23063,0 0.4821,-0.05418 0.75441,-0.16255c0.26953,-0.10837 0.43903,-0.29176 0.50849,-0.55017c0,-0.08058 0.00695,-0.20562 0.02084,-0.37512c0.01111,-0.1695 0.02362,-0.35011 0.03751,-0.54184c0.01389,-0.18895 0.02501,-0.36817 0.03334,-0.53767c0.00556,-0.1695 0.00834,-0.28759 0.00834,-0.35428v-0.38762v-0.36678c0,-0.08058 -0.00278,-0.27092 -0.00834,-0.57101c-0.00834,-0.29732 -0.01945,-0.61547 -0.03334,-0.95447c-0.01389,-0.339 -0.0264,-0.65854 -0.03751,-0.95864c-0.01389,-0.29732 -0.02084,-0.48627 -0.02084,-0.56685v-5.84352c0,-0.02779 -0.00695,-0.07225 -0.02084,-0.13338c-0.01389,-0.06113 -0.02779,-0.12782 -0.04168,-0.20006c-0.01389,-0.07502 -0.02779,-0.1431 -0.04168,-0.20423c-0.01389,-0.06113 -0.02779,-0.09864 -0.04168,-0.11254v-1.56716v-0.61269c-0.05279,-1.78946 -0.1167,-3.56224 -0.19173,-5.31835c-0.07502,-1.75889 -0.09864,-3.54696 -0.07086,-5.3642l-0.20423,-0.46681c-0.01389,-0.01389 -0.05418,-0.02779 -0.12087,-0.04168c-0.06947,-0.01389 -0.15144,-0.02779 -0.24591,-0.04168c-0.09447,-0.01389 -0.19312,-0.02779 -0.29593,-0.04168c-0.10003,-0.01389 -0.17783,-0.02084 -0.23341,-0.02084c-0.08058,0 -0.21535,-0.00973 -0.40429,-0.02918c-0.19173,-0.01945 -0.39874,-0.03612 -0.62103,-0.05002c-0.22507,-0.01389 -0.43208,-0.02779 -0.62103,-0.04168c-0.19173,-0.01389 -0.32788,-0.02084 -0.40846,-0.02084c-0.02779,0.04168 -0.08892,0.07641 -0.18339,0.1042c-0.09447,0.02501 -0.1556,0.03751 -0.18339,0.03751c-0.02779,0 -0.08475,-0.00556 -0.17089,-0.01667c-0.08892,-0.01389 -0.18756,-0.03195 -0.29593,-0.05418c-0.10837,-0.01945 -0.20701,-0.03612 -0.29593,-0.05002c-0.08892,-0.01389 -0.14588,-0.02084 -0.17089,-0.02084c-0.01389,0 -0.09586,0.02084 -0.24591,0.06252c-0.15005,0.04168 -0.25842,0.06808 -0.3251,0.07919c-0.50294,0.11115 -1.00171,0.17644 -1.49631,0.1959c-0.4946,0.01945 -0.97948,0.11809 -1.45463,0.29593c-0.02779,0.01389 -0.07502,0.05418 -0.14171,0.12087c-0.06947,0.06669 -0.11115,0.10003 -0.12504,0.10003c-0.02501,0.04168 -0.11254,0.07641 -0.26258,0.1042c-0.15005,0.02779 -0.23202,0.04168 -0.24591,0.04168c-0.26953,0.10837 -0.47237,0.27092 -0.60853,0.48765c-0.13615,0.21674 -0.27926,0.44042 -0.4293,0.67105c0,0.01389 -0.01667,0.04724 -0.05002,0.10003c-0.03334,0.05557 -0.07363,0.11392 -0.12087,0.17506c-0.04724,0.06113 -0.08753,0.11531 -0.12087,0.16255c-0.03612,0.04724 -0.05418,0.0778 -0.05418,0.0917c-0.10837,0.16116 -0.22646,0.37095 -0.35428,0.62937c-0.12782,0.25842 -0.2737,0.50988 -0.43764,0.75441c-0.16394,0.24452 -0.33761,0.45431 -0.521,0.62937c-0.18339,0.17783 -0.38345,0.26675 -0.60019,0.26675c-0.12226,0 -0.21674,-0.03751 -0.28342,-0.11254c-0.06669,-0.07502 -0.11809,-0.16672 -0.15422,-0.27509c-0.03334,-0.10837 -0.05279,-0.2209 -0.05835,-0.33761c-0.00834,-0.11392 -0.0125,-0.21118 -0.0125,-0.29176c0,-0.38068 0.0778,-0.72384 0.23341,-1.02949c0.15838,-0.30565 0.29871,-0.64882 0.42097,-1.02949c0.01111,-0.0389 0.03473,-0.14727 0.07086,-0.3251c0.03334,-0.17506 0.06947,-0.35845 0.10837,-0.55017c0.04168,-0.18895 0.08336,-0.37095 0.12504,-0.54601c0.0389,-0.17783 0.05835,-0.28759 0.05835,-0.32927c0,-0.01111 0.02501,-0.07086 0.07502,-0.17922c0.04724,-0.11115 0.07086,-0.17228 0.07086,-0.18339c0,-0.04168 0.00973,-0.14727 0.02918,-0.31677c0.01945,-0.1695 0.04307,-0.34594 0.07086,-0.52933c0.02779,-0.18339 0.05557,-0.35984 0.08336,-0.52933c0.02501,-0.1695 0.04446,-0.27509 0.05835,-0.31677c0.02779,-0.13615 0.05835,-0.30565 0.0917,-0.50849c0.03334,-0.20284 0.08475,-0.39874 0.15422,-0.58769c0.06669,-0.19173 0.16533,-0.3515 0.29593,-0.47932c0.12782,-0.12782 0.3001,-0.19173 0.51683,-0.19173h0.06252l0.10003,0.10003c0.02779,0.04168 0.07502,0.11254 0.14171,0.21257c0.06947,0.10281 0.14171,0.21118 0.21674,0.3251c0.07225,0.1167 0.13893,0.22229 0.20006,0.31677c0.06113,0.09447 0.0917,0.14866 0.0917,0.16255c0.05557,0.06669 0.16116,0.17506 0.31677,0.3251c0.1556,0.15005 0.26814,0.25842 0.33761,0.3251c0.12226,0.10837 0.26814,0.19034 0.43764,0.24591c0.1695,0.05279 0.34594,0.08614 0.52933,0.10003c0.18339,0.01389 0.36956,0.02084 0.55851,0.02084c0.18895,0 0.36539,0.00695 0.52933,0.02084c0.05279,0 0.15838,0.00695 0.31677,0.02084c0.1556,0.01389 0.32093,0.02779 0.49599,0.04168c0.17783,0.01389 0.34039,0.02779 0.48765,0.04168c0.15005,0.01111 0.25286,0.02362 0.30843,0.03751h12.47478c0.39179,0.05557 0.82943,0.09725 1.31292,0.12504c0.48071,0.02501 0.94474,0.03751 1.39211,0.03751c0.20284,0 0.40013,-0.00695 0.59185,-0.02084c0.18895,-0.01111 0.36539,-0.01667 0.52933,-0.01667c0.02501,0 0.0653,0.02362 0.12087,0.07086c0.05557,0.04724 0.09586,0.07086 0.12087,0.07086h0.1042h0.03751c0.02779,0 0.11392,-0.02362 0.25842,-0.07086c0.14171,-0.04724 0.22646,-0.07086 0.25425,-0.07086h0.24174c0.15005,0 0.29315,0.00556 0.4293,0.01667c0.13615,0.01389 0.27787,0.02084 0.42513,0.02084c0.13615,0 0.27231,-0.00973 0.40846,-0.02918c0.13615,-0.01945 0.27231,-0.06391 0.40846,-0.13338c0.05279,-0.02501 0.12365,-0.0653 0.21257,-0.12087c0.08892,-0.05557 0.14588,-0.09586 0.17089,-0.12087c0.04168,-0.08336 0.08892,-0.21674 0.14171,-0.40013c0.05557,-0.18061 0.12782,-0.35984 0.21674,-0.53767c0.08892,-0.17506 0.19312,-0.32788 0.3126,-0.45848c0.12226,-0.12782 0.27231,-0.17783 0.45014,-0.15005c0.01389,0.01111 0.04724,0.02779 0.10003,0.05002c0.05557,0.01945 0.11392,0.04307 0.17506,0.07086c0.06113,0.02779 0.11531,0.05141 0.16255,0.07086c0.04724,0.01945 0.07086,0.03612 0.07086,0.05002c0.04168,0.76135 0.12921,1.51159 0.26258,2.25071c0.13615,0.73912 0.26536,1.46852 0.38762,2.18819c0.02779,0.24452 0.07919,0.46404 0.15422,0.65854c0.07502,0.19728 0.15283,0.39457 0.23341,0.59185c0.08058,0.19728 0.15144,0.40013 0.21257,0.60853c0.06113,0.21118 0.0917,0.44597 0.0917,0.70439c0,0.02779 -0.00278,0.0778 -0.00834,0.15005c-0.00834,0.07502 -0.01945,0.15422 -0.03334,0.23758c-0.01111,0.08058 -0.02084,0.15838 -0.02918,0.23341c-0.00556,0.07502 -0.00834,0.13199 -0.00834,0.17089c-0.02779,0.25842 -0.19728,0.38762 -0.50849,0.38762c-0.06947,0 -0.13476,-0.0264 -0.1959,-0.07919c-0.06113,-0.05557 -0.12226,-0.12087 -0.18339,-0.1959c-0.06113,-0.07502 -0.11115,-0.15005 -0.15005,-0.22507c-0.04168,-0.07225 -0.06947,-0.12226 -0.08336,-0.15005c-0.01389,-0.01389 -0.03473,-0.05418 -0.06252,-0.12087c-0.02501,-0.06947 -0.05141,-0.14171 -0.07919,-0.21674c-0.02779,-0.07502 -0.05557,-0.1431 -0.08336,-0.20423c-0.02501,-0.06113 -0.03751,-0.09725 -0.03751,-0.10837c0,-0.02779 -0.01806,-0.07641 -0.05418,-0.14588c-0.03334,-0.06669 -0.06391,-0.10003 -0.0917,-0.10003c-0.14727,-0.24452 -0.29871,-0.49599 -0.45431,-0.75441c-0.15838,-0.25564 -0.32232,-0.51266 -0.49182,-0.77108c-0.1695,-0.25842 -0.34872,-0.50016 -0.53767,-0.72523c-0.18895,-0.22229 -0.39874,-0.42236 -0.62937,-0.60019c-0.3001,-0.18895 -0.61964,-0.33066 -0.95864,-0.42513c-0.339,-0.09447 -0.68494,-0.16255 -1.03783,-0.20423c-0.35289,-0.04168 -0.70578,-0.06252 -1.05867,-0.06252c-0.35289,0 -0.69189,-0.00695 -1.01699,-0.02084c-0.04168,0 -0.11254,-0.00973 -0.21257,-0.02918c-0.10281,-0.01945 -0.21118,-0.03612 -0.3251,-0.05002c-0.1167,-0.01389 -0.22229,-0.02779 -0.31677,-0.04168c-0.09447,-0.01389 -0.1556,-0.02084 -0.18339,-0.02084c-0.01389,0 -0.12226,-0.00278 -0.3251,-0.00834c-0.20284,-0.00834 -0.36539,-0.0125 -0.48765,-0.0125h-0.89612c-0.21674,0 -0.44459,0.00695 -0.68355,0.02084c-0.23619,0.01389 -0.45987,0.04168 -0.67105,0.08336c-0.2084,0.0389 -0.39179,0.10281 -0.55017,0.19173c-0.1556,0.08892 -0.2598,0.2084 -0.3126,0.35845v0.20423v0.54601c-0.02779,0.05557 -0.07502,0.14727 -0.14171,0.27509c-0.06947,0.1306 -0.1042,0.2084 -0.1042,0.23341l-0.04168,0.08336c-0.01389,0.01389 -0.02084,0.03473 -0.02084,0.06252v0.01667c0,0.02779 0,0.05557 0,0.08336c0,0.02779 0.00695,0.05557 0.02084,0.08336c0.01389,0.0389 0.02779,0.0653 0.04168,0.07919c0,0.05557 0.00417,0.14727 0.0125,0.27509c0.00556,0.12782 0.01528,0.27092 0.02918,0.4293c0.01389,0.1556 0.02779,0.29732 0.04168,0.42513c0.01389,0.12782 0.02084,0.21951 0.02084,0.27509v8.50686c0.06669,0.18895 0.10698,0.37234 0.12087,0.55017c0.01389,0.17506 0.02084,0.34455 0.02084,0.50849v0.40846c0,0.29732 -0.02779,0.56407 -0.08336,0.80025c-0.05279,0.23896 -0.07919,0.48765 -0.07919,0.74607c0,0.05279 0.00278,0.11392 0.00834,0.18339c0.00834,0.06669 0.0125,0.10698 0.0125,0.12087c0,0.02779 0.00556,0.08892 0.01667,0.18339c0.01389,0.09447 0.02779,0.20006 0.04168,0.31677c0.01389,0.11392 0.02779,0.21812 0.04168,0.3126c0.01389,0.09447 0.02779,0.1556 0.04168,0.18339v4.10963c0,0.02779 0.02362,0.12365 0.07086,0.28759c0.04724,0.16116 0.07086,0.25564 0.07086,0.28342c0,0.02779 -0.02362,0.09586 -0.07086,0.20423c-0.04724,0.10837 -0.07086,0.17644 -0.07086,0.20423v0.34594v0.91696c-0.02779,0.05279 -0.05835,0.16116 -0.0917,0.3251c-0.03334,0.16116 -0.05002,0.26953 -0.05002,0.3251v0.04168v0.10003c0,0.12226 0.00556,0.28898 0.01667,0.50016c0.01389,0.2084 0.02779,0.41124 0.04168,0.60853c0.01389,0.19728 0.02779,0.37373 0.04168,0.52933c0.01389,0.1556 0.02779,0.2473 0.04168,0.27509c0.01389,0.10837 0.02362,0.2209 0.02918,0.33761c0.00556,0.11392 0.0264,0.21812 0.06252,0.3126c0.03334,0.09447 0.09031,0.17644 0.17089,0.24591c0.08058,0.06669 0.1959,0.10003 0.34594,0.10003h2.80922c0.25842,0 0.47237,0.08475 0.64187,0.25425c0.1695,0.1695 0.25425,0.36956 0.25425,0.60019c0,0.2862 -0.0917,0.48627 -0.27509,0.60019c-0.18339,0.1167 -0.41124,0.17506 -0.68355,0.17506h-0.58769c-0.04168,0 -0.1431,-0.00973 -0.30426,-0.02918c-0.16394,-0.02223 -0.33761,-0.05002 -0.521,-0.08336c-0.18339,-0.03334 -0.35289,-0.05974 -0.50849,-0.07919c-0.1556,-0.02223 -0.25425,-0.03334 -0.29593,-0.03334h-1.27957c-0.01389,0 -0.06252,-0.00695 -0.14588,-0.02084c-0.08058,-0.01389 -0.17228,-0.03057 -0.27509,-0.05002c-0.10003,-0.01945 -0.19451,-0.03612 -0.28342,-0.05002c-0.08892,-0.01389 -0.14588,-0.02084 -0.17089,-0.02084zM209.52927,115.34444v-0.08336c0.06669,-0.14727 0.14032,-0.29871 0.2209,-0.45431c0.08336,-0.15838 0.22646,-0.26397 0.4293,-0.31677h0.85444c0.04168,0 0.12921,-0.02362 0.26258,-0.07086c0.13615,-0.04724 0.21812,-0.07086 0.24591,-0.07086h0.20423c0.16116,0 0.31399,0.02362 0.45848,0.07086c0.14171,0.04724 0.28759,0.07086 0.43764,0.07086c0.10837,0 0.1959,-0.03057 0.26258,-0.0917c0.06947,-0.06113 0.12365,-0.13615 0.16255,-0.22507c0.04168,-0.08892 0.06947,-0.18756 0.08336,-0.29593c0.01389,-0.10837 0.0264,-0.20284 0.03751,-0.28342v-1.13786c0,-0.05557 0.00695,-0.21535 0.02084,-0.47932c0.01389,-0.26397 0.03195,-0.54878 0.05418,-0.85444c0.01945,-0.30565 0.03612,-0.58769 0.05002,-0.8461c0.01389,-0.25842 0.02084,-0.42097 0.02084,-0.48765v-0.06252v-0.05835c-0.12226,-0.76135 -0.19451,-1.50464 -0.21674,-2.22987c-0.01945,-0.72523 -0.02918,-1.47547 -0.02918,-2.25071v-2.23821c0,-0.08058 0.00278,-0.23896 0.00834,-0.47515c0.00834,-0.23896 0.01528,-0.521 0.02084,-0.8461c0.00834,-0.3251 0.01528,-0.66827 0.02084,-1.02949c0.00834,-0.35845 0.01528,-0.70022 0.02084,-1.02532c0.00834,-0.3251 0.01528,-0.60714 0.02084,-0.8461c0.00556,-0.23619 0.00834,-0.39596 0.00834,-0.47932c0,-0.16116 -0.00278,-0.43486 -0.00834,-0.82109c-0.00556,-0.38901 -0.00834,-0.79609 -0.00834,-1.22122c0,-0.42791 -0.00417,-0.83499 -0.0125,-1.22122c-0.00556,-0.38623 -0.00834,-0.65437 -0.00834,-0.80442v-0.38762c0,-0.12226 -0.00417,-0.3251 -0.0125,-0.60853c-0.00556,-0.2862 -0.0125,-0.59185 -0.02084,-0.91696c-0.00556,-0.3251 -0.0125,-0.63353 -0.02084,-0.92529c-0.00556,-0.29176 -0.00834,-0.49877 -0.00834,-0.62103c0,-0.04168 0.00695,-0.15699 0.02084,-0.34594c0.01389,-0.19173 0.02362,-0.40291 0.02918,-0.63353c0.00834,-0.23063 0.01945,-0.4432 0.03334,-0.6377c0.01111,-0.19728 0.01667,-0.33066 0.01667,-0.40013v-0.28342c0,-0.40846 -0.1042,-0.69744 -0.3126,-0.86694c-0.21118,-0.1695 -0.51266,-0.25425 -0.90445,-0.25425c-0.43625,0 -0.86138,0.02501 -1.2754,0.07502c-0.41402,0.04724 -0.83777,0.07086 -1.27124,0.07086c-0.27231,0 -0.49321,-0.05835 -0.66271,-0.17506c-0.1695,-0.11392 -0.25425,-0.32093 -0.25425,-0.62103c0,-0.20284 0.10976,-0.36817 0.32927,-0.49599c0.21674,-0.1306 0.47098,-0.23341 0.76274,-0.30843c0.29176,-0.07502 0.58352,-0.12921 0.87528,-0.16255c0.29176,-0.03334 0.50433,-0.05002 0.6377,-0.05002c0.43625,0 0.89195,0.01667 1.3671,0.05002c0.47237,0.03334 0.92668,0.05696 1.36293,0.07086c0.02501,0.02779 0.10976,0.05835 0.25425,0.0917c0.14171,0.03612 0.22646,0.05418 0.25425,0.05418c0.01389,0.01111 0.03334,0.01667 0.05835,0.01667c0.01389,0.01389 0.04168,0.02084 0.08336,0.02084c0.02779,0 0.05557,-0.00695 0.08336,-0.02084c0.01111,0 0.03057,-0.00556 0.05835,-0.01667c0,0 0.03751,-0.01111 0.11254,-0.03334c0.07502,-0.01945 0.15699,-0.04585 0.24591,-0.07919c0.08614,-0.03612 0.16672,-0.06669 0.24174,-0.0917c0.07502,-0.02779 0.12643,-0.04863 0.15422,-0.06252c0.02779,0 0.0917,0 0.19173,0c0.10281,0 0.22229,0.00278 0.35845,0.00834c0.13338,0.00834 0.27926,0.0125 0.43764,0.0125c0.1556,0 0.30148,0 0.43764,0c0.14727,0 0.27231,0 0.37512,0c0.10281,0 0.17367,-0.00695 0.21257,-0.02084c0.01389,0 0.05835,-0.00278 0.13338,-0.00834c0.07502,-0.00834 0.15283,-0.01945 0.23341,-0.03334c0.08058,-0.01389 0.15838,-0.02779 0.23341,-0.04168c0.07502,-0.01111 0.12643,-0.01667 0.15422,-0.01667h1.27957h0.52933c0.01389,0 0.08892,-0.01806 0.22507,-0.05418c0.13615,-0.03334 0.21812,-0.05002 0.24591,-0.05002c0.02779,-0.02779 0.0778,-0.04168 0.15005,-0.04168c0.07502,0 0.14032,0 0.1959,0c0.35289,0 0.6377,0.04863 0.85444,0.14588c0.21674,0.09447 0.41263,0.29732 0.58769,0.60853v0.14171c0,0.19173 -0.09031,0.31816 -0.27092,0.37929c-0.18339,0.06113 -0.34316,0.1042 -0.47932,0.12921c-0.51683,0.08336 -1.02949,0.11809 -1.53799,0.1042c-0.50849,-0.01389 -1.01421,0.04029 -1.51715,0.16255c-0.10837,0.36678 -0.1959,0.73634 -0.26258,1.10868c-0.06947,0.37234 -0.1042,0.75579 -0.1042,1.15036c0,0.75857 0.01806,1.50048 0.05418,2.2257c0.03334,0.72801 0.05002,1.4713 0.05002,2.22987c0,0.92251 -0.01667,1.83114 -0.05002,2.72586c-0.03612,0.89751 -0.05418,1.80752 -0.05418,2.73003c0,1.05867 0.01806,2.12706 0.05418,3.20518c0.03334,1.07812 0.05002,2.16596 0.05002,3.26353c0,0.85583 -0.01667,1.69776 -0.05002,2.5258c-0.03612,0.82804 -0.05418,1.68248 -0.05418,2.56331v1.05867c-0.18895,0.53072 -0.28342,1.067 -0.28342,1.60884c0,0.20284 0.05418,0.35845 0.16255,0.46681c0.10837,0.10837 0.24035,0.19312 0.39596,0.25425c0.15838,0.06113 0.3251,0.10142 0.50016,0.12087c0.17506,0.02223 0.33761,0.04029 0.48765,0.05418c0.08058,0.01389 0.23063,0.03057 0.45014,0.05002c0.21674,0.01945 0.4432,0.03612 0.67938,0.05002c0.23896,0.01389 0.46681,0.02362 0.68355,0.02918c0.21674,0.00834 0.36539,0.0125 0.44597,0.0125c0.15005,0.06669 0.31677,0.14727 0.50016,0.24174c0.18339,0.09725 0.27509,0.24035 0.27509,0.4293v0.14171c0,0.05557 -0.00417,0.09586 -0.0125,0.12087c-0.00556,0.02779 -0.04307,0.05557 -0.11254,0.08336c-0.0389,0.01389 -0.11948,0.02779 -0.24174,0.04168c-0.12226,0.01389 -0.25147,0.02779 -0.38762,0.04168c-0.13615,0.01111 -0.26536,0.02362 -0.38762,0.03751c-0.12226,0.01389 -0.20979,0.02084 -0.26258,0.02084h-0.06252h-0.05835c-0.02779,0 -0.08892,-0.01667 -0.18339,-0.05002c-0.09725,-0.03334 -0.16533,-0.06391 -0.20423,-0.0917h-2.01731c-0.13338,0 -0.32927,0 -0.58769,0c-0.25842,0 -0.55434,-0.00278 -0.88778,-0.00834c-0.33066,-0.00834 -0.6766,-0.01945 -1.03783,-0.03334c-0.35845,-0.01389 -0.69744,-0.02362 -1.01699,-0.02918c-0.31955,-0.00834 -0.60714,-0.01806 -0.86277,-0.02918c-0.25842,-0.01389 -0.44875,-0.02779 -0.57101,-0.04168c-0.56962,0.15005 -1.1323,0.25564 -1.68803,0.31677c-0.55851,0.05835 -1.12258,0.08753 -1.6922,0.08753c-0.14727,0 -0.27509,-0.02918 -0.38345,-0.08753c-0.10837,-0.06113 -0.16255,-0.17367 -0.16255,-0.33761zM235.14988,115.09853c-0.339,-0.18895 -0.68772,-0.3515 -1.04616,-0.48765c-0.36123,-0.13615 -0.71828,-0.31955 -1.07117,-0.55017c-0.02779,0 -0.07502,-0.02362 -0.14171,-0.07086c-0.06669,-0.04724 -0.13476,-0.09725 -0.20423,-0.15005c-0.06669,-0.05557 -0.1306,-0.10976 -0.19173,-0.16255c-0.06113,-0.05557 -0.09864,-0.09725 -0.11254,-0.12504c-0.17783,-0.10837 -0.35428,-0.20284 -0.52933,-0.28342c-0.17506,-0.08058 -0.33761,-0.17506 -0.48765,-0.28342l-1.30458,-1.30458c-0.02501,-0.02779 -0.08892,-0.07502 -0.19173,-0.14171c-0.10281,-0.06947 -0.16116,-0.1042 -0.17506,-0.1042c0,-0.09447 -0.04724,-0.14171 -0.14171,-0.14171c-0.18895,-0.26953 -0.39596,-0.53767 -0.62103,-0.80442c-0.22229,-0.26397 -0.4293,-0.55156 -0.62103,-0.86277c-0.01111,0 -0.04724,-0.06808 -0.10837,-0.20423c-0.06113,-0.13615 -0.09864,-0.23758 -0.11254,-0.30426c-0.63909,-1.24762 -1.20316,-2.51607 -1.6922,-3.80537c-0.01111,-0.01389 -0.05835,-0.09586 -0.14171,-0.24591c-0.08058,-0.15005 -0.12087,-0.23758 -0.12087,-0.26258v-0.77525c-0.04168,-0.43347 -0.09309,-0.85027 -0.15422,-1.2504c-0.06113,-0.40013 -0.0917,-0.81693 -0.0917,-1.2504v-0.65437c0.01389,-0.13615 0.03195,-0.37651 0.05418,-0.72106c0.01945,-0.34733 0.04307,-0.71689 0.07086,-1.10868c0.02501,-0.39457 0.04863,-0.76413 0.07086,-1.10868c0.01945,-0.34733 0.03612,-0.59602 0.05002,-0.74607c0.02779,-0.3779 0.11254,-0.7294 0.25425,-1.0545c0.14171,-0.32788 0.2737,-0.66132 0.39596,-1.00032c0,-0.01389 0.00695,-0.04724 0.02084,-0.10003c0.01389,-0.05557 0.02779,-0.11948 0.04168,-0.19173c0.01389,-0.07502 0.02779,-0.1431 0.04168,-0.20423c0.01111,-0.06113 0.01667,-0.10559 0.01667,-0.13338c0.01389,-0.02779 0.0389,-0.0917 0.07502,-0.19173c0.03334,-0.10281 0.07363,-0.2084 0.12087,-0.31677c0.04724,-0.10837 0.08753,-0.21396 0.12087,-0.31677c0.03334,-0.10003 0.05696,-0.16394 0.07086,-0.19173c0,-0.01389 0.00695,-0.05141 0.02084,-0.11254c0.01389,-0.06113 0.02779,-0.12921 0.04168,-0.20423c0.01389,-0.07502 0.02779,-0.1431 0.04168,-0.20423c0.01389,-0.06113 0.0264,-0.1042 0.03751,-0.12921c0,-0.01389 0.03057,-0.04863 0.0917,-0.1042c0.06113,-0.05279 0.12921,-0.1167 0.20423,-0.19173c0.07502,-0.07502 0.14727,-0.1431 0.21674,-0.20423c0.06669,-0.06113 0.11392,-0.09864 0.14171,-0.11254c0.31121,-0.38068 0.61269,-0.76691 0.90445,-1.1587c0.29176,-0.39457 0.61408,-0.77525 0.96697,-1.14203c0.65021,-0.70578 1.32125,-1.35043 2.01314,-1.93395c0.69189,-0.58352 1.49909,-1.03088 2.4216,-1.34209c0.09725,-0.0389 0.20979,-0.09309 0.33761,-0.16255c0.12782,-0.06669 0.2598,-0.13476 0.39596,-0.20423c0.13615,-0.06669 0.27509,-0.12782 0.4168,-0.18339c0.14449,-0.05279 0.27648,-0.08614 0.39596,-0.10003h0.51266c0.02501,0 0.09864,-0.01667 0.2209,-0.05002c0.12226,-0.03334 0.21812,-0.06391 0.28759,-0.0917c0.05279,-0.01389 0.15005,-0.04446 0.29176,-0.0917c0.14449,-0.04724 0.29732,-0.09864 0.45848,-0.15422c0.16394,-0.05279 0.32093,-0.10281 0.47098,-0.15005c0.14727,-0.05002 0.25564,-0.08753 0.3251,-0.11254h2.50079c0.40846,0 0.7419,0.00695 1.00032,0.02084c0.25564,0.01111 0.46543,0.02362 0.62937,0.03751c0.16116,0.01389 0.28342,0.02779 0.36678,0.04168c0.08058,0.01389 0.14171,0.02779 0.18339,0.04168c0.06669,0.01389 0.24313,0.05835 0.52933,0.13338c0.28342,0.07225 0.58769,0.15283 0.91279,0.24174c0.32788,0.08892 0.63353,0.17089 0.91696,0.24591c0.2862,0.07502 0.46959,0.11948 0.55017,0.13338c0.05557,0 0.17089,0.01667 0.34594,0.05002c0.17506,0.03334 0.27648,0.06391 0.30426,0.0917c0.01389,0 0.05835,0.0264 0.13338,0.07919c0.07502,0.05557 0.15283,0.11392 0.23341,0.17506c0.08058,0.06113 0.15838,0.11531 0.23341,0.16255c0.07502,0.04724 0.12643,0.0778 0.15422,0.0917c0.02779,0 0.11254,0.01945 0.25425,0.05835c0.14171,0.04168 0.22646,0.06947 0.25425,0.08336c0.10837,0.08058 0.20979,0.17922 0.30426,0.29593c0.09447,0.11392 0.19312,0.22507 0.29593,0.33344c0.10281,0.10837 0.21118,0.20006 0.3251,0.27509c0.1167,0.07502 0.25564,0.11254 0.4168,0.11254c0.16394,0 0.30287,-0.11531 0.4168,-0.34594c0.1167,-0.23063 0.22924,-0.4821 0.33761,-0.75441c0.10837,-0.26953 0.22368,-0.51961 0.34594,-0.75024c0.12226,-0.23063 0.27787,-0.34594 0.46681,-0.34594c0.13615,0 0.24869,0.07086 0.33761,0.21257c0.08892,0.14171 0.15699,0.30843 0.20423,0.50016c0.04724,0.18895 0.0778,0.3779 0.0917,0.56685c0.01111,0.19173 0.01667,0.32788 0.01667,0.40846c0,0.12226 -0.00556,0.2209 -0.01667,0.29593c-0.01389,0.07502 -0.05557,0.16672 -0.12504,0.27509v5.88103c0,0.27231 -0.05002,0.51961 -0.15005,0.7419c-0.10281,0.22507 -0.30287,0.35706 -0.60019,0.39596c-0.06947,0.01389 -0.13754,-0.00556 -0.20423,-0.05835c-0.06947,-0.05557 -0.1306,-0.12087 -0.18339,-0.1959c-0.05557,-0.07502 -0.10698,-0.14866 -0.15422,-0.2209c-0.04724,-0.07502 -0.08475,-0.12643 -0.11254,-0.15422c0,-0.02779 -0.05696,-0.0917 -0.17089,-0.19173c-0.1167,-0.10281 -0.182,-0.17506 -0.1959,-0.21674c-0.0389,-0.05279 -0.10281,-0.14032 -0.19173,-0.26258c-0.08892,-0.12226 -0.17644,-0.24869 -0.26258,-0.37929c-0.08892,-0.12782 -0.17367,-0.25286 -0.25425,-0.37512c-0.08336,-0.12226 -0.13199,-0.20284 -0.14588,-0.24174c-0.17506,-0.25842 -0.3001,-0.5474 -0.37512,-0.86694c-0.07502,-0.31955 -0.21396,-0.61408 -0.4168,-0.88361c-0.23063,-0.31399 -0.45848,-0.5724 -0.68355,-0.77525c-0.22229,-0.20284 -0.46265,-0.41958 -0.72106,-0.65021c-0.29732,-0.25842 -0.55434,-0.49321 -0.77108,-0.70439c-0.21951,-0.2084 -0.43764,-0.39457 -0.65437,-0.55851c-0.21674,-0.16394 -0.45709,-0.30982 -0.72106,-0.43764c-0.26397,-0.12782 -0.59324,-0.24591 -0.98781,-0.35428c-0.51405,-0.12226 -1.04616,-0.23758 -1.59634,-0.34594c-0.55017,-0.10837 -1.08368,-0.16255 -1.60051,-0.16255c-0.26953,0 -0.52933,0.04724 -0.77941,0.14171c-0.25286,0.09447 -0.50155,0.21257 -0.74607,0.35428c-0.24452,0.14171 -0.48488,0.29871 -0.72106,0.47098c-0.23896,0.1695 -0.46681,0.32093 -0.68355,0.45431c-0.18895,0.12226 -0.38484,0.20423 -0.58769,0.24591c-0.20284,0.04168 -0.39318,0.13615 -0.57101,0.28342c-0.36678,0.31399 -0.703,0.65993 -1.00865,1.03783c-0.30565,0.38068 -0.65437,0.71412 -1.04616,1.00032c-0.02779,0.02501 -0.06808,0.06808 -0.12087,0.12921c-0.05557,0.06113 -0.09725,0.09864 -0.12504,0.11254c0,0.02779 -0.04029,0.12921 -0.12087,0.30426c-0.08058,0.17783 -0.12782,0.29315 -0.14171,0.34594c-0.05557,0.09725 -0.13338,0.20979 -0.23341,0.33761c-0.10281,0.12782 -0.20562,0.25703 -0.30843,0.38762c-0.10003,0.12782 -0.19451,0.2598 -0.28342,0.39596c-0.08892,0.13615 -0.14588,0.26536 -0.17089,0.38762c-0.08336,0.35289 -0.13893,0.69466 -0.16672,1.02532c-0.02501,0.33344 -0.0917,0.6766 -0.20006,1.02949c-0.10837,0.28342 -0.21118,0.56546 -0.30843,0.8461c-0.09447,0.27787 -0.16811,0.5863 -0.2209,0.92529c-0.02779,0.17506 -0.04446,0.39874 -0.05002,0.67105c-0.00834,0.27231 -0.06669,0.50294 -0.17506,0.69189c-0.02779,0.09447 -0.04863,0.25703 -0.06252,0.48765c-0.01389,0.23063 -0.0264,0.47515 -0.03751,0.73357c-0.01389,0.25842 -0.02501,0.50294 -0.03334,0.73357c-0.00556,0.23063 -0.00834,0.39318 -0.00834,0.48765c0,0.40568 0.03751,0.83221 0.11254,1.27957c0.07502,0.45014 0.1695,0.90584 0.28342,1.3671c0.1167,0.46126 0.24174,0.9114 0.37512,1.35043c0.13615,0.44181 0.26536,0.85305 0.38762,1.23372c0,0.01389 0.00973,0.06808 0.02918,0.16255c0.02223,0.09447 0.04724,0.19867 0.07502,0.3126c0.02501,0.1167 0.05141,0.22646 0.07919,0.32927c0.02779,0.10003 0.04863,0.17089 0.06252,0.21257c0,0.04168 0.03751,0.1167 0.11254,0.22507c0.07225,0.10837 0.15283,0.22646 0.24174,0.35428c0.08892,0.12782 0.17367,0.24313 0.25425,0.34594c0.08336,0.10281 0.13754,0.16116 0.16255,0.17506c0.01389,0.02501 0.04446,0.08197 0.0917,0.17089c0.04724,0.08892 0.09447,0.18339 0.14171,0.28342c0.05002,0.10281 0.09864,0.19867 0.14588,0.28759c0.04724,0.08892 0.07086,0.14588 0.07086,0.17089c0.18895,0.23063 0.37234,0.43486 0.55017,0.61269c0.17506,0.17506 0.35428,0.33761 0.53767,0.48765c0.18339,0.15005 0.37373,0.29871 0.57101,0.44597c0.19451,0.15005 0.41402,0.31955 0.65854,0.50849l0.38762,0.38762c0.23063,0.10837 0.51961,0.25425 0.86694,0.43764c0.34455,0.18339 0.61269,0.42513 0.80442,0.72523c0.62242,0.05279 1.22956,0.15005 1.82141,0.29176c0.58908,0.14449 1.20177,0.21674 1.83808,0.21674h0.40846c0.18895,0 0.37234,-0.00695 0.55017,-0.02084c0.17506,-0.01389 0.37234,-0.06808 0.59185,-0.16255c0.01111,0 0.04029,-0.01111 0.08753,-0.03334c0.05002,-0.01945 0.10142,-0.04585 0.15422,-0.07919c0.05557,-0.03334 0.10281,-0.06113 0.14171,-0.08336c0.04168,-0.01945 0.06947,-0.02918 0.08336,-0.02918c0.0389,-0.01389 0.13754,-0.04168 0.29593,-0.08336c0.1556,-0.0389 0.31816,-0.07919 0.48765,-0.12087c0.1695,-0.04168 0.32927,-0.07919 0.47932,-0.11254c0.14727,-0.03334 0.24174,-0.05696 0.28342,-0.07086c0.01389,0 0.07086,-0.03334 0.17089,-0.10003c0.10281,-0.06947 0.16811,-0.1167 0.1959,-0.14171c0.01389,-0.01389 0.04724,-0.04446 0.10003,-0.0917c0.05557,-0.04724 0.11392,-0.09586 0.17506,-0.14588c0.06113,-0.04724 0.11531,-0.08753 0.16255,-0.12087c0.04724,-0.03334 0.07086,-0.05002 0.07086,-0.05002c0.04168,-0.01389 0.11254,-0.03473 0.21257,-0.06252c0.10281,-0.02501 0.17367,-0.03751 0.21257,-0.03751c0.01389,-0.02779 0.02779,-0.04863 0.04168,-0.06252l0.06252,-0.06252c0.05279,-0.06669 0.1306,-0.16811 0.23341,-0.30426c0.10281,-0.13615 0.2084,-0.27231 0.31677,-0.40846c0.10837,-0.13615 0.20562,-0.26119 0.29176,-0.37512c0.08892,-0.1167 0.14727,-0.18756 0.17506,-0.21257c0.01389,-0.01389 0.05418,-0.0653 0.12087,-0.15422c0.06947,-0.08892 0.13754,-0.18339 0.20423,-0.28342c0.06947,-0.10281 0.13754,-0.19867 0.20423,-0.28759c0.06669,-0.08614 0.10698,-0.1431 0.12087,-0.17089c0.01389,-0.01389 0.04446,-0.04168 0.0917,-0.08336c0.04724,-0.0389 0.09864,-0.08614 0.15422,-0.14171c0.05279,-0.05279 0.10281,-0.10698 0.15005,-0.16255c0.05002,-0.05279 0.07502,-0.09309 0.07502,-0.12087c0.02501,0 0.05418,-0.05835 0.08753,-0.17506c0.03612,-0.11392 0.05418,-0.18478 0.05418,-0.21257c0.01389,-0.02779 0.04724,-0.09586 0.10003,-0.20423c0.05557,-0.10837 0.10976,-0.22646 0.16255,-0.35428c0.05557,-0.1306 0.10698,-0.25008 0.15422,-0.35845c0.04724,-0.10837 0.0778,-0.17644 0.0917,-0.20423c0.01389,-0.02501 0.03334,-0.08892 0.05835,-0.19173c0.02779,-0.10281 0.05557,-0.2084 0.08336,-0.31677c0.02779,-0.10837 0.05141,-0.21257 0.07086,-0.3126c0.01945,-0.10281 0.02918,-0.16811 0.02918,-0.1959c0.02779,-0.05279 0.06252,-0.12365 0.1042,-0.21257c0.0389,-0.08892 0.08336,-0.17367 0.13338,-0.25425c0.04724,-0.08058 0.10698,-0.14866 0.17922,-0.20423c0.07502,-0.05279 0.15422,-0.07919 0.23758,-0.07919c0.06669,0 0.13754,0.00278 0.21257,0.00834c0.07502,0.00834 0.13199,0.04585 0.17089,0.11254c0.02779,0.04168 0.06252,0.10281 0.1042,0.18339c0.0389,0.08058 0.07919,0.16116 0.12087,0.24174c0.04168,0.08336 0.07641,0.1556 0.1042,0.21674c0.02501,0.06113 0.03751,0.09864 0.03751,0.11254c0,0.02501 -0.00973,0.0917 -0.02918,0.20006c-0.01945,0.11115 -0.04307,0.23341 -0.07086,0.36678c-0.02779,0.13615 -0.05557,0.26258 -0.08336,0.37929c-0.02501,0.11392 -0.04446,0.18478 -0.05835,0.21257c-0.04168,0.23063 -0.08892,0.49877 -0.14171,0.80442c-0.05557,0.30565 -0.10698,0.62103 -0.15422,0.94613c-0.04724,0.3251 -0.0917,0.64743 -0.13338,0.96697c-0.04168,0.31955 -0.06808,0.60019 -0.07919,0.84193v0.89612v0.36678c-0.02779,0.09447 -0.06252,0.17644 -0.1042,0.24591c-0.02779,0.06669 -0.05418,0.13476 -0.07919,0.20423c-0.02779,0.06669 -0.05557,0.12087 -0.08336,0.16255c-0.04168,0.12226 -0.0653,0.20006 -0.07086,0.23341c-0.00556,0.03334 -0.06252,0.05002 -0.17089,0.05002c-0.12226,0 -0.2209,-0.07502 -0.29593,-0.22507c-0.07502,-0.14727 -0.15005,-0.3126 -0.22507,-0.49599c-0.07502,-0.18339 -0.16255,-0.35011 -0.26258,-0.50016c-0.10281,-0.15005 -0.24313,-0.22507 -0.42097,-0.22507c-0.13338,0 -0.19728,0.00695 -0.19173,0.02084c0.00834,0.01389 -0.02918,0.06808 -0.11254,0.16255c-0.55573,0.46126 -1.12536,0.8725 -1.70887,1.23372c-0.58352,0.35845 -1.20733,0.65298 -1.87143,0.88361c-0.3001,0.13615 -0.58491,0.2862 -0.85444,0.45014c-0.27231,0.16116 -0.57101,0.27648 -0.89612,0.34594c-0.23063,0.02501 -0.4682,0.04863 -0.71273,0.07086c-0.24452,0.01945 -0.44181,0.1167 -0.59185,0.29176l-2.93009,0.26675c-0.62242,-0.23063 -1.27263,-0.39735 -1.95062,-0.50016c-0.68077,-0.10003 -1.34626,-0.19173 -1.99647,-0.27509zM261.66661,115.30276c-0.35289,-0.08058 -0.7419,-0.17506 -1.16704,-0.28342c-0.42791,-0.10837 -0.81137,-0.21674 -1.15036,-0.3251c-0.02779,0 -0.09309,-0.04168 -0.1959,-0.12504c-0.10003,-0.08058 -0.15005,-0.13476 -0.15005,-0.16255c-0.32788,-0.16116 -0.63076,-0.28898 -0.90862,-0.38345c-0.27787,-0.09725 -0.521,-0.20979 -0.7294,-0.33761c-0.21118,-0.12782 -0.37512,-0.30704 -0.49182,-0.53767c-0.11392,-0.23063 -0.17089,-0.57101 -0.17089,-1.02116v-0.10003c0,-0.02779 0.04029,-0.11531 0.12087,-0.26258c0.08336,-0.15005 0.12504,-0.23896 0.12504,-0.26675c0.06669,-0.28342 0.09586,-0.59185 0.08753,-0.92529c-0.00556,-0.33344 0.0125,-0.66271 0.05418,-0.98781c0,-0.01389 0.02362,-0.07086 0.07086,-0.17089c0.04724,-0.10281 0.07086,-0.16811 0.07086,-0.1959c0,-0.01389 0.00278,-0.05418 0.00834,-0.12087c0.00834,-0.06947 0.01945,-0.14449 0.03334,-0.22507c0.01389,-0.08058 0.0264,-0.15838 0.03751,-0.23341c0.01389,-0.07502 0.02779,-0.13199 0.04168,-0.17089c0,-0.02779 0.00417,-0.09309 0.0125,-0.1959c0.00556,-0.10003 0.01528,-0.20562 0.02918,-0.31677c0.01389,-0.10837 0.02779,-0.21257 0.04168,-0.3126c0.01389,-0.10281 0.02084,-0.16811 0.02084,-0.1959c0,-0.01111 0.00556,-0.05835 0.01667,-0.14171c0.01389,-0.08058 0.03195,-0.16116 0.05418,-0.24174c0.01945,-0.08336 0.03612,-0.16255 0.05002,-0.23758c0.01389,-0.07225 0.02084,-0.11531 0.02084,-0.12921c0,-0.02779 0.00695,-0.08892 0.02084,-0.18339c0.01389,-0.09447 0.0264,-0.20006 0.03751,-0.31677c0.01389,-0.11392 0.02779,-0.22229 0.04168,-0.3251c0.01389,-0.10281 0.02779,-0.17367 0.04168,-0.21257c0,-0.04168 0.00973,-0.10698 0.02918,-0.1959c0.02223,-0.08614 0.05002,-0.17089 0.08336,-0.25425c0.03334,-0.08058 0.07363,-0.15422 0.12087,-0.2209c0.04724,-0.06947 0.10559,-0.1042 0.17506,-0.1042c0.10837,0 0.20284,0.10142 0.28342,0.30426c0.08058,0.20562 0.15144,0.44736 0.21257,0.72523c0.06113,0.27787 0.11254,0.55295 0.15422,0.82526c0.04168,0.26953 0.07502,0.46543 0.10003,0.58769c0.01389,0.08058 0.03057,0.23063 0.05002,0.45014c0.02223,0.21674 0.04307,0.44736 0.06252,0.69189c0.01945,0.24174 0.04029,0.4682 0.06252,0.67938c0.01945,0.21118 0.02918,0.35706 0.02918,0.43764c0.02779,0.02779 0.05835,0.06808 0.0917,0.12087c0.03334,0.05557 0.05002,0.09725 0.05002,0.12504c0.10837,0.23063 0.19034,0.44736 0.24591,0.65021c0.05279,0.20284 0.14032,0.41958 0.26258,0.65021c0.01389,0.04168 0.04446,0.10698 0.0917,0.1959c0.04724,0.08614 0.09864,0.17367 0.15422,0.26258c0.05279,0.08892 0.1042,0.17367 0.15422,0.25425c0.04724,0.08058 0.08336,0.14171 0.10837,0.18339c0.02779,0.01389 0.07641,0.05418 0.14588,0.12087c0.06669,0.06947 0.10003,0.11809 0.10003,0.14588c0.01389,0.01111 0.03751,0.05418 0.07086,0.12921c0.03334,0.07502 0.07086,0.15699 0.11254,0.24591c0.04168,0.08892 0.08197,0.1695 0.12087,0.24174c0.04168,0.07502 0.06252,0.11948 0.06252,0.13338c0.12226,0.17783 0.28481,0.33344 0.48765,0.46681c0.20284,0.13615 0.41958,0.25564 0.65021,0.35845c0.23063,0.10281 0.46126,0.19728 0.69189,0.28342c0.23063,0.08892 0.44181,0.17367 0.63353,0.25425c0.02501,0.02779 0.08197,0.08197 0.17089,0.16255c0.08892,0.08336 0.14727,0.12504 0.17506,0.12504h0.20423h0.54601c0.05557,0 0.18895,0.01667 0.40013,0.05002c0.2084,0.03334 0.34039,0.05002 0.39596,0.05002h0.57101c0.50016,0 0.94335,-0.06113 1.32959,-0.18339c0.38901,-0.12226 0.80025,-0.27092 1.23372,-0.44597c0.09447,-0.02779 0.22646,-0.05835 0.39596,-0.0917c0.1695,-0.03334 0.30148,-0.0917 0.39596,-0.17506c0.02779,-0.01389 0.08892,-0.06391 0.18339,-0.15005c0.09447,-0.08892 0.1959,-0.18756 0.30426,-0.29593c0.10837,-0.10837 0.21396,-0.21674 0.31677,-0.3251c0.10281,-0.10837 0.17367,-0.18339 0.21257,-0.22507c0.05557,-0.05557 0.1306,-0.13754 0.22507,-0.24591c0.09447,-0.10837 0.18895,-0.21674 0.28342,-0.3251c0.09725,-0.10837 0.182,-0.20701 0.25425,-0.29593c0.07502,-0.08614 0.11948,-0.13615 0.13338,-0.15005c0.01389,-0.01389 0.03057,-0.05835 0.05002,-0.13338c0.02223,-0.07502 0.04585,-0.1556 0.07086,-0.24174c0.02779,-0.08892 0.05279,-0.17089 0.07502,-0.24591c0.01945,-0.07502 0.03612,-0.11948 0.05002,-0.13338c0.06669,-0.17506 0.1306,-0.31399 0.19173,-0.4168c0.06113,-0.10281 0.11531,-0.20423 0.16255,-0.30426c0.04724,-0.10281 0.08475,-0.21535 0.11254,-0.33761c0.02779,-0.12226 0.04168,-0.28481 0.04168,-0.48765c0,-0.43347 -0.00973,-0.85444 -0.02918,-1.2629c-0.02223,-0.40568 -0.04724,-0.82526 -0.07502,-1.25873c-0.05279,-0.27231 -0.16116,-0.50294 -0.3251,-0.69189c-0.16116,-0.19173 -0.31677,-0.38207 -0.46681,-0.57101c-0.01389,-0.02779 -0.0653,-0.09586 -0.15422,-0.20423c-0.08614,-0.10837 -0.18061,-0.23063 -0.28342,-0.36678c-0.10281,-0.13615 -0.19728,-0.26119 -0.28342,-0.37512c-0.08892,-0.1167 -0.14032,-0.18756 -0.15422,-0.21257c-0.09447,-0.12226 -0.17922,-0.20701 -0.25425,-0.25425c-0.07502,-0.05002 -0.15005,-0.08753 -0.22507,-0.11254c-0.07502,-0.02779 -0.1556,-0.05557 -0.24174,-0.08336c-0.08892,-0.02779 -0.19451,-0.08197 -0.31677,-0.16255c-0.13615,-0.10837 -0.26814,-0.24452 -0.39596,-0.40846c-0.1306,-0.16116 -0.28342,-0.27648 -0.45848,-0.34594c-0.02779,-0.01111 -0.07919,-0.02362 -0.15422,-0.03751c-0.07502,-0.01389 -0.1556,-0.02779 -0.24174,-0.04168c-0.08892,-0.01389 -0.17089,-0.02779 -0.24591,-0.04168c-0.07502,-0.01389 -0.11948,-0.02084 -0.13338,-0.02084c-0.06669,-0.02779 -0.17783,-0.06808 -0.33344,-0.12087c-0.1556,-0.05557 -0.25425,-0.09586 -0.29593,-0.12087c-0.02779,-0.02779 -0.10559,-0.08197 -0.23341,-0.16255c-0.1306,-0.08336 -0.26675,-0.16811 -0.40846,-0.25425c-0.14171,-0.08892 -0.27648,-0.17089 -0.40429,-0.24591c-0.1306,-0.07502 -0.21535,-0.11948 -0.25425,-0.13338c-0.35289,-0.14727 -0.75024,-0.25564 -1.19204,-0.3251c-0.44181,-0.06669 -0.83915,-0.16811 -1.19204,-0.30426c-0.35289,-0.10837 -0.68772,-0.25842 -1.00448,-0.45014c-0.31955,-0.18895 -0.62242,-0.38484 -0.90862,-0.58769c-0.3251,-0.19173 -0.64048,-0.39596 -0.94613,-0.61269c-0.30565,-0.21674 -0.62798,-0.41958 -0.96697,-0.60853c0,-0.02779 -0.01667,-0.05835 -0.05002,-0.0917c-0.03334,-0.03334 -0.06391,-0.05002 -0.0917,-0.05002c-0.6252,-0.9503 -1.14064,-1.92422 -1.54632,-2.92176c-0.40568,-0.99754 -0.60853,-2.08677 -0.60853,-3.2677v-0.38345c0,-0.13615 0.00556,-0.26953 0.01667,-0.40013c0.01389,-0.12782 0.05557,-0.26675 0.12504,-0.4168c0.01389,-0.01389 0.03751,-0.05835 0.07086,-0.13338c0.03334,-0.07225 0.07086,-0.15283 0.11254,-0.24174c0.0389,-0.08892 0.07919,-0.17089 0.12087,-0.24591c0.04168,-0.07502 0.06252,-0.11809 0.06252,-0.12921c0,-0.01389 0.00556,-0.05835 0.01667,-0.13338c0.01389,-0.07502 0.02779,-0.15699 0.04168,-0.24591c0.01389,-0.08892 0.02779,-0.1695 0.04168,-0.24174c0.01389,-0.07502 0.02779,-0.11948 0.04168,-0.13338c0.02779,-0.06947 0.06113,-0.15838 0.10003,-0.26675c0.04168,-0.10837 0.08892,-0.22368 0.14171,-0.34594c0.05557,-0.12226 0.1167,-0.24035 0.18339,-0.35428c0.06947,-0.1167 0.14449,-0.21535 0.22507,-0.29593c0.01389,-0.02779 0.0653,-0.08475 0.15422,-0.17089c0.08614,-0.08892 0.18061,-0.18478 0.28342,-0.28759c0.10281,-0.10003 0.19451,-0.19173 0.27509,-0.27509c0.08058,-0.08058 0.12782,-0.13476 0.14171,-0.16255c0.02779,0 0.05835,-0.03057 0.0917,-0.0917c0.03334,-0.06113 0.05002,-0.11809 0.05002,-0.17089c0.16394,-0.38068 0.38207,-0.6766 0.65437,-0.88778c0.26953,-0.2084 0.59463,-0.42791 0.97531,-0.65854c0.02779,0.02779 0.06113,0.04168 0.10003,0.04168c0.02779,0 0.04168,-0.01389 0.04168,-0.04168c0.01389,0 0.04446,-0.01667 0.0917,-0.05002c0.04724,-0.03612 0.10142,-0.0778 0.16255,-0.12504c0.06113,-0.04724 0.11948,-0.08753 0.17506,-0.12087c0.05279,-0.03334 0.07919,-0.05002 0.07919,-0.05002h0.1042h0.28342c0.02779,0 0.11531,-0.02084 0.26258,-0.06252c0.15005,-0.04168 0.30982,-0.08614 0.47932,-0.13338c0.1695,-0.04724 0.33205,-0.08753 0.48765,-0.12087c0.1556,-0.03334 0.25425,-0.05002 0.29593,-0.05002h0.28342h0.71273c0.04168,-0.01389 0.13754,-0.02779 0.28759,-0.04168c0.14727,-0.01389 0.30565,-0.02779 0.47515,-0.04168c0.17228,-0.01389 0.33622,-0.0264 0.49182,-0.03751c0.1556,-0.01389 0.25286,-0.02084 0.29176,-0.02084h0.1042h0.02084c0.02779,0 0.06808,0.02362 0.12087,0.07086c0.05557,0.04724 0.09586,0.07086 0.12087,0.07086h0.55017h0.24591c0.17506,0.01389 0.38901,0.0778 0.64187,0.19173c0.25008,0.1167 0.50433,0.24591 0.76274,0.38762c0.25564,0.14171 0.50572,0.28759 0.75024,0.43764c0.24452,0.15005 0.44875,0.26536 0.61269,0.34594c0.02779,0.02779 0.0917,0.05835 0.19173,0.0917c0.10281,0.03334 0.16116,0.05002 0.17506,0.05002c0.12226,0.06947 0.23758,0.16116 0.34594,0.27509c0.10837,0.1167 0.21951,0.22924 0.33344,0.33761c0.1167,0.10837 0.23896,0.20284 0.36678,0.28342c0.1306,0.08058 0.27648,0.12087 0.43764,0.12087c0.19173,0 0.33066,-0.06113 0.4168,-0.18339c0.08892,-0.12226 0.15699,-0.26397 0.20423,-0.42513c0.04724,-0.16394 0.08475,-0.33066 0.11254,-0.50016c0.02779,-0.1695 0.06808,-0.30843 0.12087,-0.4168c0,-0.04168 0.02779,-0.09586 0.08336,-0.16255c0.05279,-0.06669 0.11392,-0.14171 0.18339,-0.22507c0.06669,-0.08058 0.1306,-0.15422 0.19173,-0.2209c0.06113,-0.06947 0.09864,-0.11809 0.11254,-0.14588c0.02779,-0.02501 0.06113,-0.03751 0.10003,-0.03751h0.04168c0.19173,0 0.32371,0.09447 0.39596,0.28342c0.07502,0.18895 0.11254,0.35845 0.11254,0.50849v0.22507c0,0.0389 -0.00973,0.10976 -0.02918,0.21257c-0.01945,0.10281 -0.04307,0.21118 -0.07086,0.3251c-0.02779,0.1167 -0.05557,0.22507 -0.08336,0.3251c-0.02501,0.10281 -0.04446,0.16116 -0.05835,0.17506c-0.20562,1.53382 -0.30843,3.09404 -0.30843,4.68065c0,0.24452 0.00695,0.48488 0.02084,0.72106c0.01389,0.23896 0.02084,0.48071 0.02084,0.72523c-0.02779,0.08058 -0.05835,0.17783 -0.0917,0.29176c-0.03334,0.1167 -0.08058,0.22924 -0.14171,0.33761c-0.06113,0.10837 -0.13199,0.20006 -0.21257,0.27509c-0.08336,0.07502 -0.17228,0.11254 -0.26675,0.11254c-0.16116,0 -0.2862,-0.03473 -0.37512,-0.1042c-0.08892,-0.06669 -0.15699,-0.15144 -0.20423,-0.25425c-0.04724,-0.10003 -0.08475,-0.2084 -0.11254,-0.3251c-0.02501,-0.11392 -0.05835,-0.22507 -0.10003,-0.33344c-0.15005,-0.43625 -0.3001,-0.91835 -0.45014,-1.44629c-0.14727,-0.53072 -0.29593,-0.99893 -0.44597,-1.40461c-0.06669,-0.16394 -0.17922,-0.35428 -0.33761,-0.57101c-0.1556,-0.21674 -0.33205,-0.43625 -0.52933,-0.65854c-0.19451,-0.22507 -0.38762,-0.43625 -0.57935,-0.63353c-0.18895,-0.19728 -0.34455,-0.36956 -0.46681,-0.51683c-0.13615,-0.17783 -0.26536,-0.38484 -0.38762,-0.62103c-0.12226,-0.23896 -0.27787,-0.41263 -0.46681,-0.521c-0.15005,-0.08058 -0.32649,-0.16533 -0.52933,-0.25425c-0.20284,-0.08892 -0.41263,-0.17367 -0.62937,-0.25425c-0.21674,-0.08058 -0.43069,-0.14866 -0.64187,-0.20423c-0.21118,-0.05279 -0.39735,-0.07919 -0.55851,-0.07919c-0.34177,0 -0.67521,0.06391 -1.00032,0.19173c-0.3251,0.1306 -0.6641,0.24313 -1.01699,0.33761c-0.01389,0 -0.05141,0.00695 -0.11254,0.02084c-0.06113,0.01389 -0.13199,0.0264 -0.21257,0.03751c-0.08058,0.01389 -0.1556,0.02779 -0.22507,0.04168c-0.06669,0.01389 -0.12087,0.02084 -0.16255,0.02084h-0.50849c-0.01389,0.01389 -0.04724,0.04168 -0.10003,0.08336c-0.05557,0.0389 -0.12087,0.08614 -0.1959,0.14171c-0.07225,0.05279 -0.1431,0.10698 -0.21257,0.16255c-0.06669,0.05279 -0.11392,0.10003 -0.14171,0.14171c-0.36678,0.3251 -0.66549,0.63076 -0.89612,0.91696c-0.23063,0.28342 -0.40985,0.57796 -0.53767,0.88361c-0.1306,0.30565 -0.22229,0.64187 -0.27509,1.00865c-0.05557,0.36678 -0.08336,0.79331 -0.08336,1.27957c0,0.11115 0.00695,0.26119 0.02084,0.45014c0.01389,0.18895 0.03473,0.38901 0.06252,0.60019c0.02779,0.21118 0.0653,0.40429 0.11254,0.57935c0.04724,0.17783 0.11115,0.30704 0.19173,0.38762l1.66719,1.60884c0.04168,0.02501 0.09586,0.05835 0.16255,0.10003c0.06947,0.04168 0.14449,0.08197 0.22507,0.12087c0.08058,0.04168 0.1556,0.07641 0.22507,0.1042c0.06669,0.02501 0.11392,0.04446 0.14171,0.05835c0.01389,0.01389 0.05835,0.04863 0.13338,0.1042c0.07502,0.05279 0.1556,0.10698 0.24174,0.16255c0.08892,0.05279 0.17089,0.10281 0.24591,0.15005c0.07502,0.05002 0.11948,0.08058 0.13338,0.0917c0.26953,0.17783 0.56129,0.31816 0.87528,0.42097c0.31121,0.10003 0.60992,0.22507 0.89612,0.37512c0.0389,0.01389 0.1167,0.04446 0.23341,0.0917c0.11392,0.04724 0.23202,0.09725 0.35428,0.15005c0.12226,0.05557 0.24174,0.10698 0.35845,0.15422c0.11392,0.04724 0.19173,0.08475 0.23341,0.11254c0.01389,0 0.06808,0.0264 0.16255,0.07919c0.09447,0.05557 0.19867,0.11392 0.3126,0.17506c0.1167,0.06113 0.22646,0.11531 0.32927,0.16255c0.10003,0.04724 0.17089,0.0778 0.21257,0.0917c0.01389,0 0.06113,0.00278 0.14171,0.00834c0.08058,0.00834 0.1695,0.01945 0.26675,0.03334c0.09447,0.01389 0.18478,0.03057 0.27092,0.05002c0.08892,0.01945 0.14727,0.03612 0.17506,0.05002c0.02779,0 0.0917,0.03473 0.19173,0.1042c0.10281,0.06669 0.16116,0.10698 0.17506,0.12087c0.05279,0.02779 0.14449,0.07225 0.27509,0.13338c0.12782,0.06113 0.2598,0.12504 0.39596,0.19173c0.13615,0.06669 0.26536,0.1306 0.38762,0.19173c0.12226,0.06113 0.20284,0.10559 0.24174,0.13338c0.69189,0.3251 1.33376,0.76691 1.92561,1.32542c0.58908,0.55573 1.09757,1.18649 1.52548,1.89227c0.42791,0.70578 0.76413,1.44768 1.00865,2.2257c0.24452,0.7808 0.36678,1.55744 0.36678,2.3299v0.22507c-0.01389,0.13615 -0.03195,0.32232 -0.05418,0.55851c-0.01945,0.23896 -0.04307,0.48071 -0.07086,0.72523c-0.02501,0.24452 -0.05141,0.46126 -0.07919,0.65021c-0.02779,0.18895 -0.04863,0.29732 -0.06252,0.3251c-0.05279,0.3001 -0.13338,0.57518 -0.24174,0.82526c-0.11115,0.25008 -0.24452,0.49043 -0.40013,0.72106c-0.1556,0.23063 -0.31816,0.46126 -0.48765,0.69189c-0.1695,0.23063 -0.34177,0.4682 -0.51683,0.71273c0,0.01389 -0.01389,0.04446 -0.04168,0.0917c-0.02779,0.04724 -0.05557,0.09864 -0.08336,0.15422c-0.02501,0.05279 -0.05557,0.10698 -0.0917,0.16255c-0.03334,0.05279 -0.05002,0.08614 -0.05002,0.10003c-0.09447,0.17783 -0.2473,0.31399 -0.45848,0.40846c-0.2084,0.09447 -0.38762,0.1959 -0.53767,0.30426c-0.01389,0.02779 -0.05141,0.07502 -0.11254,0.14171c-0.06113,0.06947 -0.12504,0.14171 -0.19173,0.21674c-0.06947,0.07225 -0.13476,0.13893 -0.1959,0.20006c-0.06113,0.06113 -0.09864,0.0917 -0.11254,0.0917c-0.24452,0.16394 -0.4821,0.29315 -0.71273,0.38762c-0.23063,0.09447 -0.46681,0.17644 -0.70856,0.24591c-0.24452,0.06669 -0.49321,0.1306 -0.74607,0.19173c-0.25008,0.06113 -0.51822,0.13199 -0.80442,0.21257c-0.26953,0.08336 -0.50988,0.16533 -0.72106,0.24591c-0.21118,0.08058 -0.46543,0.12087 -0.76274,0.12087h-0.40846c-0.17506,-0.01389 -0.48627,-0.04446 -0.93363,-0.0917c-0.44736,-0.04724 -0.91974,-0.09725 -1.41712,-0.15005c-0.4946,-0.05557 -0.9628,-0.10698 -1.40461,-0.15422c-0.43903,-0.04724 -0.74746,-0.08475 -0.92529,-0.11254z"></path></g><g fill="#bf0633" stroke="none"><path d="M81.78892,90.42732l-0.63956,-0.43435c-0.21638,-0.14649 -0.50999,-0.09064 -0.65711,0.12574l-3.27374,4.82253c-0.14649,0.21574 -0.09032,0.50967 0.12542,0.65647l0.6402,0.43403c0.21574,0.14649 0.50999,0.09032 0.65615,-0.1251l3.27502,-4.82253c0.14553,-0.21606 0.09,-0.50999 -0.12638,-0.65679z"></path><path d="M52.21037,93.68925c-0.09191,-0.24446 -0.36446,-0.36797 -0.60892,-0.27606l-0.72381,0.27255c-0.24414,0.09191 -0.36765,0.36446 -0.27574,0.60892l2.05303,5.45506c0.09191,0.24446 0.36478,0.36797 0.60892,0.27638l0.72381,-0.27255c0.24414,-0.09159 0.36797,-0.36446 0.27542,-0.6086z"></path><path d="M74.1554,84.39302c-0.12255,-0.32584 -0.48573,-0.49052 -0.81157,-0.36797l-0.9654,0.36318c-0.32488,0.12255 -0.48988,0.48605 -0.36701,0.81157l1.13933,3.02864l-6.87524,2.58727c-0.3919,-0.3919 -0.93253,-0.63445 -1.5306,-0.63445c-1.14827,0 -2.08239,0.89263 -2.15547,2.02175l-2.63642,0.99221l-0.09064,-0.11138c-0.48988,-0.58818 -1.36432,-0.66668 -1.95346,-0.17585c-0.3769,0.31435 -0.54318,0.78572 -0.48637,1.2389l-1.54177,0.5802l-1.13965,-3.02864c-0.12255,-0.32552 -0.48573,-0.49052 -0.81157,-0.36733l-0.96476,0.36286c-0.32584,0.12255 -0.49084,0.48605 -0.36765,0.81157l2.73727,7.27384c0.12255,0.32552 0.48541,0.49052 0.81157,0.36797l0.96476,-0.36318c0.32584,-0.12255 0.4902,-0.48605 0.36765,-0.81157l-1.13965,-3.02864l1.74793,-0.65775l1.5657,1.87431l2.11558,0.51988v4.62498c0,0.12829 -0.5786,12.05392 -0.5786,12.05392c-0.05617,0.77998 0.53328,1.45656 1.31262,1.51113c0.77966,0.05298 1.45464,-0.53233 1.50858,-1.31294l0.48158,-9.28698c0.08617,0.00574 0.45892,0.0083 0.55945,-0.00383l0.63637,9.29049c0.05234,0.78062 0.73019,1.36592 1.51081,1.31294c0.77774,-0.05457 1.36879,-0.73115 1.31294,-1.51113c0,0 -0.78955,-11.94925 -0.78955,-12.05392v-4.85859l2.78928,-3.34044l0.97625,-1.16486c0.4902,-0.58786 0.41201,-1.46453 -0.17712,-1.95537c-0.27606,-0.22978 -0.61466,-0.33318 -0.94657,-0.31946l3.24502,-1.22103l1.13965,3.02864c0.12255,0.32584 0.48541,0.4902 0.81125,0.36765l0.9654,-0.36318c0.32552,-0.12287 0.48988,-0.48605 0.36765,-0.81189zM69.35617,91.16134c0,0 -2.90098,3.44256 -2.90737,3.4381c-0.48318,0.42669 -1.11571,0.68743 -1.80889,0.68743c-0.64913,0 -1.24337,-0.22659 -1.71155,-0.60381l-1.7457,0.02074l-0.3635,-0.44552l2.08303,-0.78381c0.3801,0.61913 1.06114,1.03401 1.84272,1.03401c1.19582,0 2.16249,-0.96859 2.16249,-2.16249c0,-0.12542 -0.01277,-0.24701 -0.03319,-0.36637l2.6728,-1.00593c-0.06766,0.05489 -0.13244,0.11744 -0.19085,0.18765z"></path></g></g></svg>