<svg version="1.1" xmlns="http://www.w3.org/2000/svg" xmlns:xlink="http://www.w3.org/1999/xlink" width="300" height="200"><defs><clipPath id="clip-1"><rect x="126.94286" y="197.77143" transform="scale(0.4036,0.4036)" width="100" height="100"></rect></clipPath></defs><g fill="none" fill-rule="nonzero" stroke="none" stroke-width="1" stroke-linecap="butt" stroke-linejoin="miter" stroke-miterlimit="10" stroke-dasharray="" stroke-dashoffset="0" font-family="none" font-weight="none" font-size="none" text-anchor="none" style="mix-blend-mode: normal"><path d="M0,200v-200h300v200z" fill="#b9eaf5" stroke="#808080"></path><text x="240" y="190" fill="#000000" stroke="none" font-family="Courier New" font-weight="bold" font-size="7" text-anchor="middle">logo gen function: 59</text><path d="M25,150v-100h250v100z" fill="none" stroke="none"></path><g fill="#6d739d" stroke="none"><path d="M25,120.17989v-40.35978h12.62685c4.45879,0 7.68758,1.14353 9.68635,3.43058c1.99877,2.28705 2.99815,5.10263 2.99815,8.44673c0,1.4222 -0.23063,2.80597 -0.69188,4.15129c-0.46125,1.34533 -1.17236,2.60417 -2.1333,3.77652c-0.96095,1.17236 -2.28705,2.11408 -3.97832,2.82518c-1.69127,0.7111 -3.6516,1.06665 -5.881,1.06665h-10.5512v16.66282h-2.07565M37.62685,101.44142c3.6516,0 6.33264,-0.97056 8.04313,-2.91167c1.71049,-1.94111 2.56573,-4.21856 2.56573,-6.83233c0,-2.80597 -0.81681,-5.14107 -2.45042,-7.0053c-1.63361,-1.86424 -4.35309,-2.79636 -8.15844,-2.79636h-10.5512v19.54566zM106.81504,81.72279v38.4571h-2.07565v-38.4571h-11.07011v-1.90268h24.27352v1.90268zM128.20572,120.17989v-40.35978h2.07565v40.35978zM142.96587,120.17989v-40.35978h21.04474v1.90268h-18.9691v16.60517h12.79982v1.90268h-12.79982v18.04659h20.23755v1.90268zM203.10194,120.17989h-2.01799l-20.6988,-33.49862l-1.78736,-2.9405v2.9405v33.49862h-2.07565v-40.35978h2.01799l20.6988,33.49862l1.78736,2.9405v-2.9405v-33.49862h2.07565zM229.97002,120.87177c-2.69065,0 -5.06419,-0.58618 -7.12062,-1.75853c-2.05643,-1.17236 -3.69004,-2.75792 -4.90083,-4.75669c-1.21079,-1.99877 -2.11408,-4.20895 -2.70987,-6.63054c-0.59579,-2.42159 -0.89368,-4.99692 -0.89368,-7.72601c0,-2.72909 0.31711,-5.32365 0.95134,-7.78367c0.63423,-2.46002 1.57595,-4.67981 2.82518,-6.65936c1.24923,-1.97955 2.88284,-3.54589 4.90083,-4.69903c2.01799,-1.15314 4.31465,-1.7297 6.88999,-1.7297c3.07503,0 5.4774,0.58618 7.2071,1.75853c1.7297,1.17236 3.17113,2.75792 4.32426,4.75669l-1.78736,1.03782c-0.99938,-1.69127 -2.21979,-3.02698 -3.66121,-4.00715c-1.44142,-0.98017 -3.46902,-1.47025 -6.0828,-1.47025c-4.26661,0 -7.55304,1.8258 -9.85932,5.4774c-2.30627,3.6516 -3.45941,8.09117 -3.45941,13.31873c0,3.38253 0.42282,6.43835 1.26845,9.16744c0.84563,2.72909 2.30627,5.01614 4.38192,6.86116c2.07565,1.84502 4.65098,2.76753 7.72601,2.76753c2.49846,0 4.60294,-0.57657 6.31342,-1.7297c1.71049,-1.15314 2.98855,-2.59456 3.83418,-4.32426l1.90268,0.74954c-0.99938,2.11408 -2.50807,3.87262 -4.52606,5.2756c-2.01799,1.40298 -4.52606,2.10447 -7.52422,2.10447zM252.68681,120.17989v-40.35978h21.04474v1.90268h-18.9691v16.60517h12.79982v1.90268h-12.79982v18.04659h20.23755v1.90268z"></path></g><g clip-path="url(#clip-1)" fill="#6d739d" stroke="none"><g><path d="M59.50761,114.32772c-0.84756,0.24216 -2.54267,1.25115 -2.9059,1.81619l3.26914,1.93727c0.36324,-0.6054 0.4036,-2.74446 0.2018,-3.5113c1.61439,-0.92827 6.57864,-5.81181 7.87016,-8.0316l-5.24677,-3.06734c-1.29151,2.21979 -3.26914,9.12131 -3.18842,10.85678z"></path><path d="M67.29705,101.77583v-1.37223c-1.37223,0.4036 -3.99562,1.97763 -4.5203,2.9059l5.24677,3.06734c0.48432,-0.8072 0.64576,-3.3095 0.44396,-4.80281zM65.80374,103.18842c-0.16144,0.28252 -0.52468,0.36324 -0.8072,0.2018c-0.28252,-0.16144 -0.36324,-0.52468 -0.2018,-0.8072c0.16144,-0.28252 0.52468,-0.36324 0.8072,-0.2018c0.28252,0.16144 0.4036,0.52468 0.2018,0.8072z"></path><path d="M86.18542,113.68196l-17.43542,-31.60171c-0.08072,-0.12108 -0.24216,-0.16144 -0.36324,-0.12108l-0.28252,0.16144c-0.12108,0.08072 -0.16144,0.24216 -0.12108,0.36324v17.9601v0v0v0l0.04036,0.04036c0,0 0,0 0.04036,0c0.16144,0.08072 0.28252,0.24216 0.28252,0.44396c0,0.24216 -0.2018,0.44396 -0.44396,0.44396c-0.2018,0 -0.4036,-0.16144 -0.44396,-0.36324h-0.08072c0.04036,0.28252 0.28252,0.48432 0.56504,0.48432c0.32288,0 0.6054,-0.28252 0.6054,-0.6054c0,-0.24216 -0.16144,-0.48432 -0.4036,-0.56504v-17.59686l17.27399,31.35955c0.08072,0.12108 0.24216,0.16144 0.36324,0.12108l0.28252,-0.16144c0.16144,-0.08072 0.2018,-0.24216 0.12108,-0.36324z"></path></g></g></g></svg>