<svg version="1.1" xmlns="http://www.w3.org/2000/svg" xmlns:xlink="http://www.w3.org/1999/xlink" width="300" height="200"><defs><clipPath id="clip-1"><rect x="219.46221" y="54.01163" transform="scale(0.94298,0.94298)" width="100" height="100"></rect></clipPath></defs><g fill="none" fill-rule="nonzero" stroke="none" stroke-width="1" stroke-linecap="butt" stroke-linejoin="miter" stroke-miterlimit="10" stroke-dasharray="" stroke-dashoffset="0" font-family="none" font-weight="none" font-size="none" text-anchor="none" style="mix-blend-mode: normal"><path d="M0,200v-200h300v200z" fill="#c8f4de" stroke="#808080"></path><text x="240" y="190" fill="#000000" stroke="none" font-family="Courier New" font-weight="bold" font-size="7" text-anchor="middle">logo gen function: 59</text><path d="M25,150v-100h250v100z" fill="none" stroke="none"></path><g fill="#649dad" stroke="none"><path d="M59.53947,108.36075c0,1.64474 -0.3655,3.58644 -1.09649,5.82511c-0.73099,2.23867 -1.69042,3.358 -2.87829,3.358c-1.18787,0 -1.7818,-0.68531 -1.7818,-2.05592c0,-0.54825 0.27412,-1.7818 0.82237,-3.70066c0.63962,-1.91886 0.95943,-3.51791 0.95943,-4.79715c0,-4.11184 -1.64474,-6.16776 -4.93421,-6.16776c-1.64474,0 -3.7235,0.66246 -6.23629,1.98739c-2.51279,1.32493 -3.90625,1.98739 -4.18037,1.98739c-0.27412,0 -0.41118,-0.13706 -0.41118,-0.41118c0,-1.27924 1.57621,-2.42142 4.72862,-3.42654c3.15241,-1.00512 5.68805,-1.50768 7.60691,-1.50768c4.93421,0 7.40132,2.96966 7.40132,8.90899M34.45724,149.06798c-6.30482,0 -9.45724,-3.5636 -9.45724,-10.69079c0,-7.12719 2.51279,-14.68841 7.53838,-22.68366c5.02558,-7.99525 10.82785,-11.99287 17.4068,-11.99287c1.00512,0 1.50768,0.1599 1.50768,0.47971c0,0.31981 -0.91374,1.02796 -2.74123,2.12445c-4.47734,2.74123 -8.52065,6.99013 -12.12993,12.74671c-3.60928,5.75658 -5.41393,11.0106 -5.41393,15.76206c0,7.40132 2.78692,11.10197 8.36075,11.10197c3.38085,0 7.12719,-1.32493 11.23904,-3.97478c5.6652,-3.65497 10.14254,-8.08662 13.43202,-13.29496c0.82237,-1.37061 1.46199,-2.05592 1.91886,-2.05592l0.27412,0.27412c0,0.3655 -0.41118,1.14218 -1.23355,2.33004c-3.28947,5.02558 -7.92672,9.5943 -13.91173,13.70614c-5.98501,4.11184 -11.58169,6.16776 -16.79002,6.16776zM106.55154,126.58991c0.09137,0 0.13706,0.13706 0.13706,0.41118c0,0.27412 -0.3655,1.0508 -1.09649,2.33004c-2.8326,4.56871 -6.94444,8.79477 -12.33553,12.67818c-5.39108,3.88341 -10.46235,5.82511 -15.21382,5.82511c-6.48757,0 -9.73136,-4.20322 -9.73136,-12.60965c0,-2.8326 0.31981,-5.84795 0.95943,-9.04605c-0.82237,-0.73099 -1.55336,-1.73611 -2.19298,-3.01535c0.09137,0.09137 0.31981,0.20559 0.68531,0.34265c0.3655,0.13706 0.70815,0.27412 1.02796,0.41118c0.31981,0.13706 0.66246,0.25128 1.02796,0.34265c0.91374,-4.47734 3.70066,-9.09174 8.36075,-13.8432c4.66009,-4.75146 9.18311,-7.12719 13.56908,-7.12719c1.00512,0 1.50768,0.11422 1.50768,0.34265c0,0.22844 -0.63962,0.70815 -1.91886,1.43914c-3.38085,1.82749 -6.53326,4.66009 -9.45724,8.49781c-3.10673,3.83772 -5.34539,7.67544 -6.71601,11.51316l0.27412,0.27412c4.38596,0 8.95468,-2.10161 13.70614,-6.30482c4.75146,-4.20322 7.12719,-8.49781 7.12719,-12.88377c0,-1.27924 -0.34265,-2.48995 -1.02796,-3.63213c-0.68531,-1.14218 -1.80464,-1.71327 -3.358,-1.71327c-1.55336,0 -3.49507,0.70815 -5.82511,2.12445c-2.33004,1.4163 -3.60928,2.12445 -3.83772,2.12445c-0.22844,0 -0.34265,-0.04569 -0.34265,-0.13706c0,-1.09649 1.48483,-2.23867 4.4545,-3.42654c2.96966,-1.18787 5.39108,-1.7818 7.26425,-1.7818c1.87317,0 3.49507,0.59393 4.86568,1.7818c1.37061,1.18787 2.05592,2.8326 2.05592,4.93421c0,4.84284 -2.99251,9.41155 -8.97752,13.70614c-5.98501,4.29459 -11.62738,6.67032 -16.92708,7.12719c-0.73099,2.19298 -1.09649,4.29459 -1.09649,6.30482c0,7.58406 2.74123,11.3761 8.22368,11.3761c4.20322,0 8.40643,-1.66758 12.60965,-5.00274c4.20322,-3.33516 7.58406,-7.15004 10.14254,-11.44463c0.82237,-1.27924 1.50768,-1.91886 2.05592,-1.91886zM143.55811,113.70614c0,2.64985 -0.79952,5.11696 -2.39857,7.40132c-1.59905,2.28436 -3.12957,3.42654 -4.59156,3.42654c-0.27412,0 -0.41118,-0.18275 -0.41118,-0.54825c0.54825,-1.37061 1.18787,-2.85545 1.91886,-4.4545c0.73099,-1.59905 1.09649,-3.42654 1.09649,-5.48246c0,-2.05592 -0.77668,-3.08388 -2.33004,-3.08388c-2.10161,0 -5.41393,2.53564 -9.93695,7.60691c-4.52303,5.07127 -7.69828,9.20596 -9.52577,12.40406l-5.89364,15.76206c-0.18275,0.18275 -0.5254,0.27412 -1.02796,0.27412c-0.50256,0 -1.23355,-0.31981 -2.19298,-0.95943c-0.95943,-0.63962 -1.43914,-1.18787 -1.43914,-1.64474c0.18275,-0.3655 0.43403,-0.95943 0.75384,-1.7818c0.31981,-0.82237 0.61678,-1.46199 0.8909,-1.91886c3.5636,-7.58406 6.00786,-13.72898 7.33279,-18.43476c1.32493,-4.70577 1.98739,-9.34302 1.98739,-13.91173c-0.3655,1.46199 -2.01023,4.70577 -4.93421,9.73136c-4.38596,7.58406 -6.85307,11.3761 -7.40132,11.3761c-0.54825,0 -0.82237,-0.13706 -0.82237,-0.41118c0,-0.18275 1.89602,-3.33516 5.68805,-9.45724c3.79203,-6.12208 6.37336,-11.83297 7.74397,-17.13268c0.54825,-2.37573 1.46199,-3.5636 2.74123,-3.5636c1.46199,0 2.19298,1.82749 2.19298,5.48246c0,6.57895 -2.10161,14.66557 -6.30482,24.25987c4.93421,-6.12208 8.36075,-10.23392 10.27961,-12.33553c5.20833,-5.57383 9.27449,-8.36075 12.19846,-8.36075c2.92398,0 4.38596,1.91886 4.38596,5.75658zM185.22478,126.58991c0.09137,0 0.13706,0.13706 0.13706,0.41118c0,0.27412 -0.3655,1.0508 -1.09649,2.33004c-2.8326,4.56871 -6.94444,8.79477 -12.33553,12.67818c-5.39108,3.88341 -10.46235,5.82511 -15.21382,5.82511c-6.48757,0 -9.73136,-4.20322 -9.73136,-12.60965c0,-2.8326 0.31981,-5.84795 0.95943,-9.04605c-0.82237,-0.73099 -1.55336,-1.73611 -2.19298,-3.01535c0.09137,0.09137 0.31981,0.20559 0.68531,0.34265c0.3655,0.13706 0.70815,0.27412 1.02796,0.41118c0.31981,0.13706 0.66246,0.25128 1.02796,0.34265c0.91374,-4.47734 3.70066,-9.09174 8.36075,-13.8432c4.66009,-4.75146 9.18311,-7.12719 13.56908,-7.12719c1.00512,0 1.50768,0.11422 1.50768,0.34265c0,0.22844 -0.63962,0.70815 -1.91886,1.43914c-3.38085,1.82749 -6.53326,4.66009 -9.45724,8.49781c-3.10673,3.83772 -5.34539,7.67544 -6.71601,11.51316l0.27412,0.27412c4.38596,0 8.95468,-2.10161 13.70614,-6.30482c4.75146,-4.20322 7.12719,-8.49781 7.12719,-12.88377c0,-1.27924 -0.34265,-2.48995 -1.02796,-3.63213c-0.68531,-1.14218 -1.80464,-1.71327 -3.358,-1.71327c-1.55336,0 -3.49507,0.70815 -5.82511,2.12445c-2.33004,1.4163 -3.60928,2.12445 -3.83772,2.12445c-0.22844,0 -0.34265,-0.04569 -0.34265,-0.13706c0,-1.09649 1.48483,-2.23867 4.4545,-3.42654c2.96966,-1.18787 5.39108,-1.7818 7.26425,-1.7818c1.87317,0 3.49507,0.59393 4.86568,1.7818c1.37061,1.18787 2.05592,2.8326 2.05592,4.93421c0,4.84284 -2.99251,9.41155 -8.97752,13.70614c-5.98501,4.29459 -11.62738,6.67032 -16.92708,7.12719c-0.73099,2.19298 -1.09649,4.29459 -1.09649,6.30482c0,7.58406 2.74123,11.3761 8.22368,11.3761c4.20322,0 8.40643,-1.66758 12.60965,-5.00274c4.20322,-3.33516 7.58406,-7.15004 10.14254,-11.44463c0.82237,-1.27924 1.50768,-1.91886 2.05592,-1.91886zM228.81031,127.96053c0.54825,-0.73099 0.95943,-1.09649 1.23355,-1.09649c0.27412,0 0.41118,0.20559 0.41118,0.61678c0,0.41118 -0.18275,0.84521 -0.54825,1.30208c-8.22368,12.24415 -14.5742,18.36623 -19.05154,18.36623c-2.46711,0 -4.31743,-1.16502 -5.55099,-3.49507c-1.23355,-2.33004 -1.85033,-4.93421 -1.85033,-7.8125c0,-2.87829 0.45687,-6.19061 1.37061,-9.93695c-5.75658,12.7924 -11.69591,19.1886 -17.81798,19.1886c-3.74635,0 -5.61952,-2.42142 -5.61952,-7.26425c0,-7.76681 3.76919,-15.85344 11.30757,-24.25987c7.53838,-8.40643 15.05391,-12.60965 22.5466,-12.60965c3.5636,0 5.34539,1.55336 5.34539,4.66009c0,3.83772 -2.55848,7.67544 -7.67544,11.51316c-2.64985,6.57895 -3.97478,12.90662 -3.97478,18.983c0,6.07639 1.14218,9.11458 3.42654,9.11458c3.01535,0 8.49781,-5.75658 16.44737,-17.26974M214.2818,112.47259c1.46199,-2.01023 2.19298,-4.02047 2.19298,-6.0307c0,-2.01023 -0.95943,-3.01535 -2.87829,-3.01535c-4.56871,0 -10.55373,4.50018 -17.95504,13.50055c-7.40132,9.00037 -11.10197,15.92197 -11.10197,20.7648c0,2.10161 1.00512,3.15241 3.01535,3.15241c5.75658,0 11.33041,-6.3962 16.72149,-19.1886c-1.64474,0.45687 -2.74123,0.68531 -3.28947,0.68531c-0.54825,0 -0.82237,-0.13706 -0.82237,-0.41118c0,-0.45687 0.63962,-0.91374 1.91886,-1.37061l4.2489,-2.46711c0.18275,-1.55336 1.14218,-3.58644 2.87829,-6.09923c1.73611,-2.51279 3.38085,-3.76919 4.93421,-3.76919c0.54825,0 0.82237,0.3655 0.82237,1.09649c0,0.73099 -0.22844,1.7818 -0.68531,3.15241z"></path></g><g clip-path="url(#clip-1)" fill="#649dad" stroke="none"><g><path d="M271.11048,81.03013c0.44037,-0.49129 0.68838,-0.74118 0.68838,-0.74118c-0.23669,0.2282 -0.46678,0.47432 -0.68838,0.74118z"></path><path d="M262.98669,92.52886c-2.73654,4.71774 -8.41706,12.10601 -14.01649,18.73235c0.71855,-1.12781 1.23342,-2.88458 0.68555,-5.55322c1.87654,-4.85919 5.08833,-9.88246 5.08833,-9.88246c-3.1373,4.03125 -5.00441,7.54857 -6.11901,10.33697c-1.12026,1.26643 -2.71768,3.75967 -1.64928,6.88849c0,0 0.49318,-0.19708 1.07311,-0.70535c-1.68794,1.97461 -3.35136,3.86151 -4.91011,5.56643c0.78362,-1.19664 1.35884,-3.06281 0.81945,-5.91816c2.09154,-5.17132 5.61357,-10.49539 5.61357,-10.49539c-3.42586,4.26417 -5.48533,7.99649 -6.72535,10.96311c-1.21833,1.33715 -2.97228,3.98033 -1.88219,7.34678c0,0 0.4036,-0.14993 0.92412,-0.54316c-1.43145,1.5314 -2.74691,2.87704 -3.86717,3.94261c-0.49412,0.46961 -0.97504,0.92224 -1.44842,1.36544c0.78645,-1.32112 1.32961,-3.27781 0.92224,-6.15956c2.63281,-5.7305 6.89037,-11.55814 6.89037,-11.55814c-4.09254,4.6357 -6.61408,8.74333 -8.17189,12.02774c-1.44465,1.44654 -3.56542,4.34055 -2.50833,8.19829c0,0 0.1141,-0.03961 0.2895,-0.11976c-2.38952,2.19621 -4.39336,4.00107 -5.82669,5.43912c4.97895,-15.74121 16.6955,-31.87658 31.34191,-43.53279c12.78684,-10.17667 21.92529,-23.47272 25.81697,-29.70489c-10.17761,15.87134 -23.97816,20.64189 -42.42195,39.4789c-13.42524,13.71285 -16.33434,28.28193 -16.82469,36.20393c-0.13107,0.215 -0.23952,0.41774 -0.29987,0.59974c0,0 0.10184,-0.07167 0.27535,-0.19803c-0.18577,3.48621 0.09713,5.58434 0.09713,5.58434c0.35268,-2.2377 0.86283,-4.50274 1.51443,-6.7791c1.49463,-1.12875 3.7823,-2.9091 6.51224,-5.20338c-0.39605,0.69121 -0.50921,1.22022 -0.50921,1.22022c3.79268,0.60822 6.33684,-1.71529 7.56743,-3.24575c2.97511,-1.8275 6.63765,-4.66022 10.64156,-9.05075c0,0 -5.12417,4.67059 -10.32471,7.77772c-1.85013,-0.05941 -3.26366,0.24046 -4.35846,0.70441c5.55417,-4.88936 12.18616,-11.3686 17.63094,-18.55129c0.74401,-0.98164 1.44654,-1.935 2.11134,-2.85912c-0.09901,0.51487 -0.06224,0.85906 -0.06224,0.85906c2.75728,-0.41114 4.00768,-2.57434 4.52349,-3.903c1.65776,-1.91614 3.57107,-4.67625 5.37783,-8.58868c0,0 -2.52154,4.35281 -5.43724,7.64004c-0.99013,0.27818 -1.75112,0.64877 -2.35274,1.05614c0.60822,-0.89772 1.17873,-1.76526 1.71623,-2.60546c0.01037,0.07167 0.0198,0.11882 0.0198,0.11882c2.84875,-0.77042 3.89923,-3.19954 4.27643,-4.65833c1.50877,-2.21695 3.17879,-5.35614 4.60081,-9.69009c0,0 -2.11605,4.88559 -4.77715,8.69901c-0.40925,0.16879 -0.76476,0.35079 -1.09763,0.5375c3.71346,-6.51789 5.28447,-10.77169 7.38355,-13.28002c-1.35412,1.5116 -4.55178,5.342 -8.12285,11.49873z"></path><path d="M253.34375,111.08864c2.93645,-0.28855 4.37167,-2.50928 4.99026,-3.88509c1.85296,-1.93971 4.02088,-4.7564 6.13882,-8.79803c0,0 -2.89496,4.46879 -6.15107,7.79092c-5.19112,1.1825 -4.978,4.89219 -4.978,4.89219z"></path><path d="M248.97303,118.61364c-6.12467,0.24706 -6.66406,4.49143 -6.66406,4.49143c3.38436,0.29138 5.47967,-1.92086 6.46697,-3.35042c2.50739,-1.80393 5.55511,-4.53857 8.80368,-8.66789c0.00094,0 -4.21985,4.44993 -8.6066,7.52689z"></path><path d="M254.07079,112.52386c-5.69467,0.60822 -5.93702,4.59704 -5.93702,4.59704c3.17408,0.06318 4.99121,-2.12831 5.82197,-3.5211c2.22638,-1.83599 4.89879,-4.57158 7.67211,-8.62075c-0.00094,0 -3.65971,4.4075 -7.55706,7.5448z"></path><path d="M254.02741,100.21794c-1.13252,1.0882 -2.80537,3.27686 -2.0557,6.25575c0,0 3.70969,-1.09386 3.04583,-6.59522c2.10945,-4.35941 5.47118,-8.76691 5.47118,-8.76691c-3.21368,3.49469 -5.21375,6.60936 -6.46132,9.10638z"></path><path d="M261.48923,92.41947c2.56397,-3.78796 6.30478,-7.45239 6.30478,-7.45239c-3.47866,2.83083 -5.77011,5.47307 -7.27888,7.63816c-1.2023,0.86283 -3.06469,2.6809 -2.7686,5.5702c0,-0.00094 3.61728,-0.52241 3.7427,-5.75596z"></path><path d="M286.80548,56.72287c0.39982,-0.68743 0.61388,-1.07594 0.61388,-1.07594c-0.20274,0.36776 -0.40925,0.7195 -0.61388,1.07594z"></path><path d="M285.32594,59.16331c0.50167,-0.78362 0.9939,-1.60024 1.4786,-2.44044c-0.3489,0.59502 -0.84303,1.42202 -1.4786,2.44044z"></path><path d="M250.51386,86.02511l0.55919,-0.8402c-0.28289,0.25555 -0.56579,0.49978 -0.8402,0.74496c-0.05469,-0.01886 -0.09807,-0.03206 -0.16125,-0.05469c-0.18954,0.17822 -0.25272,0.32061 -0.26969,0.46112c-0.63934,0.60445 -1.20796,1.24285 -1.55686,2.08682c0.89489,-0.4366 1.89162,-0.88546 2.78651,-1.33621c-0.21877,-0.90526 -0.0132,-0.89112 -0.5177,-1.0618z"></path><path d="M255.31836,83.22728l-0.32721,0.65254c1.5116,0.0943 2.42912,-0.69404 2.6064,-2.20092c-1.20513,-0.03961 -2.41592,0.71384 -3.1175,1.78601c0.32721,0.15748 0.60728,0.07921 0.83831,-0.23763z"></path><path d="M252.02829,80.99807c1.0816,-0.54787 1.1957,-0.66952 1.2966,-1.97083c-1.08914,-0.26498 -1.0948,0.34419 -1.59741,0.93638v0.32533c-0.1009,0.35739 -0.00189,0.59314 0.30081,0.70912z"></path><path d="M246.32985,91.23509c-0.07638,0.1405 -0.12919,0.29327 -0.14333,0.46678c0.2216,-0.32156 0.31307,-0.31779 0.48752,-0.81002l0.15748,-0.15748c-0.05186,0.03018 -0.09147,0.06507 -0.13768,0.09807c0.00754,-0.02263 0.01509,-0.03961 0.02263,-0.06507c-1.31735,0.09147 -1.59741,0.79965 -1.51726,1.59836z"></path><path d="M250.51103,82.17586c-1.05237,0.12542 -1.21456,0.73175 -1.72,1.3777l1.30414,-0.65254c0.46866,-0.18765 0.60822,-0.42906 0.41586,-0.72515z"></path><path d="M257.55228,80.03434c0.90526,-0.88546 0.72327,-0.47904 0.75627,-1.71906c-0.45169,0.02263 -0.79588,0.24612 -1.03162,0.66952l0.32439,0.32627c-0.30364,0.2961 -0.3225,0.53844 -0.04904,0.72327z"></path><path d="M244.18173,88.50704c-0.74496,0.46772 -1.60967,1.3645 -1.91897,2.22732h1.6323c0.45829,-0.97316 1.08443,-1.44465 0.28667,-2.22732z"></path><path d="M241.61022,96.28287c-0.82605,0.52713 -1.57101,0.56956 -1.1891,1.6125c1.3777,-0.11127 0.84868,-0.74873 1.1891,-1.6125z"></path><path d="M259.23456,75.0686v0.32533c1.31169,-0.36399 1.67002,-1.30037 1.27963,-2.60546c-1.11083,0.23669 -1.66908,0.92978 -2.01138,2.00384c0.1405,0.28384 0.38379,0.37531 0.73175,0.27629z"></path><path d="M255.07978,76.67638c0.0198,-0.04715 0.04526,-0.09147 0.07072,-0.13579l-0.15936,0.15936c0.02923,-0.00094 0.05941,-0.01132 0.08864,-0.02357z"></path><path d="M255.1505,76.54059l0.49224,-0.49318c-0.22254,0.13202 -0.38191,0.29987 -0.49224,0.49318z"></path><path d="M256.1991,76.5189c-0.57333,-0.37248 -0.8666,0.05375 -1.11932,0.15748c-0.04055,0.1009 -0.07261,0.20746 -0.0877,0.3225c0.55919,-0.21594 0.66669,-0.0811 1.20702,-0.47998z"></path></g></g></g></svg>