<svg version="1.1" xmlns="http://www.w3.org/2000/svg" xmlns:xlink="http://www.w3.org/1999/xlink" width="300" height="200"><defs><clipPath id="clip-1"><rect x="19.8468" y="58.77437" transform="scale(0.92645,0.92645)" width="100" height="100"></rect></clipPath></defs><g fill="none" fill-rule="nonzero" stroke="none" stroke-width="1" stroke-linecap="butt" stroke-linejoin="miter" stroke-miterlimit="10" stroke-dasharray="" stroke-dashoffset="0" font-family="none" font-weight="none" font-size="none" text-anchor="none" style="mix-blend-mode: normal"><path d="M0,200v-200h300v200z" fill="#e8e8e7" stroke="#808080"></path><text x="240" y="190" fill="#000000" stroke="none" font-family="Courier New" font-weight="bold" font-size="7" text-anchor="middle">logo gen function: 59</text><path d="M25,150v-100h250v100z" fill="none" stroke="none"></path><g fill="#362f3c" stroke="none"><path d="M117.77419,146.19355l11.29032,-93.29032h3.22581l-11.35484,93.29032zM154.67742,82.58065l-7.80645,63.6129h-3.22581l7.74194,-63.6129h3.29032M159.58065,59.6129c0,1.16129 -0.43871,2.18065 -1.31613,3.05806c-0.88602,0.88602 -1.86667,1.32903 -2.94194,1.32903c-1.11828,0 -2.08602,-0.44301 -2.90323,-1.32903c-0.8172,-0.87742 -1.22581,-1.89677 -1.22581,-3.05806c0,-1.2043 0.42151,-2.24946 1.26452,-3.13548c0.83441,-0.87742 1.81075,-1.31613 2.92903,-1.31613c1.07527,0 2.04301,0.43871 2.90323,1.31613c0.86022,0.88602 1.29032,1.93118 1.29032,3.13548zM222.09677,82.58065l-32.96774,63.6129h-2.64516l-17.41935,-63.6129h2.32258c0.43011,0 0.75269,0.12903 0.96774,0.3871c0.21505,0.25806 0.36559,0.51613 0.45161,0.77419l14.83871,55.03226c0.12903,0.64516 0.23656,1.29892 0.32258,1.96129c0.08602,0.67097 0.15054,1.32903 0.19355,1.97419c0.47312,-1.37634 1.01075,-2.68817 1.6129,-3.93548l28.32258,-55.03226c0.17204,-0.34409 0.4086,-0.62366 0.70968,-0.83871c0.30108,-0.21505 0.62366,-0.32258 0.96774,-0.32258zM258.80645,84.25806c-3.82796,0 -7.26882,0.8172 -10.32258,2.45161c-3.05376,1.63441 -5.72903,3.80645 -8.02581,6.51613c-2.30538,2.70968 -4.21935,5.80645 -5.74194,9.29032c-1.53118,3.48387 -2.64086,7.07527 -3.32903,10.77419c5.97849,-0.64516 11.13978,-1.38925 15.48387,-2.23226c4.34409,-0.83441 8.03441,-1.74624 11.07097,-2.73548c3.02796,-0.98925 5.46667,-2.04301 7.31613,-3.16129c1.84946,-1.11828 3.29032,-2.27957 4.32258,-3.48387c1.03226,-1.2043 1.72043,-2.45161 2.06452,-3.74194c0.34409,-1.29032 0.51613,-2.60215 0.51613,-3.93548c0,-0.98925 -0.22366,-2.05591 -0.67097,-3.2c-0.45591,-1.13548 -1.2086,-2.18925 -2.25806,-3.16129c-1.05806,-0.96344 -2.43441,-1.76774 -4.12903,-2.4129c-1.70323,-0.64516 -3.80215,-0.96774 -6.29677,-0.96774M273.32258,134.3871c-2.06452,2.19355 -4.06452,4.08602 -6,5.67742c-1.93548,1.5914 -3.89247,2.90323 -5.87097,3.93548c-1.97849,1.03226 -4.0086,1.78495 -6.09032,2.25806c-2.09032,0.47312 -4.31828,0.70968 -6.68387,0.70968c-3.48387,0 -6.55914,-0.57204 -9.22581,-1.71613c-2.66667,-1.13548 -4.90323,-2.75699 -6.70968,-4.86452c-1.80645,-2.10753 -3.16129,-4.67957 -4.06452,-7.71613c-0.90323,-3.02796 -1.35484,-6.43441 -1.35484,-10.21935c0,-3.1828 0.31398,-6.4 0.94194,-9.65161c0.61935,-3.24301 1.54409,-6.36989 2.77419,-9.38065c1.22151,-3.01075 2.72688,-5.84086 4.51613,-8.49032c1.78065,-2.64086 3.84516,-4.94194 6.19355,-6.90323c2.33978,-1.95269 4.95054,-3.50108 7.83226,-4.64516c2.88172,-1.13548 6,-1.70323 9.35484,-1.70323c3.05376,0 5.6129,0.4172 7.67742,1.25161c2.06452,0.84301 3.72043,1.88817 4.96774,3.13548c1.24731,1.24731 2.12903,2.58065 2.64516,4c0.51613,1.41935 0.77419,2.68817 0.77419,3.80645c0,1.72043 -0.22366,3.35484 -0.67097,4.90323c-0.45591,1.54839 -1.28602,3.01935 -2.49032,4.4129c-1.2043,1.40215 -2.84731,2.71398 -4.92903,3.93548c-2.09032,1.23011 -4.75699,2.36989 -8,3.41935c-3.25161,1.05806 -7.16559,2.02581 -11.74194,2.90323c-4.58495,0.88602 -9.97419,1.65161 -16.16774,2.29677c-0.17204,1.11828 -0.28817,2.22366 -0.34839,3.31613c-0.06882,1.10108 -0.10323,2.21075 -0.10323,3.32903c0,3.39785 0.3871,6.43871 1.16129,9.12258c0.77419,2.69247 1.93548,4.98495 3.48387,6.87742c1.54839,1.89247 3.49677,3.34194 5.84516,4.34839c2.33978,1.01505 5.05806,1.52258 8.15484,1.52258c2.36559,0 4.51613,-0.27097 6.45161,-0.8129c1.93548,-0.53333 3.67742,-1.2086 5.22581,-2.02581c1.54839,-0.8172 2.90323,-1.71183 4.06452,-2.68387c1.16129,-0.96344 2.18495,-1.85376 3.07097,-2.67097c0.87742,-0.8172 1.6172,-1.49677 2.21935,-2.03871c0.60215,-0.53333 1.11828,-0.8 1.54839,-0.8c0.34409,0 0.64516,0.12903 0.90323,0.3871z"></path></g><g clip-path="url(#clip-1)" fill="#362f3c" stroke="none"><g><path d="M92.89326,92.39722c-3.1277,-10.32252 -8.9347,-19.1757 -16.34631,-24.92989c-7.53113,-5.84498 -15.81731,-7.80906 -23.33361,-5.53092c-7.51723,2.27907 -13.31774,8.51316 -16.33519,17.55626c-2.96928,8.90042 -2.88312,19.48791 0.24551,29.81136c3.12955,10.32252 8.93655,19.1757 16.34817,24.92896c7.52927,5.84498 15.81638,7.80999 23.33361,5.53184c7.51538,-2.27907 13.31774,-8.51409 16.33519,-17.55533c2.9702,-8.90413 2.88312,-19.48884 -0.24736,-29.81229zM75.83729,136.57414c-13.78097,4.17644 -29.85212,-8.44924 -35.8231,-28.14745c-5.97098,-19.69914 0.38448,-39.12405 14.16637,-43.30142c13.78189,-4.17737 29.85398,8.45017 35.8231,28.14745c5.97191,19.69821 -0.38355,39.12313 -14.16637,43.30142z"></path><path d="M63.45248,75.06331c0.08245,-0.51789 0.01204,-1.0543 -0.21772,-1.58145c-0.26867,-0.61609 -0.86623,-1.33687 -1.56014,-1.88255c-0.25941,-0.20289 -0.53827,-0.39004 -0.83195,-0.5568c-1.06264,-0.60219 -2.2346,-0.88754 -3.29817,-0.80138c-0.17139,0.0139 -0.34649,0.04818 -0.51974,0.10098c-0.46415,0.13989 -0.90144,0.41134 -1.24237,0.74394c-0.07597,-0.88754 0.36687,-1.46101 0.38911,-1.48973l1.71579,-2.09471l-2.35782,1.33131c-0.0806,0.04447 -1.96593,1.15436 -0.74579,4.48125c0.10562,0.28535 0.27423,0.52622 0.43821,0.75969l0.04354,0.063c0.08801,0.12507 0.1612,0.2242 0.23161,0.31221c0.34464,0.43729 0.75321,0.84307 1.2155,1.20902l0.01204,0.00926c0.32241,0.25107 0.66982,0.48453 1.03485,0.69206c0.99594,0.56514 2.07433,0.90792 3.11658,0.99223c0.12878,0.01019 0.26033,0.01668 0.39004,0.01853c0.20197,0.00463 0.39837,-0.00093 0.57996,-0.01575c0.17973,-0.01482 0.36965,-0.03984 0.55958,-0.07597l0.07504,-0.0176c0.05188,-0.0139 0.09913,-0.02779 0.14731,-0.04262c2.57183,-0.78007 2.7284,-2.68671 2.73303,-2.76638l0.15935,-2.37264l-1.10989,2.09563c-0.01668,0.02687 -0.27145,0.47342 -0.95795,0.88847zM61.85899,75.61733c-0.00649,0.0139 -0.01575,0.02687 -0.02409,0.04076c-0.21216,0.02965 -0.43358,0.04076 -0.65593,0.03243l-0.28442,-0.0139h-0.01946c-0.57811,-0.00649 -1.65372,-0.40115 -2.29575,-0.76432c-0.50862,-0.28813 -1.29981,-0.93757 -1.71394,-1.40265l-0.14453,-0.21772l-0.01112,-0.01575c-0.15009,-0.20938 -0.27794,-0.42154 -0.3817,-0.63277l0.02965,-0.06115c0.01019,-0.01482 0.02131,-0.03428 0.03613,-0.06022c0.15657,-0.27608 0.43636,-0.48083 0.81065,-0.59478c0.16028,-0.04818 0.33723,-0.0806 0.52622,-0.09542c0.73468,-0.05466 1.562,0.15472 2.33003,0.59108c0.21494,0.12137 0.42431,0.26033 0.61702,0.41227c1.08765,0.85511 1.59535,2.05116 1.18123,2.78213z"></path><path d="M86.0403,101.95449l-0.21957,0.0806c0.57996,2.35504 0.82084,4.7879 0.77173,7.18556c-0.01853,2.39951 -0.33352,4.77956 -0.96073,7.05771c-0.61424,2.29482 -1.71394,4.37193 -2.66633,6.49813c-0.97833,2.13362 -2.15863,4.17737 -3.3482,6.3953l0.16954,0.15935c2.14937,-1.35262 3.88739,-3.27871 5.23538,-5.44661c1.36837,-2.17623 1.99187,-4.72212 2.43564,-7.20038c0.43451,-2.49401 0.52159,-5.02693 0.3011,-7.51167c-0.27052,-2.47826 -0.7671,-4.9278 -1.71857,-7.21798z"></path></g></g></g></svg>