<svg version="1.1" xmlns="http://www.w3.org/2000/svg" xmlns:xlink="http://www.w3.org/1999/xlink" width="300" height="200"><defs><clipPath id="clip-1"><rect x="313.96094" y="425.3403" transform="scale(0.20439,0.20439)" width="128" height="128"></rect></clipPath></defs><g fill="none" fill-rule="nonzero" stroke="none" stroke-width="1" stroke-linecap="butt" stroke-linejoin="miter" stroke-miterlimit="10" stroke-dasharray="" stroke-dashoffset="0" font-family="none" font-weight="none" font-size="none" text-anchor="none" style="mix-blend-mode: normal"><path d="M0,200v-200h300v200z" fill="#fff2be" stroke="#808080"></path><text x="240" y="190" fill="#000000" stroke="none" font-family="Courier New" font-weight="bold" font-size="7" text-anchor="middle">logo gen function: 59</text><path d="M25,150v-100h250v100z" fill="none" stroke="none"></path><g fill="#f6318c" stroke="none"><path d="M43.49719,94.63797c0,1.19956 -0.23391,2.27316 -0.70174,3.22081c-0.46783,0.94765 -1.0916,1.76335 -1.87131,2.4471c-0.77971,0.68375 -1.66739,1.22955 -2.66302,1.6374c-0.99563,0.40785 -2.03325,0.65976 -3.11285,0.75572c-0.5518,0.04798 -1.12759,0.05398 -1.72736,0.01799c-0.59978,-0.03599 -1.23555,-0.14994 -1.9073,-0.34187c0.14395,-0.33588 0.30589,-0.68975 0.48582,-1.06161c0.17993,-0.37186 0.39585,-0.71374 0.64776,-1.02562c0.25191,-0.31189 0.5398,-0.57579 0.86368,-0.79171c0.32388,-0.21592 0.68975,-0.34787 1.0976,-0.39585c0.50381,-0.04798 0.97164,-0.19793 1.40348,-0.44983c0.43184,-0.25191 0.8097,-0.57579 1.13358,-0.97164c0.32388,-0.39585 0.58179,-0.85768 0.77372,-1.38549c0.19193,-0.52781 0.28789,-1.0796 0.28789,-1.65539c0,-0.62377 -0.11996,-1.20556 -0.35987,-1.74536c-0.23991,-0.5398 -0.58179,-1.01363 -1.02562,-1.42148c-0.44384,-0.40785 -0.97164,-0.73173 -1.58342,-0.97164c-0.61177,-0.23991 -1.28953,-0.35987 -2.03325,-0.35987c-0.33588,0 -0.61777,0.006 -0.84569,0.01799c-0.22792,0.012 -0.44983,0.02399 -0.66576,0.03599c-0.21592,0.012 -0.44384,0.03599 -0.68375,0.07197c-0.23991,0.03599 -0.51581,0.06598 -0.8277,0.08997v22.74363h-5.18209v-25.83849c0.95965,-0.16794 1.81133,-0.30589 2.55506,-0.41385c0.74373,-0.10796 1.42148,-0.19193 2.03325,-0.25191c0.61177,-0.05998 1.20556,-0.10196 1.78134,-0.12595c0.57579,-0.02399 1.18756,-0.03599 1.83532,-0.03599c1.46346,0 2.81896,0.19193 4.0665,0.57579c1.24754,0.38386 2.33314,0.92966 3.2568,1.6374c0.92366,0.70774 1.64939,1.56542 2.1772,2.57305c0.52781,1.00763 0.79171,2.14721 0.79171,3.41874zM48.1035,86.93681h5.18209v22.41975h9.42853v3.74262h-14.61062zM105.14251,100.89967v12.19951h-4.96617v-11.58774l-9.03268,-14.57464h5.61393l8.38491,13.96286M108.30934,86.93681h5.54196l-7.62919,12.59536c-0.23991,-0.31189 -0.49782,-0.71374 -0.77372,-1.20556c-0.2759,-0.49182 -0.50381,-1.03162 -0.68375,-1.6194c-0.17993,-0.58778 -0.2759,-1.19956 -0.28789,-1.83532c-0.012,-0.63577 0.13795,-1.24154 0.44983,-1.81733zM131.26889,90.17562c-1.43947,0 -2.711,0.2699 -3.8146,0.8097c-1.10359,0.5398 -2.03325,1.25954 -2.78897,2.15921c-0.75572,0.89967 -1.32551,1.94928 -1.70937,3.14884c-0.38386,1.19956 -0.57579,2.4471 -0.57579,3.74262c0,1.24754 0.19193,2.4591 0.57579,3.63466c0.38386,1.17557 0.94165,2.21918 1.67338,3.13085c0.73173,0.91166 1.6434,1.6434 2.73499,2.19519c1.0916,0.5518 2.35713,0.8277 3.7966,0.8277c0.52781,0 1.04362,-0.01799 1.54743,-0.05398c0.50381,-0.03599 1.13958,-0.14994 1.9073,-0.34187v-8.45689h4.6063v10.79603c-0.64776,0.28789 -1.33751,0.5458 -2.06924,0.77372c-0.73173,0.22792 -1.45746,0.41385 -2.1772,0.55779c-0.71974,0.14395 -1.40948,0.25191 -2.06924,0.32388c-0.65976,0.07197 -1.24154,0.10796 -1.74536,0.10796c-2.23118,0 -4.22844,-0.34787 -5.9918,-1.04362c-1.76335,-0.69574 -3.2568,-1.65539 -4.48035,-2.87894c-1.22355,-1.22355 -2.15921,-2.65702 -2.80697,-4.30042c-0.64776,-1.6434 -0.97164,-3.40075 -0.97164,-5.27206c0,-1.8953 0.33588,-3.66465 1.00763,-5.30805c0.67175,-1.6434 1.6314,-3.07687 2.87894,-4.30042c1.24754,-1.22355 2.75299,-2.18919 4.51634,-2.89693c1.76335,-0.70774 3.74862,-1.06161 5.95581,-1.06161c1.00763,0 2.1832,0.11996 3.5267,0.35987c1.34351,0.23991 2.69901,0.64776 4.0665,1.22355l-1.33151,3.45473c-1.3675,-0.52781 -2.54306,-0.88168 -3.5267,-1.06161c-0.98364,-0.17993 -1.8953,-0.2699 -2.73499,-0.2699zM162.93724,94.45804c0,1.43947 -0.32388,2.68701 -0.97164,3.74262c-0.64776,1.05561 -1.51144,1.9073 -2.59105,2.55506l-1.00763,0.39585c0.09596,0.04798 0.22792,0.10796 0.39585,0.17993c0.16794,0.07197 0.29989,0.14395 0.39585,0.21592c0.71974,0.62377 1.28353,1.3615 1.69138,2.21319c0.40785,0.85169 0.76172,1.77535 1.06161,2.77098c0.29989,0.99563 0.59978,2.05125 0.89967,3.16683c0.29989,1.11559 0.71374,2.24917 1.24154,3.40075h-5.29005c-0.43184,-0.91166 -0.77372,-1.8893 -1.02562,-2.93292c-0.25191,-1.04362 -0.52181,-2.05724 -0.8097,-3.04088c-0.28789,-0.98364 -0.62377,-1.8953 -1.00763,-2.73499c-0.38386,-0.83969 -0.91166,-1.52344 -1.58342,-2.05125c-0.50381,0.04798 -1.03762,0.05398 -1.60141,0.01799c-0.56379,-0.03599 -1.15757,-0.14994 -1.78134,-0.34187c0.14395,-0.33588 0.30589,-0.68975 0.48582,-1.06161c0.17993,-0.37186 0.39585,-0.71974 0.64776,-1.04362c0.25191,-0.32388 0.5398,-0.59378 0.86368,-0.8097c0.32388,-0.21592 0.68975,-0.34787 1.0976,-0.39585c0.50381,-0.04798 0.97164,-0.18593 1.40348,-0.41385c0.43184,-0.22792 0.8097,-0.52781 1.13358,-0.89967c0.32388,-0.37186 0.58179,-0.8097 0.77372,-1.31352c0.19193,-0.50381 0.28789,-1.04362 0.28789,-1.6194c0,-0.62377 -0.13195,-1.19956 -0.39585,-1.72736c-0.2639,-0.52781 -0.61777,-0.98364 -1.06161,-1.3675c-0.44384,-0.38386 -0.97164,-0.68375 -1.58342,-0.89967c-0.61177,-0.21592 -1.26553,-0.32388 -1.96128,-0.32388c-0.33588,0 -0.61777,0.006 -0.84569,0.01799c-0.22792,0.012 -0.44983,0.02399 -0.66576,0.03599c-0.21592,0.012 -0.44384,0.03599 -0.68375,0.07197c-0.23991,0.03599 -0.51581,0.06598 -0.8277,0.08997v22.74363h-5.18209v-25.83849c0.95965,-0.16794 1.81133,-0.30589 2.55506,-0.41385c0.74373,-0.10796 1.42148,-0.19193 2.03325,-0.25191c0.61177,-0.05998 1.20556,-0.10196 1.78134,-0.12595c0.57579,-0.02399 1.18756,-0.03599 1.83532,-0.03599c1.41548,0 2.74699,0.17993 3.99453,0.5398c1.24754,0.35987 2.33914,0.88168 3.27479,1.56542c0.93566,0.68375 1.67338,1.52344 2.21319,2.51907c0.5398,0.99563 0.8097,2.12922 0.8097,3.40075zM180.64272,90.10364c-1.24754,0 -2.33914,0.2639 -3.27479,0.79171c-0.93566,0.52781 -1.72137,1.24754 -2.35713,2.15921c-0.63577,0.91166 -1.11559,1.96728 -1.43947,3.16683c-0.32388,1.19956 -0.48582,2.4591 -0.48582,3.77861c0,1.24754 0.16194,2.46509 0.48582,3.65266c0.32388,1.18756 0.8037,2.24317 1.43947,3.16683c0.63577,0.92366 1.42148,1.66739 2.35713,2.23118c0.93566,0.56379 2.02725,0.84569 3.27479,0.84569c0.98364,0 1.93129,-0.22192 2.84295,-0.66576c0.91166,-0.44384 1.71537,-1.0856 2.41111,-1.92529c0.69574,-0.83969 1.25354,-1.87131 1.67338,-3.09486c0.41985,-1.22355 0.62977,-2.62703 0.62977,-4.21045c0,-1.41548 -0.17394,-2.729 -0.52181,-3.94055c-0.34787,-1.21155 -0.84569,-2.25517 -1.49345,-3.13085c-0.64776,-0.87568 -1.43947,-1.56542 -2.37513,-2.06924c-0.93566,-0.50381 -1.99127,-0.75572 -3.16683,-0.75572M180.64272,113.60299c-2.08723,0 -3.93455,-0.34787 -5.54196,-1.04362c-1.60741,-0.69574 -2.96891,-1.64939 -4.0845,-2.86095c-1.11559,-1.21155 -1.96128,-2.64503 -2.53707,-4.30042c-0.57579,-1.65539 -0.86368,-3.45473 -0.86368,-5.39801c0,-1.87131 0.29389,-3.63466 0.88168,-5.29005c0.58778,-1.65539 1.43947,-3.10086 2.55506,-4.3364c1.11559,-1.23555 2.47709,-2.20719 4.0845,-2.91493c1.60741,-0.70774 3.44273,-1.06161 5.50597,-1.06161c2.35113,0 4.3484,0.40785 5.9918,1.22355c1.6434,0.8157 2.9869,1.87731 4.03052,3.18483c1.04362,1.30752 1.79934,2.77098 2.26717,4.39038c0.46783,1.6194 0.70174,3.22081 0.70174,4.80423c0,1.77535 -0.28789,3.47872 -0.86368,5.11012c-0.57579,1.6314 -1.40948,3.07687 -2.50108,4.3364c-1.0916,1.25954 -2.4471,2.26717 -4.0665,3.02289c-1.6194,0.75572 -3.47272,1.13358 -5.55995,1.13358zM207.92069,113.60299c-1.60741,0 -3.05887,-0.22792 -4.3544,-0.68375c-1.29552,-0.45583 -2.39312,-1.12759 -3.29279,-2.01526c-0.89967,-0.88767 -1.59541,-1.98527 -2.08723,-3.29279c-0.49182,-1.30752 -0.73773,-2.81296 -0.73773,-4.51634v-16.15805h5.07413v16.69786c0,0.98364 0.13795,1.85932 0.41385,2.62703c0.2759,0.76772 0.65376,1.42148 1.13358,1.96128c0.47982,0.5398 1.04961,0.95365 1.70937,1.24154c0.65976,0.28789 1.37349,0.43184 2.14121,0.43184c0.76772,0 1.48145,-0.14395 2.14121,-0.43184c0.65976,-0.28789 1.22955,-0.70174 1.70937,-1.24154c0.47982,-0.5398 0.85768,-1.19356 1.13358,-1.96128c0.2759,-0.76772 0.41385,-1.6434 0.41385,-2.62703v-16.69786h5.03815v16.15805c0,1.58342 -0.23991,3.02289 -0.71974,4.31841c-0.47982,1.29552 -1.16957,2.40511 -2.06924,3.32878c-0.89967,0.92366 -1.99727,1.6314 -3.29279,2.12322c-1.29552,0.49182 -2.74699,0.73773 -4.3544,0.73773zM228.90096,94.78192l-0.57579,-1.29552l0.07197,1.22355v18.38923h-4.39038v-26.16237h4.96617l11.04793,17.59752l0.50381,1.43947l-0.07197,-1.43947v-17.59752h4.53433v26.16237h-4.53433zM261.6849,109.82438c1.3675,0 2.54906,-0.28789 3.5447,-0.86368c0.99563,-0.57579 1.81733,-1.33151 2.46509,-2.26717c0.64776,-0.93566 1.12159,-1.99127 1.42148,-3.16683c0.29989,-1.17557 0.44983,-2.36313 0.44983,-3.56269c0,-1.41548 -0.18593,-2.723 -0.55779,-3.92256c-0.37186,-1.19956 -0.95365,-2.23118 -1.74536,-3.09486c-0.79171,-0.86368 -1.80534,-1.54143 -3.04088,-2.03325c-1.23555,-0.49182 -2.717,-0.73773 -4.44436,-0.73773c-0.47982,0 -0.97764,0.02399 -1.49345,0.07197c-0.51581,0.04798 -1.04961,0.11996 -1.60141,0.21592v22.63567h-5.07413v-25.69454c1.60741,-0.33588 3.10686,-0.57579 4.49834,-0.71974c1.39149,-0.14395 2.61504,-0.21592 3.67065,-0.21592c2.39912,0 4.54033,0.30589 6.42364,0.91766c1.88331,0.61177 3.47872,1.49345 4.78624,2.64503c1.30752,1.15158 2.30315,2.56106 2.9869,4.22844c0.68375,1.66739 1.02562,3.56869 1.02562,5.7039c0,1.8953 -0.32388,3.67065 -0.97164,5.32604c-0.64776,1.65539 -1.53543,3.09486 -2.66302,4.31841c-1.12759,1.22355 -2.47709,2.1832 -4.04851,2.87894c-1.57142,0.69574 -3.2688,1.04362 -5.09213,1.04362c-0.33588,0 -0.64176,-0.006 -0.91766,-0.01799c-0.2759,-0.012 -0.56979,-0.04198 -0.88168,-0.08997c-0.31189,-0.04798 -0.65376,-0.10796 -1.02562,-0.17993c-0.37186,-0.07197 -0.8217,-0.17993 -1.3495,-0.32388c0.14395,-0.31189 0.32388,-0.64776 0.5398,-1.00763c0.21592,-0.35987 0.46783,-0.69574 0.75572,-1.00763c0.28789,-0.31189 0.62377,-0.56979 1.00763,-0.77372c0.38386,-0.20392 0.8277,-0.30589 1.33151,-0.30589z"></path></g><g clip-path="url(#clip-1)" fill="#f6318c" stroke="none"><path d="M88.69881,110.64646c-4.88705,0 -9.95192,-11.40925 -11.491,-15.80371c-0.01388,-0.03586 -0.03027,-0.07069 -0.04905,-0.10424l1.69851,-5.94172c0.08686,-0.28282 0.01414,-0.5905 -0.19013,-0.80452c-0.20428,-0.21402 -0.50824,-0.30098 -0.79479,-0.22738c-0.28656,0.0736 -0.511,0.29627 -0.58686,0.58223l-1.70055,5.94785h-4.02246l1.57179,-5.49819c0.08686,-0.28282 0.01414,-0.5905 -0.19013,-0.80452c-0.20428,-0.21402 -0.50824,-0.30098 -0.79479,-0.22738c-0.28656,0.0736 -0.511,0.29627 -0.58686,0.58223l-6.54059,22.89208c-0.08686,0.28282 -0.01414,0.5905 0.19013,0.80452c0.20428,0.21402 0.50824,0.30098 0.79479,0.22738c0.28656,-0.0736 0.511,-0.29627 0.58686,-0.58223l0.76443,-2.67756h4.02246l-0.63566,2.22789c-0.08686,0.28282 -0.01414,0.5905 0.19013,0.80452c0.20428,0.21402 0.50824,0.30098 0.79479,0.22738c0.28656,-0.0736 0.511,-0.29627 0.58686,-0.58223l4.09809,-14.34434c0.87179,2.1678 1.86817,4.2834 2.98415,6.3362c3.13744,5.70667 6.26671,8.60088 9.29991,8.60088c0.45153,0 0.81757,-0.36604 0.81757,-0.81757c0,-0.45153 -0.36604,-0.81757 -0.81757,-0.81757zM75.11686,95.93012l-1.40418,4.91975c-0.04584,-0.00873 -0.09234,-0.01351 -0.13899,-0.01431h-3.88348l1.40214,-4.90544zM71.73415,107.37616h-3.91005l1.40214,-4.90544h4.02246l-1.40418,4.91566c-0.03652,-0.0059 -0.07339,-0.00931 -0.11037,-0.01022z"></path></g></g></svg>